G04 #@! TF.GenerationSoftware,KiCad,Pcbnew,6.0.0-unknown-3fefe01~100~ubuntu19.04.1*
G04 #@! TF.CreationDate,2019-08-17T22:35:10-04:00*
G04 #@! TF.ProjectId,1000WBlender,31303030-5742-46c6-956e-6465722e6b69,rev?*
G04 #@! TF.SameCoordinates,Original*
G04 #@! TF.FileFunction,Legend,Bot*
G04 #@! TF.FilePolarity,Positive*
%FSLAX46Y46*%
G04 Gerber Fmt 4.6, Leading zero omitted, Abs format (unit mm)*
G04 Created by KiCad (PCBNEW 6.0.0-unknown-3fefe01~100~ubuntu19.04.1) date 2019-08-17 22:35:10*
%MOMM*%
%LPD*%
G04 APERTURE LIST*
%ADD10C,0.150000*%
%ADD11C,0.100000*%
%ADD12C,0.120000*%
G04 APERTURE END LIST*
D10*
X155391244Y-143200380D02*
X155962672Y-143200380D01*
X155676958Y-143200380D02*
X155551958Y-142200380D01*
X155665053Y-142343238D01*
X155772196Y-142438476D01*
X155873386Y-142486095D01*
X154647196Y-142200380D02*
X154551958Y-142200380D01*
X154462672Y-142248000D01*
X154421005Y-142295619D01*
X154385291Y-142390857D01*
X154361482Y-142581333D01*
X154391244Y-142819428D01*
X154462672Y-143009904D01*
X154522196Y-143105142D01*
X154575767Y-143152761D01*
X154676958Y-143200380D01*
X154772196Y-143200380D01*
X154861482Y-143152761D01*
X154903148Y-143105142D01*
X154938863Y-143009904D01*
X154962672Y-142819428D01*
X154932910Y-142581333D01*
X154861482Y-142390857D01*
X154801958Y-142295619D01*
X154748386Y-142248000D01*
X154647196Y-142200380D01*
X153694815Y-142200380D02*
X153599577Y-142200380D01*
X153510291Y-142248000D01*
X153468625Y-142295619D01*
X153432910Y-142390857D01*
X153409101Y-142581333D01*
X153438863Y-142819428D01*
X153510291Y-143009904D01*
X153569815Y-143105142D01*
X153623386Y-143152761D01*
X153724577Y-143200380D01*
X153819815Y-143200380D01*
X153909101Y-143152761D01*
X153950767Y-143105142D01*
X153986482Y-143009904D01*
X154010291Y-142819428D01*
X153980529Y-142581333D01*
X153909101Y-142390857D01*
X153849577Y-142295619D01*
X153796005Y-142248000D01*
X153694815Y-142200380D01*
X152742434Y-142200380D02*
X152647196Y-142200380D01*
X152557910Y-142248000D01*
X152516244Y-142295619D01*
X152480529Y-142390857D01*
X152456720Y-142581333D01*
X152486482Y-142819428D01*
X152557910Y-143009904D01*
X152617434Y-143105142D01*
X152671005Y-143152761D01*
X152772196Y-143200380D01*
X152867434Y-143200380D01*
X152956720Y-143152761D01*
X152998386Y-143105142D01*
X153034101Y-143009904D01*
X153057910Y-142819428D01*
X153028148Y-142581333D01*
X152956720Y-142390857D01*
X152897196Y-142295619D01*
X152843625Y-142248000D01*
X152742434Y-142200380D01*
X152075767Y-142200380D02*
X151962672Y-143200380D01*
X151682910Y-142486095D01*
X151581720Y-143200380D01*
X151218625Y-142200380D01*
X149801958Y-142676571D02*
X149665053Y-142724190D01*
X149623386Y-142771809D01*
X149587672Y-142867047D01*
X149605529Y-143009904D01*
X149665053Y-143105142D01*
X149718625Y-143152761D01*
X149819815Y-143200380D01*
X150200767Y-143200380D01*
X150075767Y-142200380D01*
X149742434Y-142200380D01*
X149653148Y-142248000D01*
X149611482Y-142295619D01*
X149575767Y-142390857D01*
X149587672Y-142486095D01*
X149647196Y-142581333D01*
X149700767Y-142628952D01*
X149801958Y-142676571D01*
X150135291Y-142676571D01*
X149057910Y-143200380D02*
X149147196Y-143152761D01*
X149182910Y-143057523D01*
X149075767Y-142200380D01*
X148290053Y-143152761D02*
X148391244Y-143200380D01*
X148581720Y-143200380D01*
X148671005Y-143152761D01*
X148706720Y-143057523D01*
X148659101Y-142676571D01*
X148599577Y-142581333D01*
X148498386Y-142533714D01*
X148307910Y-142533714D01*
X148218625Y-142581333D01*
X148182910Y-142676571D01*
X148194815Y-142771809D01*
X148682910Y-142867047D01*
X147736482Y-142533714D02*
X147819815Y-143200380D01*
X147748386Y-142628952D02*
X147694815Y-142581333D01*
X147593625Y-142533714D01*
X147450767Y-142533714D01*
X147361482Y-142581333D01*
X147325767Y-142676571D01*
X147391244Y-143200380D01*
X146486482Y-143200380D02*
X146361482Y-142200380D01*
X146480529Y-143152761D02*
X146581720Y-143200380D01*
X146772196Y-143200380D01*
X146861482Y-143152761D01*
X146903148Y-143105142D01*
X146938863Y-143009904D01*
X146903148Y-142724190D01*
X146843625Y-142628952D01*
X146790053Y-142581333D01*
X146688863Y-142533714D01*
X146498386Y-142533714D01*
X146409101Y-142581333D01*
X145623386Y-143152761D02*
X145724577Y-143200380D01*
X145915053Y-143200380D01*
X146004339Y-143152761D01*
X146040053Y-143057523D01*
X145992434Y-142676571D01*
X145932910Y-142581333D01*
X145831720Y-142533714D01*
X145641244Y-142533714D01*
X145551958Y-142581333D01*
X145516244Y-142676571D01*
X145528148Y-142771809D01*
X146016244Y-142867047D01*
X145153148Y-143200380D02*
X145069815Y-142533714D01*
X145093625Y-142724190D02*
X145034101Y-142628952D01*
X144980529Y-142581333D01*
X144879339Y-142533714D01*
X144784101Y-142533714D01*
D11*
G36*
X152993092Y-141167729D02*
G01*
X153004687Y-141186417D01*
X153029661Y-141217421D01*
X153036113Y-141225051D01*
X153051453Y-141254362D01*
X153060666Y-141287282D01*
X153061701Y-141314132D01*
X153052508Y-141325233D01*
X153047573Y-141325964D01*
X153036624Y-141339948D01*
X153034047Y-141350507D01*
X153018975Y-141374708D01*
X153010069Y-141381354D01*
X152971180Y-141391611D01*
X152905661Y-141395291D01*
X152809995Y-141395828D01*
X152834068Y-141349941D01*
X152840978Y-141335385D01*
X152859290Y-141286663D01*
X152874048Y-141234690D01*
X152879988Y-141212651D01*
X152894984Y-141177061D01*
X152910343Y-141161929D01*
X152922091Y-141159369D01*
X152954357Y-141149015D01*
X152971730Y-141147399D01*
X152993092Y-141167729D01*
G37*
G36*
X150586677Y-141289981D02*
G01*
X150586879Y-141307258D01*
X150584241Y-141300082D01*
X150581812Y-141288462D01*
X150575899Y-141277536D01*
X150563385Y-141284459D01*
X150537983Y-141310671D01*
X150529550Y-141319079D01*
X150496454Y-141343606D01*
X150468369Y-141353471D01*
X150450628Y-141356092D01*
X150438736Y-141366555D01*
X150435001Y-141374257D01*
X150414028Y-141384980D01*
X150397452Y-141387396D01*
X150357257Y-141390981D01*
X150308136Y-141393815D01*
X150297557Y-141394225D01*
X150254578Y-141393887D01*
X150232920Y-141388283D01*
X150226952Y-141376190D01*
X150233465Y-141358291D01*
X150255755Y-141334897D01*
X150263064Y-141328261D01*
X150284034Y-141289447D01*
X150295402Y-141247579D01*
X150551688Y-141247579D01*
X150558747Y-141254638D01*
X150565807Y-141247579D01*
X150558747Y-141240519D01*
X150551688Y-141247579D01*
X150295402Y-141247579D01*
X150301660Y-141224533D01*
X150315489Y-141135038D01*
X150317137Y-141128271D01*
X150337801Y-141101590D01*
X150372983Y-141080229D01*
X150411925Y-141071300D01*
X150412380Y-141071309D01*
X150433966Y-141081024D01*
X150467965Y-141105532D01*
X150507226Y-141139700D01*
X150538417Y-141170315D01*
X150565446Y-141203126D01*
X150579314Y-141233552D01*
X150581569Y-141247579D01*
X150585220Y-141270301D01*
X150586677Y-141289981D01*
G37*
G36*
X154008042Y-134495098D02*
G01*
X154000438Y-134600705D01*
X153999788Y-134611670D01*
X153998114Y-134639908D01*
X153994978Y-134692838D01*
X153991771Y-134765802D01*
X153991290Y-134776758D01*
X153991064Y-134782465D01*
X153987601Y-134824869D01*
X153986513Y-134838207D01*
X153978898Y-134882439D01*
X153974471Y-134894049D01*
X153969612Y-134906797D01*
X153964807Y-134916514D01*
X153956436Y-134954607D01*
X153954483Y-134971703D01*
X153949512Y-135015240D01*
X153948937Y-135024410D01*
X153944792Y-135090538D01*
X153944533Y-135094683D01*
X153942548Y-135133238D01*
X153942509Y-135134006D01*
X153936574Y-135205851D01*
X153929988Y-135247023D01*
X153928932Y-135253627D01*
X153919864Y-135275261D01*
X153906557Y-135288779D01*
X153888544Y-135316049D01*
X153878573Y-135341599D01*
X153878909Y-135343175D01*
X153881495Y-135355306D01*
X153885933Y-135360357D01*
X153886286Y-135383325D01*
X153877840Y-135413775D01*
X153869741Y-135429738D01*
X153864350Y-135440364D01*
X153849570Y-135451748D01*
X153838715Y-135454864D01*
X153821493Y-135474716D01*
X153820333Y-135497870D01*
X153836624Y-135524771D01*
X153865145Y-135536462D01*
X153873834Y-135538240D01*
X153876635Y-135550689D01*
X153875462Y-135563020D01*
X153888663Y-135585738D01*
X153896695Y-135597894D01*
X153902157Y-135626152D01*
X153896951Y-135652135D01*
X153882114Y-135663532D01*
X153876391Y-135665909D01*
X153869642Y-135684711D01*
X153867056Y-135694743D01*
X153848114Y-135705889D01*
X153830425Y-135714812D01*
X153813226Y-135741029D01*
X153806750Y-135765374D01*
X153798683Y-135809100D01*
X153790992Y-135861255D01*
X153784868Y-135912792D01*
X153781501Y-135954662D01*
X153782081Y-135977813D01*
X153787690Y-136006546D01*
X153790869Y-136056822D01*
X153787733Y-136103858D01*
X153778555Y-136135454D01*
X153775961Y-136140388D01*
X153766491Y-136177024D01*
X153764821Y-136221231D01*
X153767168Y-136253743D01*
X153771148Y-136310586D01*
X153775170Y-136369480D01*
X153776769Y-136390658D01*
X153778586Y-136414739D01*
X153781873Y-136448392D01*
X153784185Y-136461253D01*
X153787597Y-136470095D01*
X153793160Y-136496550D01*
X153794844Y-136503610D01*
X153800618Y-136527822D01*
X153814667Y-136569866D01*
X153815830Y-136572964D01*
X153822998Y-136615399D01*
X153822241Y-136630681D01*
X153820607Y-136663720D01*
X153820133Y-136666612D01*
X153817847Y-136708194D01*
X153826557Y-136729063D01*
X153836290Y-136739683D01*
X153856056Y-136770246D01*
X153878527Y-136811696D01*
X153894421Y-136841973D01*
X153919269Y-136884627D01*
X153937280Y-136910707D01*
X153938904Y-136913060D01*
X153943157Y-136918584D01*
X153962657Y-136952565D01*
X153963724Y-136954425D01*
X153970896Y-136971622D01*
X153981802Y-136997773D01*
X153985806Y-137008780D01*
X154001845Y-137042735D01*
X154004667Y-137048711D01*
X154018683Y-137068368D01*
X154023716Y-137075428D01*
X154032145Y-137084304D01*
X154057233Y-137115979D01*
X154084489Y-137155306D01*
X154095267Y-137171342D01*
X154103591Y-137182488D01*
X154127911Y-137215053D01*
X154157562Y-137249112D01*
X154162196Y-137253901D01*
X154180973Y-137278344D01*
X154184110Y-137292774D01*
X154183662Y-137297582D01*
X154200615Y-137301331D01*
X154202405Y-137301355D01*
X154218816Y-137308804D01*
X154217469Y-137334033D01*
X154216378Y-137357807D01*
X154216332Y-137358828D01*
X154227540Y-137391928D01*
X154228254Y-137394038D01*
X154228956Y-137395072D01*
X154245026Y-137428770D01*
X154257477Y-137470758D01*
X154257788Y-137472224D01*
X154272956Y-137520304D01*
X154294276Y-137566215D01*
X154294579Y-137566868D01*
X154297862Y-137572769D01*
X154312130Y-137604888D01*
X154314622Y-137610500D01*
X154321449Y-137639775D01*
X154326110Y-137661486D01*
X154340715Y-137701437D01*
X154361804Y-137748390D01*
X154380329Y-137787054D01*
X154407234Y-137845547D01*
X154428479Y-137894327D01*
X154437574Y-137915325D01*
X154454095Y-137948862D01*
X154465231Y-137965417D01*
X154468842Y-137968852D01*
X154481244Y-137989784D01*
X154484630Y-137995501D01*
X154501030Y-138035569D01*
X154513903Y-138077863D01*
X154519114Y-138111190D01*
X154525375Y-138130329D01*
X154546151Y-138165893D01*
X154576052Y-138208222D01*
X154609420Y-138249882D01*
X154640596Y-138283437D01*
X154657790Y-138296717D01*
X154663921Y-138301453D01*
X154666893Y-138303679D01*
X154666235Y-138319720D01*
X154664448Y-138330392D01*
X154674936Y-138353812D01*
X154682573Y-138366067D01*
X154681845Y-138367312D01*
X154677720Y-138374371D01*
X154669844Y-138377134D01*
X154665282Y-138394813D01*
X154673428Y-138419995D01*
X154692071Y-138442237D01*
X154706398Y-138456823D01*
X154716779Y-138481534D01*
X154719423Y-138493417D01*
X154733302Y-138527677D01*
X154755570Y-138573907D01*
X154765723Y-138593215D01*
X154782242Y-138624634D01*
X154809332Y-138672385D01*
X154817280Y-138684989D01*
X154832852Y-138709687D01*
X154832988Y-138709851D01*
X154848818Y-138729067D01*
X154847750Y-138741901D01*
X154828027Y-138760835D01*
X154815903Y-138769716D01*
X154806449Y-138780932D01*
X154819530Y-138783821D01*
X154832218Y-138785909D01*
X154843850Y-138797940D01*
X154846239Y-138804435D01*
X154865028Y-138812059D01*
X154869962Y-138812300D01*
X154885174Y-138821308D01*
X154879404Y-138838027D01*
X154873495Y-138842085D01*
X154854439Y-138855173D01*
X154836750Y-138863357D01*
X154836293Y-138866627D01*
X154862058Y-138863628D01*
X154888753Y-138863484D01*
X154895891Y-138873916D01*
X154889991Y-138881246D01*
X154867093Y-138885565D01*
X154855017Y-138885569D01*
X154848966Y-138891304D01*
X154843850Y-138896154D01*
X154844631Y-138900713D01*
X154859698Y-138910892D01*
X154868113Y-138913776D01*
X154860278Y-138929288D01*
X154857036Y-138934006D01*
X154855425Y-138957247D01*
X154872668Y-138993165D01*
X154875770Y-138998434D01*
X154893210Y-139035820D01*
X154900326Y-139065365D01*
X154903107Y-139080846D01*
X154917974Y-139099246D01*
X154928190Y-139106251D01*
X154918451Y-139118610D01*
X154914655Y-139121724D01*
X154909223Y-139138748D01*
X154921020Y-139168862D01*
X154921366Y-139169535D01*
X154931318Y-139198277D01*
X154928219Y-139214662D01*
X154923901Y-139219031D01*
X154922432Y-139240015D01*
X154923861Y-139255045D01*
X154912804Y-139280487D01*
X154907591Y-139285044D01*
X154892447Y-139298283D01*
X154871297Y-139298674D01*
X154851746Y-139290522D01*
X154825990Y-139285044D01*
X154886207Y-139285044D01*
X154893266Y-139292104D01*
X154900326Y-139285044D01*
X154893266Y-139277985D01*
X154886207Y-139285044D01*
X154825990Y-139285044D01*
X154816412Y-139283007D01*
X154792020Y-139276973D01*
X154775811Y-139264474D01*
X154771868Y-139258315D01*
X154750403Y-139249747D01*
X154737872Y-139247029D01*
X154705919Y-139232997D01*
X154671186Y-139212931D01*
X154646185Y-139193574D01*
X154629882Y-139182517D01*
X154600298Y-139166154D01*
X154572939Y-139145326D01*
X154561471Y-139123114D01*
X154560067Y-139111851D01*
X154546985Y-139085600D01*
X154546463Y-139085055D01*
X154544637Y-139065090D01*
X154567068Y-139033815D01*
X154589559Y-139005258D01*
X154607766Y-138973707D01*
X154616084Y-138949071D01*
X154610910Y-138939130D01*
X154598691Y-138942675D01*
X154572078Y-138955128D01*
X154560677Y-138960503D01*
X154538934Y-138960723D01*
X154516530Y-138939445D01*
X154516429Y-138939320D01*
X154497858Y-138919573D01*
X154489111Y-138916387D01*
X154489023Y-138916824D01*
X154488839Y-138917951D01*
X154485581Y-138937953D01*
X154485181Y-138940082D01*
X154473227Y-138961485D01*
X154462295Y-138979252D01*
X154472377Y-138990434D01*
X154503651Y-138988841D01*
X154522620Y-138985929D01*
X154549038Y-138991331D01*
X154552123Y-139011606D01*
X154530874Y-139044699D01*
X154520539Y-139056008D01*
X154499437Y-139071488D01*
X154472211Y-139075855D01*
X154428063Y-139071975D01*
X154403987Y-139068992D01*
X154358901Y-139063596D01*
X154328508Y-139060208D01*
X154298343Y-139055157D01*
X154238681Y-139034121D01*
X154166914Y-138995358D01*
X154143530Y-138981802D01*
X154100023Y-138959285D01*
X154067418Y-138945731D01*
X154050294Y-138940970D01*
X154040614Y-138942435D01*
X154041577Y-138943836D01*
X154051498Y-138958272D01*
X154064961Y-138971814D01*
X154069707Y-138974427D01*
X154082528Y-138981487D01*
X154087642Y-138982802D01*
X154112234Y-138995319D01*
X154146305Y-139016784D01*
X154160137Y-139025713D01*
X154195217Y-139044570D01*
X154219009Y-139052081D01*
X154229578Y-139054477D01*
X154260897Y-139068988D01*
X154299268Y-139092284D01*
X154310036Y-139099145D01*
X154318955Y-139104829D01*
X154362229Y-139128340D01*
X154365742Y-139129736D01*
X154396362Y-139141905D01*
X154399910Y-139143855D01*
X154425594Y-139157974D01*
X154427618Y-139159087D01*
X154438349Y-139172092D01*
X154449999Y-139186211D01*
X154455167Y-139192475D01*
X154455201Y-139192540D01*
X154471362Y-139214449D01*
X154478562Y-139224211D01*
X154504840Y-139242638D01*
X154521576Y-139250497D01*
X154533233Y-139264817D01*
X154535615Y-139270866D01*
X154554411Y-139277985D01*
X154564117Y-139279272D01*
X154564223Y-139279366D01*
X154575590Y-139289489D01*
X154581016Y-139297801D01*
X154582407Y-139298745D01*
X154604756Y-139313920D01*
X154627637Y-139325048D01*
X154637682Y-139329934D01*
X154669067Y-139340867D01*
X154688186Y-139341740D01*
X154693733Y-139330935D01*
X154692051Y-139304001D01*
X154690974Y-139299702D01*
X154690291Y-139282035D01*
X154703966Y-139285958D01*
X154715976Y-139292093D01*
X154749579Y-139302353D01*
X154770457Y-139309182D01*
X154804546Y-139329143D01*
X154837030Y-139355307D01*
X154860150Y-139381158D01*
X154861320Y-139384870D01*
X154866143Y-139400183D01*
X154865286Y-139409939D01*
X154880424Y-139419174D01*
X154890276Y-139420571D01*
X154891256Y-139422214D01*
X154895757Y-139429763D01*
X154893266Y-139438390D01*
X154898095Y-139461531D01*
X154898988Y-139465815D01*
X154915338Y-139492129D01*
X154935168Y-139503888D01*
X154947586Y-139508808D01*
X154948071Y-139509997D01*
X154954506Y-139525787D01*
X154956802Y-139531424D01*
X154956893Y-139531812D01*
X154960855Y-139548851D01*
X154981510Y-139573352D01*
X154981827Y-139573600D01*
X154993078Y-139582424D01*
X154988727Y-139588172D01*
X154977366Y-139598154D01*
X154975931Y-139609300D01*
X154973597Y-139627429D01*
X154974028Y-139630958D01*
X154975337Y-139641702D01*
X154976608Y-139652137D01*
X154978096Y-139664348D01*
X154979114Y-139666256D01*
X154987327Y-139681662D01*
X155000707Y-139671293D01*
X155001458Y-139670129D01*
X155010326Y-139663682D01*
X155013061Y-139683461D01*
X155011550Y-139692141D01*
X155009670Y-139702944D01*
X154994394Y-139707540D01*
X154987981Y-139706416D01*
X154986286Y-139708613D01*
X154978811Y-139718304D01*
X154976969Y-139753870D01*
X154977268Y-139761770D01*
X154977289Y-139761982D01*
X154978761Y-139776854D01*
X154980960Y-139799075D01*
X154983149Y-139807445D01*
X154986840Y-139821564D01*
X154994824Y-139840915D01*
X154995353Y-139842743D01*
X155001475Y-139863921D01*
X155004535Y-139874510D01*
X155006413Y-139883076D01*
X155006416Y-139892159D01*
X155006419Y-139903925D01*
X155006419Y-139906871D01*
X154991417Y-139913338D01*
X154977878Y-139917699D01*
X154977608Y-139926537D01*
X154977223Y-139939191D01*
X154977556Y-139941576D01*
X154979103Y-139952673D01*
X154966820Y-139985742D01*
X154936224Y-140015161D01*
X154894136Y-140035554D01*
X154847380Y-140041542D01*
X154821752Y-140040694D01*
X154787586Y-140042410D01*
X154737958Y-140047778D01*
X154728133Y-140048959D01*
X154687526Y-140053745D01*
X154660304Y-140056804D01*
X154644279Y-140063116D01*
X154620676Y-140085005D01*
X154613600Y-140093819D01*
X154593589Y-140108838D01*
X154580035Y-140107883D01*
X154580631Y-140089994D01*
X154583324Y-140079619D01*
X154578611Y-140071466D01*
X154561306Y-140071963D01*
X154527571Y-140067022D01*
X154490591Y-140058187D01*
X154460771Y-140048040D01*
X154448519Y-140039167D01*
X154444779Y-140032343D01*
X154423811Y-140026073D01*
X154408365Y-140023501D01*
X154418093Y-140013821D01*
X154424495Y-140007161D01*
X154417061Y-139998691D01*
X154388561Y-139989072D01*
X154335568Y-139976764D01*
X154322709Y-139973488D01*
X154289681Y-139962459D01*
X154275471Y-139959400D01*
X154270945Y-139962754D01*
X154264973Y-139967181D01*
X154264966Y-139967451D01*
X154257983Y-139974520D01*
X154252270Y-139980305D01*
X154222616Y-139990992D01*
X154221780Y-139991178D01*
X154202028Y-139998051D01*
X154192427Y-140001392D01*
X154180259Y-140012849D01*
X154177288Y-140018101D01*
X154159081Y-140017276D01*
X154148367Y-140014654D01*
X154139266Y-140019230D01*
X154137902Y-140019916D01*
X154143162Y-140033062D01*
X154161714Y-140061771D01*
X154166212Y-140067727D01*
X154182897Y-140089825D01*
X154187277Y-140095627D01*
X154204462Y-140115709D01*
X154213099Y-140125803D01*
X154220076Y-140132181D01*
X154232427Y-140143472D01*
X154240148Y-140149990D01*
X154250854Y-140174063D01*
X154252139Y-140181879D01*
X154268503Y-140201664D01*
X154269199Y-140202003D01*
X154269052Y-140206010D01*
X154246633Y-140204667D01*
X154218963Y-140205551D01*
X154193637Y-140216895D01*
X154176039Y-140224778D01*
X154167340Y-140232547D01*
X154154309Y-140255640D01*
X154168015Y-140271982D01*
X154207837Y-140281200D01*
X154273157Y-140282925D01*
X154290472Y-140282379D01*
X154344677Y-140278814D01*
X154375876Y-140271980D01*
X154388239Y-140260382D01*
X154385937Y-140242525D01*
X154383904Y-140231235D01*
X154395564Y-140228069D01*
X154402205Y-140231644D01*
X154410504Y-140247992D01*
X154414280Y-140252618D01*
X154439105Y-140256571D01*
X154481448Y-140255332D01*
X154505628Y-140253595D01*
X154539869Y-140254290D01*
X154559487Y-140263032D01*
X154573486Y-140282476D01*
X154576154Y-140286870D01*
X154601546Y-140315728D01*
X154603174Y-140317579D01*
X154639264Y-140346223D01*
X154667247Y-140364225D01*
X154686666Y-140376718D01*
X154701816Y-140333260D01*
X154716965Y-140289802D01*
X154748640Y-140318649D01*
X154777251Y-140341610D01*
X154812082Y-140363877D01*
X154832530Y-140379200D01*
X154843850Y-140400495D01*
X154847447Y-140411505D01*
X154867480Y-140411666D01*
X154884111Y-140409726D01*
X154883423Y-140414560D01*
X154881599Y-140427383D01*
X154879051Y-140436403D01*
X154874225Y-140471036D01*
X154873986Y-140472753D01*
X154871872Y-140518078D01*
X154870817Y-140550353D01*
X154866377Y-140568459D01*
X154857753Y-140562810D01*
X154845154Y-140549895D01*
X154832405Y-140559315D01*
X154812129Y-140570331D01*
X154776265Y-140571796D01*
X154774091Y-140571553D01*
X154745415Y-140571938D01*
X154740399Y-140580879D01*
X154737219Y-140588868D01*
X154710643Y-140585481D01*
X154710421Y-140585426D01*
X154685548Y-140582230D01*
X154679597Y-140587997D01*
X154677287Y-140595496D01*
X154656072Y-140599153D01*
X154648850Y-140599142D01*
X154630981Y-140606837D01*
X154629930Y-140632862D01*
X154640495Y-140663444D01*
X154657907Y-140688998D01*
X154663905Y-140697802D01*
X154683057Y-140720757D01*
X154688363Y-140733642D01*
X154689299Y-140744585D01*
X154700162Y-140769925D01*
X154701356Y-140772184D01*
X154709413Y-140795881D01*
X154699078Y-140806379D01*
X154689503Y-140814014D01*
X154681542Y-140839286D01*
X154674349Y-140859299D01*
X154646185Y-140867361D01*
X154641211Y-140867638D01*
X154601592Y-140874203D01*
X154557056Y-140886397D01*
X154521852Y-140896298D01*
X154497919Y-140895034D01*
X154476854Y-140880574D01*
X154462604Y-140868142D01*
X154454197Y-140865650D01*
X154457698Y-140884299D01*
X154458869Y-140901234D01*
X154447427Y-140916569D01*
X154418320Y-140926029D01*
X154368072Y-140930606D01*
X154293211Y-140931293D01*
X154257814Y-140931314D01*
X154195603Y-140934940D01*
X154144493Y-140944994D01*
X154092903Y-140963329D01*
X154046335Y-140980745D01*
X154013861Y-140987034D01*
X153995522Y-140980912D01*
X153993584Y-140979166D01*
X153984085Y-140974881D01*
X153988586Y-140993438D01*
X153995153Y-141014621D01*
X154004095Y-141064211D01*
X154004518Y-141108005D01*
X153995889Y-141135620D01*
X153988075Y-141154373D01*
X153997645Y-141186671D01*
X154006444Y-141206529D01*
X154004004Y-141209424D01*
X154001007Y-141207296D01*
X153982998Y-141211200D01*
X153964020Y-141234907D01*
X153949463Y-141272212D01*
X153946522Y-141280559D01*
X153927110Y-141305395D01*
X153899985Y-141321857D01*
X153874153Y-141325866D01*
X153858620Y-141313344D01*
X153851747Y-141304672D01*
X153827195Y-141296995D01*
X153814718Y-141294854D01*
X153782337Y-141276474D01*
X153751279Y-141246252D01*
X153729331Y-141212709D01*
X153724277Y-141184365D01*
X153720908Y-141158426D01*
X153701753Y-141125197D01*
X153674448Y-141097330D01*
X153647269Y-141085455D01*
X153640813Y-141084464D01*
X153629620Y-141072268D01*
X153630865Y-141067088D01*
X153647269Y-141053386D01*
X153657607Y-141044237D01*
X153646583Y-141025229D01*
X153635788Y-141006410D01*
X153645195Y-140992538D01*
X153656775Y-140990117D01*
X153677648Y-141002384D01*
X153691881Y-141014202D01*
X153715668Y-141018320D01*
X153733527Y-141008972D01*
X153734947Y-140988673D01*
X153729164Y-140973032D01*
X153718566Y-140936962D01*
X153717393Y-140931836D01*
X153716441Y-140918289D01*
X153726460Y-140929493D01*
X153735982Y-140939307D01*
X153750474Y-140940825D01*
X153750601Y-140927279D01*
X153738895Y-140899525D01*
X153720058Y-140867867D01*
X153699870Y-140841862D01*
X153684111Y-140831070D01*
X153679499Y-140829990D01*
X153679036Y-140816951D01*
X153681242Y-140811482D01*
X153672810Y-140802832D01*
X153669500Y-140802686D01*
X153657709Y-140794556D01*
X153665194Y-140779854D01*
X153688396Y-140766804D01*
X153699595Y-140763001D01*
X153709874Y-140754933D01*
X153695455Y-140743973D01*
X153682966Y-140734059D01*
X153671977Y-140711868D01*
X153669556Y-140702160D01*
X153650798Y-140684774D01*
X153639699Y-140676644D01*
X154338215Y-140676644D01*
X154341526Y-140683476D01*
X154362923Y-140701352D01*
X154371423Y-140702125D01*
X154375277Y-140688998D01*
X154371966Y-140682165D01*
X154350569Y-140664290D01*
X154342069Y-140663516D01*
X154338215Y-140676644D01*
X153639699Y-140676644D01*
X153633544Y-140672136D01*
X153632055Y-140655525D01*
X153650798Y-140647523D01*
X153660589Y-140645592D01*
X153671977Y-140630581D01*
X153674468Y-140621232D01*
X153687816Y-140629477D01*
X153697577Y-140635854D01*
X153725155Y-140637066D01*
X153742319Y-140637333D01*
X153766245Y-140655608D01*
X153776752Y-140669289D01*
X153786577Y-140672852D01*
X153794088Y-140650842D01*
X153803487Y-140631214D01*
X153821872Y-140619285D01*
X153830142Y-140617659D01*
X153842519Y-140601637D01*
X153843958Y-140593535D01*
X153850115Y-140599718D01*
X153851851Y-140602244D01*
X153873907Y-140610156D01*
X153911978Y-140610752D01*
X153922857Y-140610102D01*
X153957603Y-140612094D01*
X153975809Y-140619730D01*
X153984434Y-140624158D01*
X154014288Y-140629186D01*
X154057171Y-140632253D01*
X154104853Y-140633247D01*
X154149102Y-140632057D01*
X154181687Y-140628572D01*
X154194378Y-140622682D01*
X154201311Y-140611474D01*
X154223968Y-140593479D01*
X154232658Y-140588381D01*
X154256094Y-140583267D01*
X154280444Y-140599331D01*
X154298629Y-140613337D01*
X154307330Y-140614414D01*
X154309266Y-140593526D01*
X154320293Y-140562131D01*
X154336795Y-140544292D01*
X154353818Y-140547175D01*
X154355576Y-140548900D01*
X154377687Y-140562377D01*
X154388333Y-140550790D01*
X154386282Y-140515348D01*
X154384462Y-140474830D01*
X154395064Y-140456917D01*
X154420281Y-140456917D01*
X154427341Y-140463977D01*
X154434400Y-140456917D01*
X154427341Y-140449858D01*
X154420281Y-140456917D01*
X154395064Y-140456917D01*
X154399377Y-140449630D01*
X154406524Y-140442009D01*
X154465786Y-140442009D01*
X154478380Y-140456917D01*
X154488458Y-140468848D01*
X154514964Y-140486929D01*
X154537988Y-140491208D01*
X154547352Y-140478096D01*
X154541696Y-140470203D01*
X154660304Y-140470203D01*
X154661297Y-140478096D01*
X154663277Y-140493839D01*
X154673406Y-140512765D01*
X154681944Y-140512639D01*
X154693554Y-140496636D01*
X154699526Y-140471823D01*
X154699388Y-140471036D01*
X154843850Y-140471036D01*
X154844637Y-140471823D01*
X154850909Y-140478096D01*
X154857969Y-140471036D01*
X154850909Y-140463977D01*
X154843850Y-140471036D01*
X154699388Y-140471036D01*
X154695679Y-140449984D01*
X154681568Y-140436508D01*
X154666647Y-140442481D01*
X154660304Y-140470203D01*
X154541696Y-140470203D01*
X154541251Y-140469582D01*
X154517385Y-140463977D01*
X154510535Y-140463861D01*
X154495901Y-140459026D01*
X154504995Y-140442798D01*
X154508905Y-140437889D01*
X154513001Y-140424711D01*
X154492605Y-140421620D01*
X154468815Y-140426135D01*
X154465786Y-140442009D01*
X154406524Y-140442009D01*
X154410603Y-140437661D01*
X154407178Y-140424380D01*
X154394199Y-140414560D01*
X154434400Y-140414560D01*
X154441460Y-140421620D01*
X154448519Y-140414560D01*
X154441460Y-140407501D01*
X154434400Y-140414560D01*
X154394199Y-140414560D01*
X154382001Y-140405332D01*
X154379795Y-140403902D01*
X154347801Y-140388595D01*
X154324444Y-140386099D01*
X154314548Y-140386751D01*
X154298256Y-140372047D01*
X154292888Y-140362614D01*
X154279499Y-140357833D01*
X154266419Y-140355578D01*
X154244642Y-140337843D01*
X154244622Y-140337826D01*
X154409624Y-140337826D01*
X154413222Y-140351025D01*
X154416123Y-140355205D01*
X154429007Y-140365144D01*
X154430939Y-140364225D01*
X154427341Y-140351025D01*
X154424440Y-140346846D01*
X154411555Y-140336906D01*
X154409624Y-140337826D01*
X154244622Y-140337826D01*
X154222999Y-140320025D01*
X154213827Y-140315728D01*
X154377924Y-140315728D01*
X154384984Y-140322787D01*
X154392043Y-140315728D01*
X154384984Y-140308668D01*
X154377924Y-140315728D01*
X154213827Y-140315728D01*
X154185300Y-140302364D01*
X154178975Y-140300350D01*
X154144193Y-140280965D01*
X154109161Y-140251678D01*
X154100328Y-140243167D01*
X154068630Y-140219388D01*
X154062136Y-140216895D01*
X154123783Y-140216895D01*
X154130843Y-140223955D01*
X154137902Y-140216895D01*
X154130843Y-140209836D01*
X154123783Y-140216895D01*
X154062136Y-140216895D01*
X154043747Y-140209836D01*
X154035265Y-140208110D01*
X154005986Y-140192089D01*
X153972677Y-140164709D01*
X153957302Y-140150600D01*
X153934918Y-140133976D01*
X153926118Y-140133656D01*
X153929578Y-140152707D01*
X153932924Y-140160419D01*
X153943458Y-140184699D01*
X153961980Y-140212147D01*
X153978621Y-140223844D01*
X153986484Y-140227071D01*
X153987538Y-140245554D01*
X153978950Y-140256908D01*
X153952592Y-140258692D01*
X153930129Y-140259098D01*
X153913321Y-140282979D01*
X153907627Y-140296819D01*
X153899309Y-140305931D01*
X153890724Y-140291020D01*
X153882297Y-140277786D01*
X153861072Y-140266311D01*
X153852737Y-140265024D01*
X153841404Y-140252737D01*
X153833751Y-140243513D01*
X153805362Y-140230357D01*
X153763971Y-140218105D01*
X153718078Y-140209164D01*
X153676179Y-140205940D01*
X153671716Y-140206092D01*
X153637373Y-140214542D01*
X153631098Y-140216086D01*
X153599797Y-140237261D01*
X153587263Y-140263498D01*
X153595138Y-140271515D01*
X153622323Y-140280980D01*
X153658981Y-140287905D01*
X153694613Y-140290436D01*
X153718720Y-140286718D01*
X153720079Y-140286083D01*
X153720695Y-140289663D01*
X153703488Y-140306534D01*
X153694383Y-140314078D01*
X153664927Y-140327422D01*
X153627774Y-140322258D01*
X153626242Y-140321822D01*
X153593585Y-140314181D01*
X153574812Y-140312728D01*
X153574463Y-140312815D01*
X153558152Y-140305579D01*
X153532800Y-140285282D01*
X153502510Y-140262317D01*
X153471784Y-140247441D01*
X153461990Y-140245307D01*
X153449156Y-140249690D01*
X153451974Y-140273780D01*
X153452548Y-140276131D01*
X153453697Y-140297641D01*
X153439744Y-140310965D01*
X153404331Y-140322622D01*
X153387166Y-140327367D01*
X153361677Y-140337528D01*
X153355954Y-140351338D01*
X153364532Y-140376145D01*
X153378371Y-140405600D01*
X153390727Y-140426326D01*
X153390867Y-140426562D01*
X153391818Y-140427915D01*
X153389198Y-140446198D01*
X153377923Y-140459561D01*
X153371132Y-140467610D01*
X153346698Y-140483868D01*
X153324971Y-140486690D01*
X153316137Y-140481722D01*
X153304884Y-140463587D01*
X153303781Y-140458307D01*
X153291325Y-140456935D01*
X153323282Y-140456935D01*
X153324726Y-140472599D01*
X153343375Y-140466366D01*
X153349948Y-140459561D01*
X153348460Y-140437712D01*
X153337753Y-140428136D01*
X153327695Y-140443635D01*
X153323282Y-140456935D01*
X153291325Y-140456935D01*
X153290825Y-140456880D01*
X153276184Y-140452428D01*
X153261199Y-140430573D01*
X153293262Y-140430573D01*
X153304884Y-140435739D01*
X153312358Y-140434720D01*
X153314296Y-140426326D01*
X153312227Y-140424637D01*
X153295471Y-140426326D01*
X153293262Y-140430573D01*
X153261199Y-140430573D01*
X153260072Y-140428930D01*
X153243669Y-140405498D01*
X153224715Y-140399453D01*
X153215613Y-140400295D01*
X153206051Y-140385879D01*
X153204377Y-140376526D01*
X153190582Y-140365144D01*
X153188230Y-140364891D01*
X153164644Y-140354916D01*
X153132646Y-140334905D01*
X153109677Y-140319848D01*
X153089724Y-140313930D01*
X153076596Y-140324316D01*
X153075221Y-140326265D01*
X153068124Y-140331757D01*
X153071948Y-140312198D01*
X153074373Y-140288642D01*
X153062583Y-140281566D01*
X153037861Y-140298079D01*
X153032967Y-140302546D01*
X153024348Y-140305444D01*
X153028552Y-140285148D01*
X153031129Y-140264425D01*
X153023241Y-140245588D01*
X153015829Y-140244330D01*
X153016556Y-140249839D01*
X153018006Y-140260835D01*
X153021246Y-140276402D01*
X153009273Y-140273919D01*
X153008057Y-140273186D01*
X152997259Y-140272289D01*
X153000936Y-140293320D01*
X153003650Y-140302827D01*
X153002888Y-140314539D01*
X152990161Y-140320379D01*
X152960053Y-140321933D01*
X152907146Y-140320788D01*
X152849838Y-140320519D01*
X152784410Y-140322937D01*
X152732031Y-140327648D01*
X152719674Y-140329287D01*
X152679455Y-140331948D01*
X152654419Y-140325827D01*
X152634540Y-140309007D01*
X152625443Y-140299465D01*
X152602453Y-140282364D01*
X152592802Y-140287841D01*
X152598838Y-140315470D01*
X152601887Y-140324110D01*
X152603344Y-140348931D01*
X152584370Y-140365384D01*
X152575188Y-140371225D01*
X152558559Y-140393213D01*
X152561793Y-140413016D01*
X152584817Y-140421620D01*
X152594519Y-140422227D01*
X152611603Y-140431153D01*
X152605888Y-140445380D01*
X152578567Y-140457976D01*
X152554011Y-140470603D01*
X152539740Y-140503732D01*
X152538169Y-140514785D01*
X152530597Y-140531917D01*
X152511209Y-140538118D01*
X152471866Y-140537427D01*
X152454683Y-140536955D01*
X152414666Y-140539392D01*
X152390203Y-140546014D01*
X152388578Y-140547160D01*
X152378547Y-140568522D01*
X152391049Y-140594847D01*
X152423198Y-140619686D01*
X152446527Y-140636730D01*
X152457747Y-140655438D01*
X152453559Y-140666177D01*
X152430796Y-140678371D01*
X152386365Y-140686296D01*
X152318142Y-140690271D01*
X152224002Y-140690617D01*
X152212344Y-140690477D01*
X152146565Y-140690285D01*
X152102372Y-140692073D01*
X152073969Y-140696708D01*
X152055558Y-140705060D01*
X152041346Y-140717998D01*
X152018502Y-140736169D01*
X151997154Y-140740588D01*
X151989537Y-140739071D01*
X151974791Y-140748030D01*
X151964734Y-140755036D01*
X151932914Y-140748116D01*
X151920044Y-140744268D01*
X151873525Y-140735763D01*
X151806344Y-140727646D01*
X151723713Y-140720407D01*
X151630846Y-140714535D01*
X151532955Y-140710522D01*
X151520401Y-140710114D01*
X151465738Y-140707505D01*
X151422393Y-140704146D01*
X151398825Y-140700661D01*
X151350354Y-140682458D01*
X151308087Y-140659270D01*
X151282941Y-140636401D01*
X151279980Y-140617398D01*
X151279679Y-140610436D01*
X151261820Y-140605166D01*
X151236168Y-140594999D01*
X151209592Y-140569869D01*
X151182554Y-140545259D01*
X151153043Y-140534572D01*
X151144572Y-140535553D01*
X151109958Y-140547900D01*
X151071056Y-140569869D01*
X151057023Y-140579001D01*
X151023334Y-140597718D01*
X151001716Y-140605166D01*
X150976767Y-140609035D01*
X150940961Y-140618389D01*
X150926335Y-140622472D01*
X150882410Y-140633383D01*
X150824041Y-140646891D01*
X150759826Y-140660974D01*
X150622051Y-140690336D01*
X150562161Y-140660074D01*
X150548015Y-140652397D01*
X150502445Y-140621976D01*
X150466974Y-140590721D01*
X150451104Y-140575840D01*
X150411491Y-140547372D01*
X150361922Y-140517974D01*
X150309088Y-140490963D01*
X150259684Y-140469653D01*
X150220399Y-140457361D01*
X150197927Y-140457404D01*
X150197752Y-140457507D01*
X150179271Y-140454302D01*
X150153291Y-140435913D01*
X150123707Y-140414016D01*
X150089670Y-140398389D01*
X150070655Y-140390742D01*
X150064239Y-140379822D01*
X150065167Y-140373787D01*
X150049482Y-140359772D01*
X150013843Y-140346582D01*
X149963945Y-140336009D01*
X149905482Y-140329846D01*
X149856568Y-140324816D01*
X149810386Y-140313744D01*
X149783897Y-140298848D01*
X149781370Y-140281781D01*
X149776374Y-140277388D01*
X149753271Y-140276745D01*
X149721048Y-140279979D01*
X149689708Y-140286018D01*
X149669253Y-140293791D01*
X149660024Y-140298874D01*
X149628692Y-140312702D01*
X149586741Y-140329091D01*
X149560173Y-140337828D01*
X149510659Y-140343893D01*
X149466630Y-140329701D01*
X149418274Y-140293158D01*
X149389061Y-140277361D01*
X149349059Y-140269333D01*
X149328571Y-140267331D01*
X149295202Y-140253676D01*
X149289992Y-140243493D01*
X149412850Y-140243493D01*
X149420505Y-140252193D01*
X149424646Y-140251665D01*
X149443350Y-140238074D01*
X149445612Y-140232654D01*
X149437957Y-140223955D01*
X149433815Y-140224482D01*
X149415112Y-140238074D01*
X149412850Y-140243493D01*
X149289992Y-140243493D01*
X149284369Y-140232505D01*
X149297217Y-140210022D01*
X149334888Y-140192432D01*
X149338098Y-140191565D01*
X149367666Y-140179579D01*
X149379814Y-140167075D01*
X149382201Y-140160770D01*
X149400993Y-140153360D01*
X149410702Y-140152046D01*
X149422171Y-140141627D01*
X149430882Y-140129100D01*
X149455738Y-140111929D01*
X149468978Y-140105565D01*
X149495098Y-140102495D01*
X149525712Y-140117820D01*
X149541828Y-140126531D01*
X149569236Y-140132828D01*
X149585416Y-140126310D01*
X149582833Y-140108242D01*
X149581277Y-140100400D01*
X149598727Y-140107371D01*
X149615910Y-140113738D01*
X149650080Y-140114570D01*
X149667066Y-140113851D01*
X149676312Y-140130535D01*
X149676316Y-140130990D01*
X149686803Y-140148091D01*
X149720019Y-140153360D01*
X149722317Y-140153399D01*
X149764827Y-140162763D01*
X149806193Y-140183599D01*
X149826166Y-140196826D01*
X149847621Y-140204401D01*
X149860308Y-140194991D01*
X149864340Y-140189453D01*
X149880414Y-140183380D01*
X149909886Y-140193426D01*
X149942742Y-140202683D01*
X149976196Y-140201702D01*
X149994341Y-140199451D01*
X150015351Y-140210134D01*
X150022838Y-140217615D01*
X150045356Y-140215596D01*
X150055405Y-140211527D01*
X150090140Y-140204444D01*
X150135178Y-140200087D01*
X150182330Y-140197691D01*
X150260832Y-140193371D01*
X150316844Y-140189537D01*
X150354224Y-140185739D01*
X150376831Y-140181529D01*
X150388523Y-140176459D01*
X150393159Y-140170078D01*
X150397725Y-140162794D01*
X150403332Y-140160419D01*
X152493337Y-140160419D01*
X152524234Y-140209594D01*
X152538277Y-140230354D01*
X152540313Y-140232654D01*
X152562142Y-140257323D01*
X152578540Y-140264589D01*
X152584036Y-140249839D01*
X152582975Y-140245372D01*
X152567054Y-140222474D01*
X152538296Y-140195717D01*
X152504798Y-140169417D01*
X152941134Y-140169417D01*
X152946263Y-140176993D01*
X152953423Y-140183651D01*
X152970722Y-140209836D01*
X152976675Y-140219679D01*
X152976658Y-140218789D01*
X153406214Y-140218789D01*
X153408217Y-140219679D01*
X153417835Y-140223955D01*
X153425310Y-140222936D01*
X153427248Y-140214542D01*
X153425179Y-140212852D01*
X153408423Y-140214542D01*
X153406214Y-140218789D01*
X152976658Y-140218789D01*
X152976369Y-140203946D01*
X152971162Y-140188302D01*
X152951910Y-140171104D01*
X152941134Y-140169417D01*
X152504798Y-140169417D01*
X152493337Y-140160419D01*
X152895434Y-140160419D01*
X152902494Y-140167479D01*
X152909553Y-140160419D01*
X152902494Y-140153360D01*
X152895434Y-140160419D01*
X152493337Y-140160419D01*
X150403332Y-140160419D01*
X150420001Y-140153360D01*
X150439227Y-140146678D01*
X150456326Y-140132181D01*
X152471866Y-140132181D01*
X152478925Y-140139241D01*
X152485984Y-140132181D01*
X152478925Y-140125122D01*
X152471866Y-140132181D01*
X150456326Y-140132181D01*
X150464711Y-140125073D01*
X150464892Y-140124855D01*
X150483428Y-140107443D01*
X150505060Y-140104207D01*
X150541314Y-140113389D01*
X150547560Y-140115317D01*
X150581637Y-140122733D01*
X150598630Y-140118062D01*
X153304884Y-140118062D01*
X153311943Y-140125122D01*
X153317109Y-140119956D01*
X153886258Y-140119956D01*
X153897880Y-140125122D01*
X153905354Y-140124103D01*
X153907293Y-140115709D01*
X153905223Y-140114020D01*
X153888467Y-140115709D01*
X153887243Y-140118062D01*
X153886258Y-140119956D01*
X153317109Y-140119956D01*
X153319003Y-140118062D01*
X153311943Y-140111003D01*
X153304884Y-140118062D01*
X150598630Y-140118062D01*
X150605648Y-140116133D01*
X150633860Y-140092260D01*
X150640263Y-140086374D01*
X150671054Y-140063707D01*
X150694481Y-140054527D01*
X150698887Y-140053505D01*
X152402210Y-140053505D01*
X152415107Y-140075364D01*
X152427253Y-140087125D01*
X152447545Y-140096884D01*
X152450055Y-140089825D01*
X153276646Y-140089825D01*
X153283705Y-140096884D01*
X153290765Y-140089825D01*
X153283705Y-140082765D01*
X153277646Y-140088824D01*
X153276646Y-140089825D01*
X152450055Y-140089825D01*
X152450411Y-140088824D01*
X152436490Y-140068560D01*
X152427024Y-140059084D01*
X152408096Y-140047469D01*
X152402210Y-140053505D01*
X150698887Y-140053505D01*
X150713165Y-140050194D01*
X150729367Y-140041327D01*
X153237751Y-140041327D01*
X153241349Y-140054527D01*
X153244249Y-140058707D01*
X153257134Y-140068646D01*
X153259065Y-140067727D01*
X153255468Y-140054527D01*
X153252567Y-140050348D01*
X153239682Y-140040408D01*
X153237751Y-140041327D01*
X150729367Y-140041327D01*
X150743125Y-140033798D01*
X150764567Y-140021181D01*
X150771366Y-140019230D01*
X153770809Y-140019230D01*
X153777869Y-140026289D01*
X153784928Y-140019230D01*
X153777869Y-140012170D01*
X153770809Y-140019230D01*
X150771366Y-140019230D01*
X150794406Y-140012619D01*
X150817642Y-140005111D01*
X150862305Y-140005111D01*
X150869364Y-140012170D01*
X150876424Y-140005111D01*
X150869364Y-139998051D01*
X152782483Y-139998051D01*
X152783057Y-140001921D01*
X152787533Y-140005111D01*
X152797435Y-140012170D01*
X152802542Y-140011062D01*
X152803661Y-139998051D01*
X152800763Y-139993826D01*
X152788709Y-139983932D01*
X152787300Y-139984299D01*
X152782483Y-139998051D01*
X150869364Y-139998051D01*
X150862305Y-140005111D01*
X150817642Y-140005111D01*
X150819014Y-140004668D01*
X150831199Y-139987887D01*
X150827053Y-139978766D01*
X150850683Y-139978766D01*
X150862305Y-139983932D01*
X150869779Y-139982913D01*
X150871717Y-139974520D01*
X150869648Y-139972830D01*
X150852892Y-139974520D01*
X150850683Y-139978766D01*
X150827053Y-139978766D01*
X150823870Y-139971765D01*
X150815200Y-139962754D01*
X153121337Y-139962754D01*
X153128397Y-139969813D01*
X153135456Y-139962754D01*
X153128397Y-139955694D01*
X153121337Y-139962754D01*
X150815200Y-139962754D01*
X150811051Y-139958442D01*
X150792964Y-139930308D01*
X150773221Y-139907110D01*
X150744963Y-139906524D01*
X150737721Y-139908482D01*
X150724388Y-139909999D01*
X150735234Y-139900360D01*
X150740833Y-139896240D01*
X150742498Y-139893150D01*
X152267773Y-139893150D01*
X152281260Y-139913338D01*
X152299876Y-139932353D01*
X152312183Y-139941576D01*
X152312162Y-139935212D01*
X152302438Y-139913338D01*
X152292855Y-139900138D01*
X152701230Y-139900138D01*
X152704828Y-139913338D01*
X152707729Y-139917517D01*
X152720614Y-139927457D01*
X152722545Y-139926537D01*
X152718947Y-139913338D01*
X152716046Y-139909158D01*
X152714768Y-139908172D01*
X154210994Y-139908172D01*
X154222616Y-139913338D01*
X154230090Y-139912319D01*
X154232029Y-139903925D01*
X154229959Y-139902235D01*
X154213203Y-139903925D01*
X154210994Y-139908172D01*
X152714768Y-139908172D01*
X152703162Y-139899219D01*
X152701230Y-139900138D01*
X152292855Y-139900138D01*
X152289979Y-139896178D01*
X152283281Y-139892159D01*
X153050743Y-139892159D01*
X153057802Y-139899219D01*
X153064862Y-139892159D01*
X153057802Y-139885100D01*
X153050743Y-139892159D01*
X152283281Y-139892159D01*
X152271515Y-139885100D01*
X152267773Y-139893150D01*
X150742498Y-139893150D01*
X150745511Y-139887559D01*
X150724645Y-139885316D01*
X150704850Y-139882085D01*
X150692877Y-139870981D01*
X150693489Y-139867012D01*
X150708005Y-139856862D01*
X150710319Y-139854387D01*
X150778819Y-139854387D01*
X150787528Y-139872446D01*
X150796556Y-139879129D01*
X150811525Y-139873187D01*
X150811862Y-139863921D01*
X152231843Y-139863921D01*
X152238903Y-139870981D01*
X152245962Y-139863921D01*
X152238903Y-139856862D01*
X152237287Y-139858477D01*
X152231843Y-139863921D01*
X150811862Y-139863921D01*
X150812061Y-139858477D01*
X150798207Y-139845758D01*
X150781123Y-139848624D01*
X150778819Y-139854387D01*
X150710319Y-139854387D01*
X150712650Y-139851894D01*
X150701476Y-139835205D01*
X150687981Y-139828154D01*
X150862305Y-139828154D01*
X150871099Y-139837277D01*
X150897602Y-139846198D01*
X150923546Y-139849412D01*
X150931150Y-139842849D01*
X150931065Y-139842743D01*
X152973088Y-139842743D01*
X152973169Y-139842849D01*
X152975974Y-139846558D01*
X152995933Y-139856862D01*
X153000681Y-139855774D01*
X153001326Y-139842743D01*
X152998441Y-139838927D01*
X152978481Y-139828624D01*
X152973734Y-139829712D01*
X152973088Y-139842743D01*
X150931065Y-139842743D01*
X150915125Y-139822951D01*
X150895693Y-139812224D01*
X150872834Y-139813401D01*
X150862305Y-139828154D01*
X150687981Y-139828154D01*
X150674435Y-139821077D01*
X150632867Y-139816711D01*
X150631476Y-139816799D01*
X150593870Y-139815648D01*
X150568183Y-139808914D01*
X150555324Y-139805716D01*
X150529891Y-139815018D01*
X150517740Y-139822514D01*
X150509331Y-139817999D01*
X150497623Y-139805793D01*
X150481986Y-139800386D01*
X151144684Y-139800386D01*
X151145258Y-139804256D01*
X151159636Y-139814505D01*
X152182427Y-139814505D01*
X152185325Y-139818730D01*
X152197379Y-139828624D01*
X152198788Y-139828257D01*
X152203605Y-139814505D01*
X152203031Y-139810635D01*
X152198556Y-139807445D01*
X153926118Y-139807445D01*
X153933177Y-139814505D01*
X153940237Y-139807445D01*
X153933177Y-139800386D01*
X153926118Y-139807445D01*
X152198556Y-139807445D01*
X152188653Y-139800386D01*
X152183546Y-139801495D01*
X152182427Y-139814505D01*
X151159636Y-139814505D01*
X151164743Y-139813396D01*
X151165862Y-139800386D01*
X151162964Y-139796161D01*
X151150910Y-139786267D01*
X151149501Y-139786634D01*
X151144684Y-139800386D01*
X150481986Y-139800386D01*
X150468679Y-139795785D01*
X150438214Y-139783210D01*
X150436929Y-139781101D01*
X152559077Y-139781101D01*
X152570698Y-139786267D01*
X152578173Y-139785248D01*
X152580111Y-139776854D01*
X152578041Y-139775165D01*
X152561286Y-139776854D01*
X152559077Y-139781101D01*
X150436929Y-139781101D01*
X150418993Y-139751664D01*
X150411297Y-139728578D01*
X150400345Y-139716514D01*
X150393255Y-139729334D01*
X150393699Y-139765089D01*
X150395614Y-139792807D01*
X150389588Y-139810398D01*
X150370519Y-139814505D01*
X150352678Y-139812103D01*
X150333143Y-139800869D01*
X150323846Y-139797565D01*
X150297491Y-139802632D01*
X150265429Y-139815272D01*
X150238353Y-139831007D01*
X150226952Y-139845358D01*
X150219429Y-139845801D01*
X150200108Y-139830018D01*
X150182066Y-139808220D01*
X150165762Y-139777942D01*
X150160918Y-139753780D01*
X150170358Y-139743910D01*
X150182011Y-139741200D01*
X150178442Y-139731862D01*
X150158870Y-139720226D01*
X150129088Y-139710924D01*
X150108089Y-139704714D01*
X150086770Y-139685875D01*
X150074005Y-139652137D01*
X150269309Y-139652137D01*
X150276368Y-139659196D01*
X150283427Y-139652137D01*
X150276368Y-139645077D01*
X150269309Y-139652137D01*
X150074005Y-139652137D01*
X150072408Y-139647919D01*
X150069555Y-139638513D01*
X150048361Y-139602878D01*
X150021112Y-139592705D01*
X150015650Y-139595661D01*
X149992930Y-139607959D01*
X149968934Y-139648607D01*
X149961363Y-139661852D01*
X149943287Y-139673315D01*
X149935187Y-139677389D01*
X149936867Y-139680375D01*
X149945309Y-139695382D01*
X149953576Y-139706490D01*
X149950657Y-139712681D01*
X149924995Y-139707753D01*
X149910969Y-139704760D01*
X149888959Y-139707635D01*
X149878214Y-139729237D01*
X149870677Y-139746039D01*
X149861033Y-139745810D01*
X149860979Y-139745724D01*
X149843547Y-139740369D01*
X149811243Y-139742644D01*
X149774836Y-139750292D01*
X149745095Y-139761057D01*
X149732788Y-139772682D01*
X149730840Y-139778801D01*
X149714117Y-139802539D01*
X149686216Y-139833805D01*
X149654391Y-139865243D01*
X149625896Y-139889499D01*
X149607983Y-139899219D01*
X149599026Y-139901657D01*
X149582586Y-139920397D01*
X149576802Y-139930229D01*
X149556979Y-139941576D01*
X149539082Y-139948621D01*
X149513944Y-139969813D01*
X149491247Y-139988164D01*
X149463173Y-139998051D01*
X149449284Y-140000068D01*
X149428770Y-140012916D01*
X149424629Y-140017642D01*
X149403229Y-140021772D01*
X149382916Y-140025676D01*
X149355659Y-140044147D01*
X149338667Y-140057972D01*
X149315006Y-140064951D01*
X149282451Y-140055136D01*
X149266589Y-140046288D01*
X149235763Y-140013442D01*
X149218182Y-139972392D01*
X149219553Y-139934118D01*
X149221838Y-139923699D01*
X149214902Y-139913338D01*
X149206885Y-139907351D01*
X149200031Y-139883520D01*
X149194173Y-139860824D01*
X149174755Y-139828255D01*
X149161268Y-139807298D01*
X149154444Y-139776888D01*
X149155941Y-139757839D01*
X149152023Y-139713609D01*
X149133837Y-139683496D01*
X149131179Y-139680375D01*
X149873978Y-139680375D01*
X149881037Y-139687434D01*
X149888097Y-139680375D01*
X149881037Y-139673315D01*
X149873978Y-139680375D01*
X149131179Y-139680375D01*
X149123422Y-139671271D01*
X149109952Y-139642493D01*
X149111696Y-139619826D01*
X149129203Y-139611741D01*
X149142392Y-139610593D01*
X149153911Y-139599580D01*
X149153982Y-139598720D01*
X149167920Y-139591752D01*
X149201133Y-139594318D01*
X149215649Y-139596382D01*
X149226064Y-139595661D01*
X149930454Y-139595661D01*
X149937513Y-139602721D01*
X149944573Y-139595661D01*
X149937513Y-139588602D01*
X149930454Y-139595661D01*
X149226064Y-139595661D01*
X149244352Y-139594395D01*
X149274590Y-139581084D01*
X149312246Y-139553315D01*
X149363199Y-139507955D01*
X149365250Y-139506079D01*
X149393530Y-139484526D01*
X149395816Y-139483543D01*
X151215279Y-139483543D01*
X151215646Y-139484952D01*
X151229397Y-139489769D01*
X151233267Y-139489194D01*
X151243516Y-139474817D01*
X151242408Y-139469710D01*
X151229397Y-139468591D01*
X151225172Y-139471488D01*
X151215279Y-139483543D01*
X149395816Y-139483543D01*
X149414177Y-139475650D01*
X149420633Y-139473981D01*
X149446340Y-139459118D01*
X149479180Y-139433867D01*
X149492484Y-139423367D01*
X149530105Y-139400782D01*
X149560532Y-139391510D01*
X149570382Y-139390813D01*
X149617482Y-139377120D01*
X149661750Y-139351263D01*
X149690510Y-139320195D01*
X149702840Y-139303174D01*
X149721194Y-139292104D01*
X149737178Y-139287233D01*
X149767538Y-139264081D01*
X149798182Y-139229538D01*
X149821898Y-139192202D01*
X149831471Y-139160670D01*
X149827611Y-139135154D01*
X149818017Y-139129417D01*
X149800485Y-139127156D01*
X149775660Y-139109072D01*
X149767292Y-139100379D01*
X149757218Y-139084625D01*
X149768086Y-139080319D01*
X149769218Y-139080306D01*
X149787336Y-139072686D01*
X149785313Y-139059012D01*
X149764556Y-139050967D01*
X149749186Y-139048414D01*
X149760774Y-139041638D01*
X149793269Y-139022641D01*
X149810340Y-138998885D01*
X149805299Y-138977755D01*
X149798427Y-138970249D01*
X149790632Y-138947746D01*
X149807551Y-138922490D01*
X149816032Y-138910888D01*
X149821324Y-138871308D01*
X149803179Y-138817083D01*
X149761499Y-138747991D01*
X149696190Y-138663810D01*
X149658574Y-138619090D01*
X149613434Y-138565754D01*
X149579583Y-138526578D01*
X149552884Y-138497036D01*
X149529201Y-138472598D01*
X149504400Y-138448739D01*
X149474345Y-138420930D01*
X149438336Y-138385853D01*
X149401415Y-138342157D01*
X149384981Y-138309935D01*
X149390462Y-138291392D01*
X149396796Y-138283258D01*
X149409543Y-138249308D01*
X149425000Y-138189207D01*
X149443435Y-138102004D01*
X149453117Y-138076812D01*
X149465560Y-138071452D01*
X149475236Y-138073789D01*
X149498546Y-138064817D01*
X149506469Y-138060075D01*
X149540813Y-138051474D01*
X149588273Y-138048068D01*
X149640610Y-138049424D01*
X149689588Y-138055110D01*
X149726967Y-138064692D01*
X149744509Y-138077739D01*
X149750347Y-138087912D01*
X149761064Y-138077812D01*
X149765861Y-138073159D01*
X149793339Y-138061649D01*
X149833480Y-138054036D01*
X149888717Y-138045038D01*
X149988957Y-138009101D01*
X150074056Y-137950187D01*
X150079404Y-137945309D01*
X150111279Y-137918322D01*
X150137554Y-137904868D01*
X150169461Y-137901366D01*
X150218235Y-137904237D01*
X150222263Y-137904567D01*
X150275434Y-137911715D01*
X150310355Y-137924386D01*
X150336374Y-137945873D01*
X150337224Y-137946812D01*
X150359225Y-137977955D01*
X150368590Y-138004536D01*
X150373100Y-138024591D01*
X150389769Y-138055864D01*
X150402345Y-138077239D01*
X150410498Y-138106264D01*
X150410518Y-138107051D01*
X150421261Y-138132114D01*
X150445795Y-138159948D01*
X150447675Y-138161603D01*
X150471340Y-138186762D01*
X150481093Y-138205413D01*
X150480998Y-138208365D01*
X150467581Y-138248900D01*
X150433529Y-138300362D01*
X150381797Y-138358912D01*
X150315342Y-138420711D01*
X150276595Y-138454746D01*
X150227949Y-138502935D01*
X150194496Y-138545969D01*
X150170871Y-138590138D01*
X150158928Y-138617100D01*
X150130262Y-138680301D01*
X150102971Y-138738884D01*
X150096815Y-138752509D01*
X150074625Y-138816731D01*
X150061717Y-138880873D01*
X150059305Y-138936592D01*
X150068598Y-138975544D01*
X150074748Y-138992850D01*
X150069687Y-139036048D01*
X150063782Y-139061456D01*
X150067892Y-139079148D01*
X150082908Y-139095868D01*
X150103171Y-139124846D01*
X150123252Y-139147216D01*
X150162177Y-139178644D01*
X150208738Y-139208628D01*
X150249769Y-139232744D01*
X150282676Y-139253820D01*
X150298094Y-139266001D01*
X150298683Y-139266762D01*
X150319982Y-139279232D01*
X150360362Y-139294086D01*
X150411663Y-139309133D01*
X150465726Y-139322182D01*
X150514393Y-139331041D01*
X150549502Y-139333518D01*
X150584828Y-139334671D01*
X150639288Y-139346600D01*
X150706583Y-139371904D01*
X150791710Y-139412204D01*
X150802871Y-139417393D01*
X150870055Y-139437435D01*
X150951035Y-139448503D01*
X151035785Y-139450272D01*
X151114280Y-139442419D01*
X151176496Y-139424622D01*
X151203613Y-139414196D01*
X151238185Y-139412216D01*
X151258261Y-139433242D01*
X151266443Y-139474817D01*
X151267341Y-139479383D01*
X151270950Y-139518772D01*
X151274904Y-139553304D01*
X151284450Y-139583265D01*
X151302356Y-139614098D01*
X151322234Y-139636191D01*
X151337813Y-139640821D01*
X151343979Y-139639291D01*
X151372631Y-139640464D01*
X151413066Y-139647221D01*
X151429618Y-139650721D01*
X151436846Y-139652137D01*
X151473679Y-139659353D01*
X151504717Y-139664489D01*
X151530558Y-139670014D01*
X151587192Y-139698130D01*
X151628793Y-139741453D01*
X151632467Y-139747227D01*
X151647450Y-139764730D01*
X151652590Y-139756228D01*
X151649694Y-139741702D01*
X151631943Y-139715801D01*
X151629338Y-139713531D01*
X151617194Y-139692751D01*
X151626961Y-139681443D01*
X151652895Y-139687396D01*
X151680811Y-139699599D01*
X151693149Y-139698981D01*
X151684364Y-139684946D01*
X151675728Y-139672039D01*
X151682356Y-139652137D01*
X151864750Y-139652137D01*
X151871810Y-139659196D01*
X151878869Y-139652137D01*
X151871810Y-139645077D01*
X151864750Y-139652137D01*
X151682356Y-139652137D01*
X151683130Y-139649816D01*
X151690372Y-139634961D01*
X151675735Y-139622556D01*
X151660325Y-139607225D01*
X151653182Y-139569442D01*
X151653183Y-139569336D01*
X151759056Y-139569336D01*
X151781344Y-139602903D01*
X151804909Y-139631809D01*
X151826874Y-139640353D01*
X151842579Y-139621396D01*
X151846244Y-139608586D01*
X151841916Y-139606730D01*
X151841700Y-139606933D01*
X151823721Y-139606856D01*
X151795382Y-139593137D01*
X151759056Y-139569336D01*
X151653183Y-139569336D01*
X151653264Y-139564820D01*
X151656766Y-139541689D01*
X151663772Y-139540579D01*
X151683967Y-139553184D01*
X151717250Y-139554972D01*
X151747367Y-139543340D01*
X151760744Y-139537989D01*
X151793253Y-139545762D01*
X151812157Y-139552870D01*
X151822394Y-139548846D01*
X151830900Y-139541017D01*
X151857136Y-139537760D01*
X151863549Y-139538825D01*
X151897733Y-139556109D01*
X151948120Y-139593610D01*
X151965330Y-139608586D01*
X152013179Y-139650226D01*
X152015313Y-139652137D01*
X152059583Y-139691788D01*
X152100103Y-139726256D01*
X152128637Y-139748457D01*
X152140881Y-139754865D01*
X152136571Y-139744387D01*
X152130399Y-139736851D01*
X152514222Y-139736851D01*
X152521282Y-139743910D01*
X152528341Y-139736851D01*
X152521282Y-139729791D01*
X152514222Y-139736851D01*
X152130399Y-139736851D01*
X152117374Y-139720949D01*
X152089338Y-139691363D01*
X152058971Y-139662154D01*
X152046506Y-139651536D01*
X152418785Y-139651536D01*
X152423905Y-139668715D01*
X152443680Y-139694549D01*
X152471145Y-139719734D01*
X152492281Y-139729724D01*
X152499859Y-139719202D01*
X152497831Y-139712743D01*
X152481908Y-139692144D01*
X152457575Y-139669729D01*
X152433812Y-139653205D01*
X152419596Y-139650283D01*
X152418785Y-139651536D01*
X152046506Y-139651536D01*
X152032780Y-139639845D01*
X152017273Y-139630958D01*
X152012692Y-139629329D01*
X152010470Y-139623615D01*
X152390168Y-139623615D01*
X152391858Y-139640371D01*
X152396105Y-139642580D01*
X152400922Y-139631743D01*
X152683650Y-139631743D01*
X152687370Y-139638508D01*
X152709052Y-139657875D01*
X152743655Y-139681439D01*
X152760631Y-139691953D01*
X152803185Y-139719202D01*
X152806100Y-139721069D01*
X152829536Y-139736851D01*
X152842488Y-139745574D01*
X152847290Y-139748882D01*
X152871419Y-139762337D01*
X152881163Y-139761982D01*
X152879720Y-139759172D01*
X152861692Y-139742464D01*
X152827389Y-139716260D01*
X152816414Y-139708613D01*
X153375479Y-139708613D01*
X153382538Y-139715672D01*
X153389598Y-139708613D01*
X153382538Y-139701553D01*
X153375479Y-139708613D01*
X152816414Y-139708613D01*
X152798867Y-139696387D01*
X154691039Y-139696387D01*
X154702660Y-139701553D01*
X154710135Y-139700534D01*
X154712073Y-139692141D01*
X154710004Y-139690451D01*
X154693248Y-139692141D01*
X154691039Y-139696387D01*
X152798867Y-139696387D01*
X152782331Y-139684866D01*
X152763921Y-139672762D01*
X152753276Y-139666256D01*
X153770809Y-139666256D01*
X153777869Y-139673315D01*
X153784928Y-139666256D01*
X154547352Y-139666256D01*
X154554411Y-139673315D01*
X154561471Y-139666256D01*
X154554411Y-139659196D01*
X154547352Y-139666256D01*
X153784928Y-139666256D01*
X153777869Y-139659196D01*
X153770809Y-139666256D01*
X152753276Y-139666256D01*
X152730173Y-139652137D01*
X154617947Y-139652137D01*
X154625006Y-139659196D01*
X154632066Y-139652137D01*
X154625006Y-139645077D01*
X154617947Y-139652137D01*
X152730173Y-139652137D01*
X152722863Y-139647670D01*
X152701168Y-139636547D01*
X153252232Y-139636547D01*
X153252451Y-139641367D01*
X153270763Y-139643963D01*
X153284641Y-139641702D01*
X153279293Y-139635433D01*
X153271129Y-139633177D01*
X153252232Y-139636547D01*
X152701168Y-139636547D01*
X152694337Y-139633045D01*
X152683650Y-139631743D01*
X152400922Y-139631743D01*
X152401271Y-139630958D01*
X152400252Y-139623484D01*
X152391858Y-139621546D01*
X152390168Y-139623615D01*
X152010470Y-139623615D01*
X152005940Y-139611968D01*
X151999768Y-139595377D01*
X152361930Y-139595377D01*
X152363620Y-139612133D01*
X152367867Y-139614342D01*
X152373033Y-139602721D01*
X152372014Y-139595246D01*
X152363620Y-139593308D01*
X152361930Y-139595377D01*
X151999768Y-139595377D01*
X151998939Y-139593151D01*
X151977702Y-139567423D01*
X151959351Y-139544726D01*
X151956935Y-139537864D01*
X152260081Y-139537864D01*
X152270393Y-139548237D01*
X152295379Y-139566125D01*
X152296657Y-139566955D01*
X152320727Y-139579009D01*
X152330676Y-139577074D01*
X152321299Y-139564558D01*
X152295379Y-139548814D01*
X152271073Y-139539159D01*
X152260081Y-139537864D01*
X151956935Y-139537864D01*
X151949464Y-139516652D01*
X151947455Y-139502764D01*
X151934660Y-139482286D01*
X151927933Y-139474050D01*
X151936885Y-139452616D01*
X151946460Y-139435530D01*
X151937571Y-139415752D01*
X151930101Y-139406919D01*
X151921226Y-139387161D01*
X151928416Y-139381660D01*
X151950442Y-139384389D01*
X151976014Y-139394362D01*
X151993400Y-139408164D01*
X151996049Y-139411742D01*
X152010900Y-139420766D01*
X152011239Y-139420739D01*
X152038018Y-139425837D01*
X152087124Y-139442579D01*
X152101660Y-139446713D01*
X152130898Y-139448695D01*
X152140100Y-139449285D01*
X152139305Y-139462768D01*
X152135321Y-139471931D01*
X152145697Y-139469476D01*
X152164483Y-139470197D01*
X152190236Y-139490633D01*
X152191543Y-139492124D01*
X152210078Y-139509147D01*
X152217724Y-139508236D01*
X152210578Y-139492425D01*
X152209422Y-139491118D01*
X152451691Y-139491118D01*
X152452879Y-139494142D01*
X152470757Y-139509593D01*
X152505360Y-139534321D01*
X152551682Y-139564642D01*
X152571854Y-139577074D01*
X152576267Y-139579794D01*
X152616694Y-139602721D01*
X152617064Y-139602931D01*
X152644056Y-139615389D01*
X152652358Y-139614737D01*
X152643890Y-139601957D01*
X152628116Y-139589521D01*
X153209513Y-139589521D01*
X153213111Y-139602721D01*
X153216011Y-139606900D01*
X153226170Y-139614737D01*
X153228896Y-139616840D01*
X153230827Y-139615920D01*
X153227818Y-139604877D01*
X154565515Y-139604877D01*
X154566436Y-139615920D01*
X154566695Y-139619029D01*
X154568005Y-139629036D01*
X154575371Y-139626477D01*
X154600298Y-139620994D01*
X154603520Y-139620333D01*
X154628482Y-139609300D01*
X154626471Y-139596104D01*
X154597808Y-139585345D01*
X154592554Y-139584424D01*
X154570105Y-139586237D01*
X154569522Y-139588602D01*
X154565515Y-139604877D01*
X153227818Y-139604877D01*
X153227230Y-139602721D01*
X153224329Y-139598541D01*
X153211444Y-139588602D01*
X153209513Y-139589521D01*
X152628116Y-139589521D01*
X152619274Y-139582551D01*
X152605800Y-139574483D01*
X153156635Y-139574483D01*
X153159533Y-139578708D01*
X153171587Y-139588602D01*
X153172996Y-139588235D01*
X153175340Y-139581542D01*
X154434400Y-139581542D01*
X154441460Y-139588602D01*
X154448519Y-139581542D01*
X154448235Y-139581258D01*
X154536249Y-139581258D01*
X154536278Y-139581542D01*
X154537939Y-139598014D01*
X154542186Y-139600223D01*
X154547352Y-139588602D01*
X154546333Y-139581127D01*
X154537939Y-139579189D01*
X154536249Y-139581258D01*
X154448235Y-139581258D01*
X154441460Y-139574483D01*
X154434400Y-139581542D01*
X153175340Y-139581542D01*
X153177813Y-139574483D01*
X153177239Y-139570613D01*
X153172764Y-139567423D01*
X154787374Y-139567423D01*
X154794434Y-139574483D01*
X154801493Y-139567423D01*
X154795316Y-139561246D01*
X154917092Y-139561246D01*
X154920086Y-139567423D01*
X154920403Y-139568078D01*
X154941800Y-139585954D01*
X154950300Y-139586728D01*
X154954154Y-139573600D01*
X154950843Y-139566768D01*
X154929446Y-139548892D01*
X154920946Y-139548119D01*
X154917092Y-139561246D01*
X154795316Y-139561246D01*
X154794434Y-139560364D01*
X154787374Y-139567423D01*
X153172764Y-139567423D01*
X153162861Y-139560364D01*
X153157754Y-139561472D01*
X153156635Y-139574483D01*
X152605800Y-139574483D01*
X152601749Y-139572058D01*
X152584817Y-139559311D01*
X152583496Y-139557934D01*
X152563080Y-139543401D01*
X152530627Y-139524810D01*
X152495202Y-139506803D01*
X152465868Y-139494025D01*
X152451691Y-139491118D01*
X152209422Y-139491118D01*
X152189486Y-139468591D01*
X152181919Y-139459865D01*
X152401271Y-139459865D01*
X152401798Y-139464006D01*
X152415390Y-139482709D01*
X152420810Y-139484971D01*
X152429509Y-139477317D01*
X152428982Y-139473175D01*
X152415390Y-139454472D01*
X152409970Y-139452210D01*
X152401271Y-139459865D01*
X152181919Y-139459865D01*
X152170911Y-139447173D01*
X152161248Y-139424489D01*
X152158290Y-139415795D01*
X152140070Y-139414068D01*
X152128601Y-139415760D01*
X152118892Y-139402653D01*
X152114733Y-139389072D01*
X152095529Y-139359742D01*
X152067804Y-139327984D01*
X152039486Y-139302529D01*
X152018502Y-139292104D01*
X152012220Y-139291424D01*
X152009193Y-139284144D01*
X152009402Y-139284019D01*
X152024960Y-139288187D01*
X152059968Y-139301940D01*
X152108821Y-139322755D01*
X152165916Y-139348104D01*
X152225648Y-139375462D01*
X152282413Y-139402303D01*
X152330606Y-139426102D01*
X152364625Y-139444333D01*
X152369481Y-139445893D01*
X152367299Y-139435437D01*
X152362012Y-139429713D01*
X152335619Y-139411658D01*
X152297648Y-139391970D01*
X152250332Y-139362476D01*
X152214019Y-139314353D01*
X152189665Y-139277360D01*
X152181841Y-139273722D01*
X152530276Y-139273722D01*
X152543637Y-139278133D01*
X152545125Y-139278333D01*
X152567353Y-139286489D01*
X152609876Y-139305180D01*
X152668538Y-139332481D01*
X152739185Y-139366464D01*
X152817662Y-139405203D01*
X152833521Y-139413120D01*
X152909606Y-139450880D01*
X152963449Y-139477317D01*
X152976088Y-139483523D01*
X153029062Y-139509154D01*
X153064623Y-139525882D01*
X153078863Y-139531812D01*
X153078295Y-139526337D01*
X153059974Y-139510418D01*
X153028752Y-139488285D01*
X153026772Y-139487032D01*
X153530787Y-139487032D01*
X153534189Y-139497115D01*
X153551966Y-139518007D01*
X153564428Y-139526461D01*
X153573144Y-139525787D01*
X153569164Y-139516107D01*
X153559795Y-139504505D01*
X154850528Y-139504505D01*
X154851569Y-139512794D01*
X154871255Y-139518007D01*
X154890612Y-139516687D01*
X154898829Y-139509997D01*
X154879599Y-139498956D01*
X154868896Y-139496813D01*
X154850528Y-139504505D01*
X153559795Y-139504505D01*
X153551966Y-139494811D01*
X153538718Y-139484528D01*
X153530787Y-139487032D01*
X153026772Y-139487032D01*
X152990705Y-139464214D01*
X152985917Y-139461531D01*
X153474311Y-139461531D01*
X153474886Y-139465401D01*
X153489264Y-139475650D01*
X153494370Y-139474541D01*
X153495490Y-139461531D01*
X153492592Y-139457306D01*
X153480538Y-139447412D01*
X153479128Y-139447779D01*
X153474311Y-139461531D01*
X152985917Y-139461531D01*
X152951910Y-139442478D01*
X152947799Y-139440353D01*
X154589709Y-139440353D01*
X154596768Y-139447412D01*
X154603828Y-139440353D01*
X154596768Y-139433293D01*
X154589709Y-139440353D01*
X152947799Y-139440353D01*
X152931121Y-139431734D01*
X152889379Y-139409989D01*
X152869271Y-139399361D01*
X153391162Y-139399361D01*
X153396077Y-139418235D01*
X153401883Y-139424490D01*
X153426737Y-139433293D01*
X153433510Y-139433061D01*
X153439915Y-139427713D01*
X153425231Y-139410434D01*
X153425064Y-139410267D01*
X153412078Y-139401733D01*
X154734286Y-139401733D01*
X154734463Y-139413699D01*
X154757960Y-139419174D01*
X154773704Y-139421960D01*
X154780595Y-139427713D01*
X154790672Y-139436127D01*
X154793554Y-139440353D01*
X154796507Y-139444684D01*
X154808467Y-139433431D01*
X154812980Y-139422214D01*
X154803905Y-139408212D01*
X154797997Y-139405228D01*
X154793918Y-139391770D01*
X154789258Y-139386189D01*
X154765768Y-139387562D01*
X154755775Y-139389970D01*
X154734286Y-139401733D01*
X153412078Y-139401733D01*
X153403383Y-139396020D01*
X153391162Y-139399361D01*
X152869271Y-139399361D01*
X152860137Y-139394534D01*
X152834472Y-139381100D01*
X152779596Y-139354645D01*
X153304884Y-139354645D01*
X153310933Y-139362237D01*
X153333122Y-139376817D01*
X153350983Y-139384774D01*
X153361360Y-139384870D01*
X153355310Y-139377279D01*
X153333122Y-139362698D01*
X153315260Y-139354741D01*
X153304884Y-139354645D01*
X152779596Y-139354645D01*
X152769967Y-139350003D01*
X152722457Y-139329295D01*
X153250905Y-139329295D01*
X153262527Y-139334460D01*
X153270002Y-139333442D01*
X153271940Y-139325048D01*
X153269870Y-139323358D01*
X153253114Y-139325048D01*
X153250905Y-139329295D01*
X152722457Y-139329295D01*
X152703916Y-139321214D01*
X152665754Y-139306223D01*
X153198992Y-139306223D01*
X153201885Y-139310494D01*
X153213111Y-139320341D01*
X153215153Y-139319677D01*
X153227230Y-139306223D01*
X153228360Y-139298745D01*
X153213111Y-139292104D01*
X153202344Y-139294261D01*
X153198992Y-139306223D01*
X152665754Y-139306223D01*
X152641691Y-139296771D01*
X152588666Y-139278714D01*
X152550214Y-139269081D01*
X152531709Y-139269911D01*
X152530276Y-139273722D01*
X152181841Y-139273722D01*
X152160644Y-139263866D01*
X152144274Y-139261212D01*
X152139057Y-139251385D01*
X152139529Y-139250368D01*
X152131263Y-139236690D01*
X152114067Y-139226835D01*
X152447714Y-139226835D01*
X152454609Y-139234195D01*
X152478865Y-139247151D01*
X152503409Y-139254903D01*
X152514222Y-139251091D01*
X152510659Y-139245298D01*
X152505421Y-139242321D01*
X153082547Y-139242321D01*
X153092011Y-139251091D01*
X153094419Y-139253323D01*
X153122627Y-139269452D01*
X153141585Y-139278829D01*
X153166310Y-139289667D01*
X153176087Y-139289433D01*
X153177813Y-139279366D01*
X153176474Y-139276050D01*
X153158508Y-139263006D01*
X153128930Y-139249626D01*
X153099723Y-139240733D01*
X153082871Y-139241150D01*
X153082547Y-139242321D01*
X152505421Y-139242321D01*
X152490300Y-139233729D01*
X152464446Y-139225797D01*
X152447714Y-139226835D01*
X152114067Y-139226835D01*
X152104773Y-139221509D01*
X152086253Y-139211413D01*
X152072300Y-139194218D01*
X152078744Y-139182501D01*
X152105454Y-139183421D01*
X152124211Y-139184626D01*
X152137339Y-139172310D01*
X152132514Y-139149470D01*
X152109286Y-139123196D01*
X152105342Y-139120052D01*
X152085090Y-139101863D01*
X152081557Y-139094438D01*
X152086067Y-139095575D01*
X152112272Y-139104483D01*
X152156622Y-139120524D01*
X152213584Y-139141638D01*
X152277624Y-139165764D01*
X152343207Y-139190840D01*
X152404800Y-139214808D01*
X152419136Y-139217863D01*
X152423087Y-139214449D01*
X153022505Y-139214449D01*
X153029564Y-139221509D01*
X153036624Y-139214449D01*
X153107218Y-139214449D01*
X153114278Y-139221509D01*
X153121337Y-139214449D01*
X153114278Y-139207390D01*
X153107218Y-139214449D01*
X153036624Y-139214449D01*
X153029564Y-139207390D01*
X153022505Y-139214449D01*
X152423087Y-139214449D01*
X152429509Y-139208900D01*
X152427458Y-139202055D01*
X152409339Y-139193271D01*
X152393468Y-139189116D01*
X152389202Y-139186211D01*
X152966029Y-139186211D01*
X152973088Y-139193271D01*
X152980148Y-139186211D01*
X152973088Y-139179152D01*
X152966029Y-139186211D01*
X152389202Y-139186211D01*
X152368463Y-139172092D01*
X152923672Y-139172092D01*
X152930732Y-139179152D01*
X152937791Y-139172092D01*
X152930732Y-139165033D01*
X152923672Y-139172092D01*
X152368463Y-139172092D01*
X152366982Y-139171084D01*
X152351073Y-139158773D01*
X152344795Y-139166495D01*
X152344603Y-139170483D01*
X152341431Y-139175126D01*
X152331711Y-139170597D01*
X152316567Y-139157974D01*
X152895434Y-139157974D01*
X152902494Y-139165033D01*
X152909553Y-139157974D01*
X152902494Y-139150914D01*
X152895434Y-139157974D01*
X152316567Y-139157974D01*
X152312063Y-139154220D01*
X152301009Y-139143855D01*
X152867196Y-139143855D01*
X152874256Y-139150914D01*
X152881315Y-139143855D01*
X152874256Y-139136795D01*
X152867196Y-139143855D01*
X152301009Y-139143855D01*
X152285951Y-139129736D01*
X152838958Y-139129736D01*
X152846018Y-139136795D01*
X152853077Y-139129736D01*
X152846018Y-139122676D01*
X152838958Y-139129736D01*
X152285951Y-139129736D01*
X152279110Y-139123322D01*
X152258539Y-139103391D01*
X152770861Y-139103391D01*
X152782483Y-139108557D01*
X152789957Y-139107538D01*
X152791895Y-139099145D01*
X152789826Y-139097455D01*
X152773070Y-139099145D01*
X152770861Y-139103391D01*
X152258539Y-139103391D01*
X152229471Y-139075229D01*
X152197948Y-139042200D01*
X152168951Y-139006579D01*
X152154208Y-138981545D01*
X152142408Y-138961900D01*
X152117842Y-138960641D01*
X152115601Y-138961335D01*
X152097984Y-138962212D01*
X152100183Y-138944843D01*
X152102305Y-138938729D01*
X152100192Y-138926159D01*
X152077554Y-138928835D01*
X152047455Y-138932382D01*
X152017981Y-138925926D01*
X152005940Y-138910052D01*
X152006940Y-138907289D01*
X152024105Y-138902492D01*
X152054304Y-138904634D01*
X152086735Y-138912278D01*
X152110598Y-138923986D01*
X152120617Y-138930325D01*
X152136630Y-138930804D01*
X152148410Y-138929267D01*
X152174158Y-138938483D01*
X152193766Y-138946353D01*
X152203605Y-138939626D01*
X152202370Y-138934237D01*
X152185957Y-138924562D01*
X152168387Y-138919262D01*
X152140070Y-138902009D01*
X152136396Y-138899120D01*
X152122808Y-138886719D01*
X152129959Y-138884367D01*
X152161248Y-138890160D01*
X152177340Y-138893807D01*
X152242760Y-138912035D01*
X152330537Y-138940239D01*
X152437972Y-138977527D01*
X152562365Y-139023003D01*
X152620742Y-139044350D01*
X152671532Y-139062018D01*
X152706676Y-139073203D01*
X152720807Y-139076106D01*
X152712667Y-139068849D01*
X152685171Y-139052735D01*
X152644427Y-139031549D01*
X152605605Y-139011446D01*
X152565964Y-138989042D01*
X152543980Y-138974427D01*
X153982594Y-138974427D01*
X153989653Y-138981487D01*
X153996713Y-138974427D01*
X153989653Y-138967368D01*
X153982594Y-138974427D01*
X152543980Y-138974427D01*
X152542460Y-138973417D01*
X152521474Y-138960066D01*
X152494531Y-138948083D01*
X153815664Y-138948083D01*
X153827285Y-138953249D01*
X153834760Y-138952230D01*
X153836698Y-138943836D01*
X153834628Y-138942146D01*
X153817873Y-138943836D01*
X153815664Y-138948083D01*
X152494531Y-138948083D01*
X152483119Y-138943008D01*
X152440585Y-138928639D01*
X152403725Y-138920190D01*
X152382389Y-138920895D01*
X152377004Y-138922967D01*
X152377553Y-138919845D01*
X153674474Y-138919845D01*
X153686096Y-138925011D01*
X153693570Y-138923992D01*
X153694964Y-138917951D01*
X154024951Y-138917951D01*
X154032010Y-138925011D01*
X154039070Y-138917951D01*
X154032010Y-138910892D01*
X154024951Y-138917951D01*
X153694964Y-138917951D01*
X153695508Y-138915598D01*
X153693439Y-138913908D01*
X153676683Y-138915598D01*
X153674474Y-138919845D01*
X152377553Y-138919845D01*
X152378744Y-138913073D01*
X152381088Y-138904019D01*
X152366457Y-138896773D01*
X152351954Y-138889713D01*
X153954356Y-138889713D01*
X153961415Y-138896773D01*
X154759136Y-138896773D01*
X154759298Y-138899968D01*
X154765362Y-138910892D01*
X154767627Y-138910242D01*
X154780315Y-138896773D01*
X154782521Y-138891304D01*
X154774088Y-138882654D01*
X154769990Y-138883196D01*
X154759136Y-138896773D01*
X153961415Y-138896773D01*
X153968475Y-138889713D01*
X153961415Y-138882654D01*
X153954356Y-138889713D01*
X152351954Y-138889713D01*
X152348274Y-138887922D01*
X152330778Y-138861745D01*
X152330614Y-138861475D01*
X152358914Y-138861475D01*
X152365973Y-138868535D01*
X152401271Y-138868535D01*
X152401681Y-138871910D01*
X152415390Y-138882654D01*
X152418764Y-138882244D01*
X152429509Y-138868535D01*
X152429098Y-138865160D01*
X152415390Y-138854416D01*
X152412015Y-138854826D01*
X152406804Y-138861475D01*
X152401271Y-138868535D01*
X152365973Y-138868535D01*
X152373033Y-138861475D01*
X152365973Y-138854416D01*
X152358914Y-138861475D01*
X152330614Y-138861475D01*
X152323180Y-138849250D01*
X153194430Y-138849250D01*
X153206051Y-138854416D01*
X153213526Y-138853397D01*
X153214920Y-138847356D01*
X153841404Y-138847356D01*
X153848464Y-138854416D01*
X153855523Y-138847356D01*
X153848464Y-138840297D01*
X153843757Y-138845003D01*
X153841404Y-138847356D01*
X153214920Y-138847356D01*
X153215464Y-138845003D01*
X153213394Y-138843314D01*
X153196639Y-138845003D01*
X153194430Y-138849250D01*
X152323180Y-138849250D01*
X152317510Y-138839928D01*
X152298265Y-138834083D01*
X152272757Y-138834331D01*
X152268876Y-138833238D01*
X153036624Y-138833238D01*
X153043683Y-138840297D01*
X153050743Y-138833238D01*
X153043683Y-138826178D01*
X153036624Y-138833238D01*
X152268876Y-138833238D01*
X152237808Y-138824490D01*
X152223327Y-138819716D01*
X152888375Y-138819716D01*
X152954783Y-138826526D01*
X152977403Y-138828177D01*
X153004136Y-138827153D01*
X153009590Y-138821735D01*
X153006681Y-138819762D01*
X152981242Y-138814584D01*
X152943181Y-138814924D01*
X152888375Y-138819716D01*
X152223327Y-138819716D01*
X152203932Y-138813322D01*
X152179962Y-138810169D01*
X152174542Y-138810287D01*
X152154420Y-138798315D01*
X152153631Y-138797247D01*
X152132663Y-138787730D01*
X152097713Y-138783821D01*
X152093993Y-138783783D01*
X152060277Y-138779767D01*
X152057403Y-138778402D01*
X152449331Y-138778402D01*
X152455249Y-138782660D01*
X152485984Y-138782219D01*
X152488831Y-138782101D01*
X152528432Y-138783074D01*
X152556579Y-138787991D01*
X152559627Y-138788936D01*
X152588232Y-138793885D01*
X152634740Y-138799163D01*
X152690709Y-138803775D01*
X152707770Y-138804910D01*
X152755528Y-138807357D01*
X152779676Y-138806552D01*
X152781083Y-138805000D01*
X152810720Y-138805000D01*
X152817780Y-138812059D01*
X152824839Y-138805000D01*
X152867196Y-138805000D01*
X152874256Y-138812059D01*
X152881315Y-138805000D01*
X152874256Y-138797940D01*
X152867196Y-138805000D01*
X152824839Y-138805000D01*
X152817780Y-138797940D01*
X152810720Y-138805000D01*
X152781083Y-138805000D01*
X152783773Y-138802035D01*
X152771376Y-138793347D01*
X152744653Y-138784504D01*
X154434400Y-138784504D01*
X154437197Y-138797789D01*
X154443982Y-138805000D01*
X154455341Y-138817074D01*
X154461806Y-138821735D01*
X154464616Y-138823761D01*
X154466180Y-138833238D01*
X154468279Y-138845961D01*
X154468023Y-138847356D01*
X154466890Y-138853559D01*
X154478611Y-138866511D01*
X154486661Y-138868535D01*
X154514404Y-138875511D01*
X154521469Y-138876655D01*
X154563204Y-138883689D01*
X154593258Y-138889175D01*
X154601757Y-138889713D01*
X154606021Y-138889983D01*
X154610988Y-138882817D01*
X154610334Y-138876066D01*
X154625087Y-138863398D01*
X154630507Y-138860763D01*
X154644652Y-138842085D01*
X154642094Y-138821661D01*
X154623277Y-138812059D01*
X154608613Y-138808307D01*
X154616436Y-138792701D01*
X154623547Y-138778330D01*
X154621695Y-138745534D01*
X154620121Y-138741591D01*
X154612235Y-138728838D01*
X154598041Y-138724446D01*
X154570518Y-138727941D01*
X154522644Y-138738848D01*
X154517755Y-138740029D01*
X154468375Y-138754348D01*
X154442126Y-138768378D01*
X154434400Y-138784504D01*
X152744653Y-138784504D01*
X152736777Y-138781898D01*
X152693722Y-138778840D01*
X152672311Y-138779094D01*
X152622971Y-138775089D01*
X152569940Y-138766772D01*
X152528404Y-138759785D01*
X152490110Y-138758911D01*
X152464048Y-138767803D01*
X152449331Y-138778402D01*
X152057403Y-138778402D01*
X152042131Y-138771149D01*
X152042423Y-138769249D01*
X152059340Y-138763567D01*
X152094670Y-138758426D01*
X152141006Y-138754270D01*
X152190944Y-138751544D01*
X152237079Y-138750691D01*
X152272006Y-138752156D01*
X152288319Y-138756382D01*
X152291910Y-138759701D01*
X152318705Y-138769622D01*
X152356431Y-138774266D01*
X152392389Y-138772816D01*
X152413884Y-138764456D01*
X152417531Y-138758971D01*
X152412554Y-138748872D01*
X152382991Y-138744059D01*
X152365469Y-138742538D01*
X152316590Y-138736811D01*
X152264061Y-138729277D01*
X152241870Y-138726157D01*
X152200917Y-138724679D01*
X152183992Y-138733055D01*
X152180091Y-138737420D01*
X152176482Y-138723816D01*
X152173140Y-138710772D01*
X152164846Y-138704696D01*
X153478135Y-138704696D01*
X153478354Y-138709516D01*
X153496666Y-138712112D01*
X153510545Y-138709851D01*
X153505197Y-138703582D01*
X153497032Y-138701326D01*
X153478135Y-138704696D01*
X152164846Y-138704696D01*
X152157215Y-138699107D01*
X152152144Y-138698758D01*
X152137751Y-138687558D01*
X152139202Y-138677645D01*
X154550368Y-138677645D01*
X154552058Y-138694401D01*
X154556305Y-138696610D01*
X154561471Y-138684989D01*
X154560452Y-138677514D01*
X154552058Y-138675576D01*
X154550368Y-138677645D01*
X152139202Y-138677645D01*
X152140942Y-138665763D01*
X152158943Y-138640405D01*
X152188982Y-138618517D01*
X152198835Y-138613388D01*
X152228917Y-138595740D01*
X152243122Y-138584086D01*
X152250490Y-138582046D01*
X152278605Y-138584957D01*
X152319680Y-138594039D01*
X152357315Y-138603376D01*
X152384596Y-138606082D01*
X152402698Y-138598470D01*
X152421353Y-138579108D01*
X152426827Y-138572944D01*
X152444248Y-138558036D01*
X152466499Y-138550369D01*
X152501351Y-138548273D01*
X152556579Y-138550080D01*
X152573513Y-138550926D01*
X152646475Y-138555433D01*
X152724353Y-138561364D01*
X152801630Y-138568175D01*
X152872791Y-138575319D01*
X152932321Y-138582254D01*
X152974705Y-138588433D01*
X152994426Y-138593314D01*
X152999662Y-138595570D01*
X153002608Y-138593215D01*
X153078981Y-138593215D01*
X153086040Y-138600275D01*
X153093100Y-138593215D01*
X153086040Y-138586156D01*
X153078981Y-138593215D01*
X153002608Y-138593215D01*
X153008386Y-138588598D01*
X153006534Y-138584245D01*
X152987488Y-138568440D01*
X152955997Y-138550492D01*
X152922274Y-138535779D01*
X152896527Y-138529680D01*
X152888382Y-138527653D01*
X152859999Y-138513967D01*
X152823214Y-138491631D01*
X152800702Y-138476408D01*
X152779991Y-138459068D01*
X152778100Y-138447022D01*
X152791749Y-138434294D01*
X152800554Y-138427338D01*
X152807789Y-138415021D01*
X152798548Y-138399112D01*
X152770295Y-138372281D01*
X152764578Y-138367312D01*
X152810720Y-138367312D01*
X152817780Y-138374371D01*
X152824839Y-138367312D01*
X152817780Y-138360253D01*
X152810720Y-138367312D01*
X152764578Y-138367312D01*
X152763624Y-138366483D01*
X152725763Y-138341578D01*
X152696953Y-138336319D01*
X152677533Y-138335414D01*
X152666783Y-138312840D01*
X152659967Y-138296717D01*
X152711888Y-138296717D01*
X152718947Y-138303777D01*
X152726007Y-138296717D01*
X152718947Y-138289658D01*
X152711888Y-138296717D01*
X152659967Y-138296717D01*
X152658544Y-138293351D01*
X152635865Y-138280439D01*
X152591877Y-138270492D01*
X152548769Y-138262895D01*
X152509305Y-138254578D01*
X152490825Y-138247335D01*
X152489279Y-138239309D01*
X152500617Y-138228644D01*
X152507189Y-138221847D01*
X152516411Y-138197362D01*
X152513983Y-138173390D01*
X152500020Y-138162587D01*
X152491162Y-138157154D01*
X152478925Y-138134349D01*
X152469867Y-138117870D01*
X152449736Y-138106111D01*
X152440875Y-138104676D01*
X152429509Y-138091992D01*
X152419883Y-138082511D01*
X152392576Y-138077873D01*
X152390353Y-138077844D01*
X152346637Y-138071363D01*
X152286711Y-138055364D01*
X152219178Y-138032450D01*
X152152643Y-138005227D01*
X152140174Y-138000016D01*
X152091172Y-137985055D01*
X152088161Y-137984630D01*
X152207429Y-137984630D01*
X152207648Y-137989449D01*
X152225960Y-137992045D01*
X152239839Y-137989784D01*
X152234491Y-137983515D01*
X152226326Y-137981259D01*
X152207429Y-137984630D01*
X152088161Y-137984630D01*
X152048551Y-137979041D01*
X152026468Y-137978285D01*
X152012373Y-137972747D01*
X152018919Y-137959235D01*
X152028026Y-137943427D01*
X152017285Y-137933406D01*
X152010777Y-137930257D01*
X152006728Y-137916596D01*
X152017532Y-137887176D01*
X152026424Y-137865345D01*
X152026739Y-137845934D01*
X152010306Y-137832190D01*
X151993708Y-137823824D01*
X151971819Y-137817041D01*
X151971490Y-137817029D01*
X151956310Y-137807345D01*
X151953662Y-137790139D01*
X151965936Y-137780326D01*
X152006818Y-137775808D01*
X152060803Y-137759091D01*
X152118823Y-137725930D01*
X152126165Y-137720505D01*
X152130289Y-137708080D01*
X152111763Y-137690609D01*
X152079374Y-137675735D01*
X152037708Y-137668873D01*
X152020967Y-137667821D01*
X151996192Y-137659534D01*
X151995188Y-137646550D01*
X152020059Y-137633126D01*
X152044285Y-137619113D01*
X152043117Y-137604888D01*
X152147130Y-137604888D01*
X152154189Y-137611948D01*
X152161248Y-137604888D01*
X152154189Y-137597829D01*
X152147130Y-137604888D01*
X152043117Y-137604888D01*
X152042798Y-137601016D01*
X152014196Y-137581686D01*
X151999108Y-137572448D01*
X151989679Y-137561061D01*
X152320381Y-137561061D01*
X152320600Y-137565881D01*
X152338912Y-137568476D01*
X152352790Y-137566215D01*
X152348394Y-137561061D01*
X152390976Y-137561061D01*
X152391194Y-137565881D01*
X152393552Y-137566215D01*
X152409507Y-137568476D01*
X152423385Y-137566215D01*
X152418037Y-137559946D01*
X152409872Y-137557690D01*
X152390976Y-137561061D01*
X152348394Y-137561061D01*
X152347442Y-137559946D01*
X152339278Y-137557690D01*
X152320381Y-137561061D01*
X151989679Y-137561061D01*
X151977171Y-137545958D01*
X151970157Y-137517291D01*
X151981763Y-137496188D01*
X151986906Y-137492541D01*
X151988094Y-137486557D01*
X151971078Y-137488864D01*
X151942405Y-137498996D01*
X151927178Y-137507782D01*
X151934957Y-137512123D01*
X151935855Y-137512177D01*
X151942644Y-137518639D01*
X151923713Y-137535553D01*
X151908919Y-137544102D01*
X151879539Y-137550709D01*
X151860470Y-137542285D01*
X151859469Y-137520632D01*
X151860531Y-137517028D01*
X151852717Y-137497571D01*
X151819280Y-137478557D01*
X151817802Y-137477936D01*
X151771158Y-137452656D01*
X151748737Y-137424267D01*
X151746880Y-137391562D01*
X151810493Y-137391562D01*
X151813863Y-137410459D01*
X151818683Y-137410240D01*
X151821279Y-137391928D01*
X151819018Y-137378049D01*
X151812749Y-137383397D01*
X151810493Y-137391562D01*
X151746880Y-137391562D01*
X151746674Y-137387947D01*
X151748457Y-137373953D01*
X151744440Y-137361642D01*
X151726077Y-137359332D01*
X151686618Y-137364375D01*
X151667765Y-137367398D01*
X151626065Y-137375453D01*
X151599429Y-137382520D01*
X151587044Y-137385093D01*
X151588154Y-137373992D01*
X151588904Y-137372653D01*
X151587637Y-137365608D01*
X151572702Y-137363360D01*
X151541344Y-137366278D01*
X151490806Y-137374731D01*
X151418334Y-137389088D01*
X151321171Y-137409717D01*
X151268215Y-137421165D01*
X151206056Y-137434584D01*
X151156496Y-137445261D01*
X151127035Y-137451579D01*
X151100370Y-137462634D01*
X151088208Y-137479420D01*
X151086615Y-137487731D01*
X151071469Y-137498996D01*
X151052213Y-137506416D01*
X151025160Y-137526776D01*
X151008109Y-137541064D01*
X150989776Y-137547418D01*
X150962940Y-137544442D01*
X150918358Y-137532644D01*
X150890196Y-137524989D01*
X150829715Y-137510099D01*
X150777591Y-137499016D01*
X150776346Y-137498786D01*
X150705780Y-137482175D01*
X150655398Y-137462845D01*
X150629226Y-137442332D01*
X150628173Y-137440069D01*
X150622951Y-137414273D01*
X150618283Y-137370004D01*
X150615073Y-137315368D01*
X150613873Y-137260526D01*
X150614372Y-137252358D01*
X150961137Y-137252358D01*
X150963209Y-137262643D01*
X150981424Y-137281764D01*
X150990183Y-137287938D01*
X150994033Y-137309559D01*
X150992109Y-137319337D01*
X151000597Y-137329569D01*
X151002838Y-137329990D01*
X151020736Y-137344478D01*
X151042465Y-137373200D01*
X151057736Y-137395436D01*
X151070522Y-137404803D01*
X151079049Y-137393483D01*
X151086423Y-137382247D01*
X151103117Y-137379473D01*
X151115885Y-137380385D01*
X151140583Y-137367499D01*
X151150447Y-137357807D01*
X151836513Y-137357807D01*
X151836923Y-137361182D01*
X151850631Y-137371926D01*
X151854006Y-137371515D01*
X151864750Y-137357807D01*
X151864340Y-137354432D01*
X151850631Y-137343688D01*
X151847257Y-137344098D01*
X151836513Y-137357807D01*
X151150447Y-137357807D01*
X151163090Y-137345386D01*
X151172922Y-137322587D01*
X151181803Y-137307377D01*
X151207472Y-137290121D01*
X151236370Y-137270563D01*
X151265572Y-137238439D01*
X151287249Y-137213277D01*
X151307165Y-137202498D01*
X151315783Y-137200494D01*
X151332888Y-137182488D01*
X151332543Y-137167136D01*
X151311479Y-137151755D01*
X151270600Y-137146022D01*
X151255284Y-137143434D01*
X151243516Y-137131353D01*
X151243478Y-137130653D01*
X151233919Y-137129693D01*
X151212616Y-137145472D01*
X151182718Y-137164075D01*
X151134962Y-137174260D01*
X151099640Y-137179866D01*
X151059467Y-137203002D01*
X151035223Y-137222020D01*
X151013580Y-137229567D01*
X151001319Y-137228385D01*
X150970683Y-137232884D01*
X150961137Y-137252358D01*
X150614372Y-137252358D01*
X150616247Y-137221706D01*
X150623555Y-137197484D01*
X150636939Y-137180833D01*
X150656208Y-137155463D01*
X150668670Y-137124844D01*
X151342349Y-137124844D01*
X151349409Y-137131903D01*
X151349592Y-137131720D01*
X151386806Y-137131720D01*
X151393052Y-137143358D01*
X151405446Y-137132613D01*
X151410023Y-137127420D01*
X151428038Y-137125447D01*
X151434441Y-137126766D01*
X151441182Y-137112880D01*
X151445838Y-137100751D01*
X151469495Y-137099594D01*
X151488480Y-137100844D01*
X151518293Y-137089997D01*
X151531221Y-137081835D01*
X151549985Y-137079614D01*
X151566728Y-137081749D01*
X151592347Y-137074261D01*
X151601636Y-137068368D01*
X151652966Y-137068368D01*
X151660026Y-137075428D01*
X151667085Y-137068368D01*
X151660026Y-137061309D01*
X151652966Y-137068368D01*
X151601636Y-137068368D01*
X151613222Y-137061018D01*
X151617842Y-137047471D01*
X151617272Y-137040337D01*
X151634584Y-137041445D01*
X151646011Y-137044769D01*
X151650318Y-137042735D01*
X151632619Y-137027164D01*
X151605783Y-137008661D01*
X151588706Y-137009562D01*
X151578280Y-137033071D01*
X151570908Y-137047543D01*
X151558914Y-137054249D01*
X151548780Y-137059916D01*
X151508470Y-137064494D01*
X151445242Y-137062318D01*
X151424033Y-137061923D01*
X151401814Y-137070416D01*
X151396568Y-137082487D01*
X151390601Y-137096220D01*
X151388988Y-137103287D01*
X151387333Y-137124844D01*
X151386806Y-137131720D01*
X151349592Y-137131720D01*
X151356468Y-137124844D01*
X151349409Y-137117785D01*
X151342349Y-137124844D01*
X150668670Y-137124844D01*
X150671880Y-137116960D01*
X150685052Y-137087463D01*
X150691020Y-137082487D01*
X150918780Y-137082487D01*
X150925840Y-137089547D01*
X150932899Y-137082487D01*
X150925840Y-137075428D01*
X150918780Y-137082487D01*
X150691020Y-137082487D01*
X150708544Y-137067877D01*
X150713446Y-137065695D01*
X150725296Y-137054249D01*
X151017613Y-137054249D01*
X151024673Y-137061309D01*
X151031732Y-137054249D01*
X151024673Y-137047190D01*
X151017613Y-137054249D01*
X150725296Y-137054249D01*
X150737002Y-137042944D01*
X150757170Y-137007231D01*
X150768068Y-136984666D01*
X150783605Y-136965803D01*
X151173211Y-136965803D01*
X151187604Y-136998452D01*
X151198999Y-137009072D01*
X151222338Y-137018952D01*
X151244304Y-137010688D01*
X151264523Y-136984649D01*
X151266528Y-136970882D01*
X151488245Y-136970882D01*
X151489169Y-136978942D01*
X151501095Y-136990361D01*
X151517922Y-136978074D01*
X151519420Y-136971622D01*
X151506989Y-136958242D01*
X151498107Y-136957217D01*
X151488245Y-136970882D01*
X151266528Y-136970882D01*
X151269197Y-136952565D01*
X151256758Y-136934014D01*
X151222338Y-136927179D01*
X151215639Y-136927437D01*
X151183681Y-136939823D01*
X151173211Y-136965803D01*
X150783605Y-136965803D01*
X150789007Y-136959245D01*
X150822953Y-136935158D01*
X150861131Y-136914953D01*
X151754296Y-136914953D01*
X151765918Y-136920119D01*
X151773392Y-136919100D01*
X151775330Y-136910707D01*
X151773261Y-136909017D01*
X151756505Y-136910707D01*
X151754296Y-136914953D01*
X150861131Y-136914953D01*
X150876614Y-136906759D01*
X150887452Y-136901302D01*
X150932085Y-136876190D01*
X150963426Y-136854244D01*
X150975256Y-136839694D01*
X150985737Y-136826848D01*
X151016780Y-136821286D01*
X151047943Y-136817340D01*
X151067029Y-136807167D01*
X151069909Y-136803394D01*
X151090770Y-136793049D01*
X151096941Y-136796953D01*
X151087711Y-136814825D01*
X151080961Y-136825057D01*
X151079838Y-136847438D01*
X151097496Y-136858273D01*
X151127193Y-136851329D01*
X151146048Y-136843600D01*
X151164006Y-136842962D01*
X151165715Y-136844128D01*
X151166092Y-136840341D01*
X151165512Y-136838854D01*
X151173322Y-136822027D01*
X151195698Y-136797391D01*
X151210032Y-136784947D01*
X151233310Y-136772951D01*
X151251944Y-136780065D01*
X151265835Y-136788903D01*
X151271754Y-136780658D01*
X151273878Y-136773636D01*
X151292132Y-136764811D01*
X151307646Y-136759951D01*
X151330959Y-136739502D01*
X151349006Y-136723792D01*
X151383436Y-136711971D01*
X151406936Y-136706703D01*
X151428555Y-136691802D01*
X151434931Y-136684458D01*
X151449154Y-136683363D01*
X151451464Y-136696249D01*
X151436264Y-136714578D01*
X151408986Y-136730055D01*
X151377822Y-136736573D01*
X151353850Y-136740193D01*
X151350349Y-136752213D01*
X151357364Y-136757417D01*
X151385873Y-136761219D01*
X151424634Y-136757402D01*
X151462832Y-136747465D01*
X151489650Y-136732907D01*
X151500331Y-136716242D01*
X151486559Y-136700068D01*
X151480143Y-136694651D01*
X151473444Y-136674305D01*
X151493888Y-136654948D01*
X151540611Y-136637580D01*
X151557398Y-136632538D01*
X151560902Y-136630681D01*
X151667085Y-136630681D01*
X151674145Y-136637740D01*
X151681204Y-136630681D01*
X151674145Y-136623621D01*
X151667085Y-136630681D01*
X151560902Y-136630681D01*
X151587575Y-136616547D01*
X151596490Y-136594839D01*
X151587558Y-136575454D01*
X151556815Y-136567175D01*
X151506401Y-136573707D01*
X151438645Y-136595048D01*
X151407824Y-136605925D01*
X151374217Y-136615297D01*
X151358431Y-136616171D01*
X151358017Y-136615583D01*
X151363487Y-136600567D01*
X151383063Y-136575954D01*
X151400189Y-136556316D01*
X151404805Y-136542250D01*
X151391257Y-136533607D01*
X151377949Y-136530577D01*
X151351664Y-136534902D01*
X151334861Y-136540482D01*
X151296704Y-136547830D01*
X151247955Y-136554209D01*
X151210005Y-136559818D01*
X151164935Y-136571618D01*
X151138449Y-136585482D01*
X151121893Y-136598884D01*
X151087103Y-136616912D01*
X151070621Y-136626398D01*
X151064769Y-136643999D01*
X151063322Y-136663196D01*
X151045362Y-136685159D01*
X151019722Y-136698325D01*
X150997045Y-136694722D01*
X150978471Y-136686866D01*
X150940757Y-136693912D01*
X150929738Y-136698073D01*
X150902813Y-136706696D01*
X150892323Y-136703892D01*
X150890543Y-136688885D01*
X150878637Y-136661665D01*
X150850648Y-136640604D01*
X150818670Y-136634948D01*
X150797094Y-136631941D01*
X150776132Y-136607770D01*
X150765409Y-136564679D01*
X150765870Y-136507253D01*
X150766552Y-136503610D01*
X151158803Y-136503610D01*
X151165862Y-136510669D01*
X151172922Y-136503610D01*
X151165862Y-136496550D01*
X151158803Y-136503610D01*
X150766552Y-136503610D01*
X150778461Y-136440075D01*
X150784202Y-136412643D01*
X150787067Y-136390658D01*
X151356468Y-136390658D01*
X151363528Y-136397718D01*
X151370587Y-136390658D01*
X151363528Y-136383599D01*
X151356468Y-136390658D01*
X150787067Y-136390658D01*
X150790581Y-136363708D01*
X150794992Y-136308086D01*
X150797196Y-136252724D01*
X150796955Y-136204574D01*
X150794030Y-136170585D01*
X150788180Y-136157706D01*
X150787389Y-136157578D01*
X150780336Y-136143061D01*
X150777254Y-136111809D01*
X150773814Y-136065563D01*
X150765740Y-136016506D01*
X150761621Y-135984694D01*
X150760097Y-135931043D01*
X150762703Y-135873744D01*
X150765249Y-135820614D01*
X150759855Y-135777814D01*
X150743797Y-135754989D01*
X150715613Y-135748246D01*
X150707445Y-135750155D01*
X150681498Y-135771566D01*
X150652066Y-135812647D01*
X150623114Y-135868257D01*
X150604144Y-135910614D01*
X150591501Y-135864224D01*
X150589790Y-135858417D01*
X150577468Y-135832387D01*
X150565273Y-135826230D01*
X150559262Y-135828028D01*
X150551239Y-135816144D01*
X150547091Y-135808298D01*
X150532033Y-135822370D01*
X150516737Y-135838733D01*
X150496551Y-135845231D01*
X150467423Y-135837027D01*
X150422144Y-135813542D01*
X150405256Y-135803270D01*
X150372203Y-135775583D01*
X150342122Y-135736161D01*
X150320741Y-135698546D01*
X150738251Y-135698546D01*
X150739940Y-135715302D01*
X150744187Y-135717511D01*
X150749353Y-135705889D01*
X150748334Y-135698414D01*
X150739940Y-135696476D01*
X150738251Y-135698546D01*
X150320741Y-135698546D01*
X150308813Y-135677562D01*
X150303364Y-135666923D01*
X150278900Y-135612857D01*
X150261712Y-135564446D01*
X150255234Y-135531082D01*
X150253533Y-135506583D01*
X150243417Y-135451748D01*
X153770809Y-135451748D01*
X153771220Y-135455123D01*
X153784928Y-135465867D01*
X153788303Y-135465456D01*
X153799047Y-135451748D01*
X153798637Y-135448373D01*
X153784928Y-135437629D01*
X153781554Y-135438039D01*
X153770809Y-135451748D01*
X150243417Y-135451748D01*
X150243318Y-135451212D01*
X150233983Y-135416450D01*
X150269309Y-135416450D01*
X150276368Y-135423510D01*
X150283427Y-135416450D01*
X150276368Y-135409391D01*
X150269309Y-135416450D01*
X150233983Y-135416450D01*
X150226320Y-135387917D01*
X150224191Y-135381584D01*
X153723315Y-135381584D01*
X153723725Y-135392275D01*
X153736666Y-135415641D01*
X153737390Y-135416450D01*
X153749944Y-135430480D01*
X153756474Y-135429738D01*
X153756203Y-135426365D01*
X153748082Y-135404224D01*
X153734492Y-135385481D01*
X153723315Y-135381584D01*
X150224191Y-135381584D01*
X150205376Y-135325645D01*
X150189159Y-135287192D01*
X153615501Y-135287192D01*
X153623661Y-135308301D01*
X153642338Y-135330027D01*
X153662804Y-135344330D01*
X153676330Y-135343175D01*
X153673821Y-135327620D01*
X153659155Y-135302143D01*
X153639853Y-135278570D01*
X153623827Y-135268201D01*
X153620479Y-135269813D01*
X153615501Y-135287192D01*
X150189159Y-135287192D01*
X150183319Y-135273345D01*
X150162986Y-135239963D01*
X153559025Y-135239963D01*
X153559600Y-135243833D01*
X153573977Y-135254082D01*
X153579084Y-135252974D01*
X153579595Y-135247023D01*
X153601382Y-135247023D01*
X153608441Y-135254082D01*
X153615501Y-135247023D01*
X153608441Y-135239963D01*
X153601382Y-135247023D01*
X153579595Y-135247023D01*
X153580203Y-135239963D01*
X153577306Y-135235738D01*
X153565251Y-135225845D01*
X153563842Y-135226212D01*
X153559025Y-135239963D01*
X150162986Y-135239963D01*
X150138851Y-135204486D01*
X150122191Y-135164173D01*
X150117016Y-135148190D01*
X153431954Y-135148190D01*
X153439014Y-135155250D01*
X153446073Y-135148190D01*
X153439989Y-135142106D01*
X153510212Y-135142106D01*
X153513909Y-135147522D01*
X153515245Y-135148190D01*
X153526134Y-135153638D01*
X153530787Y-135133238D01*
X153528716Y-135123162D01*
X153516438Y-135120095D01*
X153511982Y-135123973D01*
X153510212Y-135142106D01*
X153439989Y-135142106D01*
X153439014Y-135141131D01*
X153431954Y-135148190D01*
X150117016Y-135148190D01*
X150113600Y-135137643D01*
X150104863Y-135133927D01*
X150097504Y-135157361D01*
X150096951Y-135162309D01*
X150095375Y-135176428D01*
X150091922Y-135207370D01*
X150090275Y-135229988D01*
X150087686Y-135264588D01*
X150086390Y-135280519D01*
X150082211Y-135280368D01*
X150064818Y-135268396D01*
X150056718Y-135262542D01*
X150042603Y-135263199D01*
X150029972Y-135287576D01*
X150016202Y-135310874D01*
X149995889Y-135316393D01*
X149981418Y-135315582D01*
X149956610Y-135329205D01*
X149953468Y-135332407D01*
X149939173Y-135339374D01*
X149920909Y-135330407D01*
X149891626Y-135302622D01*
X149878518Y-135288203D01*
X149855040Y-135255970D01*
X149845740Y-135232716D01*
X149842085Y-135220526D01*
X149821032Y-135213008D01*
X149804407Y-135212930D01*
X149769809Y-135204632D01*
X149745344Y-135202160D01*
X149725520Y-135218785D01*
X149720392Y-135223086D01*
X149720060Y-135223514D01*
X149697417Y-135239963D01*
X149686974Y-135247550D01*
X149637349Y-135262413D01*
X149633820Y-135262970D01*
X149601114Y-135269771D01*
X149581520Y-135281867D01*
X149568194Y-135306575D01*
X149554294Y-135351212D01*
X149551482Y-135359975D01*
X149543189Y-135385825D01*
X149542220Y-135388213D01*
X149528508Y-135422041D01*
X149517108Y-135439713D01*
X149510226Y-135450191D01*
X149510189Y-135476978D01*
X149512217Y-135495405D01*
X149505371Y-135524309D01*
X149495759Y-135534462D01*
X149492982Y-135518813D01*
X149489883Y-135505699D01*
X149473322Y-135494105D01*
X149465060Y-135496700D01*
X149458676Y-135514988D01*
X149460773Y-135555277D01*
X149462570Y-135572543D01*
X149462384Y-135603670D01*
X149451236Y-135620884D01*
X149424459Y-135634347D01*
X149422679Y-135635074D01*
X149388425Y-135645581D01*
X149365187Y-135646891D01*
X149355902Y-135637466D01*
X149339377Y-135607351D01*
X149322092Y-135564775D01*
X149310347Y-135533597D01*
X149284725Y-135482574D01*
X149259356Y-135457363D01*
X149232906Y-135456339D01*
X149223762Y-135465051D01*
X149223482Y-135466490D01*
X149218003Y-135494746D01*
X149223452Y-135535860D01*
X149239628Y-135579579D01*
X149243450Y-135592585D01*
X149238399Y-135621540D01*
X149238318Y-135621671D01*
X149226893Y-135634265D01*
X149218625Y-135620780D01*
X149199516Y-135569197D01*
X149185915Y-135539272D01*
X149175151Y-135526480D01*
X149164413Y-135525901D01*
X149154805Y-135533543D01*
X149146852Y-135558817D01*
X149144256Y-135574786D01*
X149137269Y-135585437D01*
X149129789Y-135596841D01*
X149122255Y-135605860D01*
X149121669Y-135628235D01*
X149121599Y-135630924D01*
X149124540Y-135645229D01*
X149112735Y-135643084D01*
X149107501Y-135640684D01*
X149098625Y-135648148D01*
X149097647Y-135679595D01*
X149099110Y-135711940D01*
X149097876Y-135737959D01*
X149091083Y-135743949D01*
X149076934Y-135734689D01*
X149059870Y-135726600D01*
X149026322Y-135727232D01*
X149015248Y-135733208D01*
X149011696Y-135735125D01*
X149003312Y-135755798D01*
X149011332Y-135789611D01*
X149036543Y-135839216D01*
X149079732Y-135907268D01*
X149081817Y-135910385D01*
X149118197Y-135969666D01*
X149137562Y-136014147D01*
X149142283Y-136049214D01*
X149141112Y-136069903D01*
X149140473Y-136080041D01*
X149136698Y-136139974D01*
X149135463Y-136152365D01*
X149132055Y-136186581D01*
X149125849Y-136213546D01*
X149116748Y-136224693D01*
X149103417Y-136223843D01*
X149084526Y-136214819D01*
X149066518Y-136207934D01*
X149052893Y-136216068D01*
X149053965Y-136247615D01*
X149053498Y-136249707D01*
X149037261Y-136253551D01*
X149004831Y-136250244D01*
X148992538Y-136248134D01*
X148965732Y-136247074D01*
X148963044Y-136256106D01*
X148967478Y-136269109D01*
X148974082Y-136304710D01*
X148979453Y-136351255D01*
X148981914Y-136383628D01*
X148981957Y-136411775D01*
X148976620Y-136419967D01*
X148964752Y-136413037D01*
X148952734Y-136400326D01*
X148934598Y-136368000D01*
X148927298Y-136353229D01*
X148914857Y-136347703D01*
X148908411Y-136343437D01*
X148907524Y-136320100D01*
X148906200Y-136298072D01*
X148896104Y-136288726D01*
X148882131Y-136283007D01*
X148864367Y-136260142D01*
X148851438Y-136240914D01*
X148840417Y-136235874D01*
X148839864Y-136236287D01*
X148827222Y-136229379D01*
X148808364Y-136205690D01*
X148800168Y-136193871D01*
X148783896Y-136179193D01*
X148771961Y-136187128D01*
X148768042Y-136199385D01*
X148777037Y-136226583D01*
X148786677Y-136243201D01*
X148776229Y-136252941D01*
X148760668Y-136270091D01*
X148762841Y-136301901D01*
X148782899Y-136341440D01*
X148785823Y-136345984D01*
X148802066Y-136391643D01*
X148808943Y-136454455D01*
X148809068Y-136458336D01*
X148815981Y-136507918D01*
X148830759Y-136559522D01*
X148850289Y-136605676D01*
X148871458Y-136638909D01*
X148891154Y-136651750D01*
X148899435Y-136654329D01*
X148919392Y-136671014D01*
X148925252Y-136676570D01*
X148954585Y-136694877D01*
X148968656Y-136701275D01*
X148994519Y-136713035D01*
X148997352Y-136714135D01*
X149002995Y-136716905D01*
X149058940Y-136744370D01*
X149074836Y-136757751D01*
X149097936Y-136777198D01*
X149111554Y-136810305D01*
X149114215Y-136823766D01*
X149128497Y-136835405D01*
X149137516Y-136837665D01*
X149130162Y-136850684D01*
X149117341Y-136858215D01*
X149088511Y-136851368D01*
X149085330Y-136849627D01*
X149030831Y-136823797D01*
X148972828Y-136801958D01*
X148925186Y-136789370D01*
X148915633Y-136788057D01*
X148891821Y-136791661D01*
X148882829Y-136812790D01*
X148881026Y-136821297D01*
X148866782Y-136837955D01*
X148833374Y-136842368D01*
X148819807Y-136842780D01*
X148792500Y-136851329D01*
X148779847Y-136875379D01*
X148773492Y-136895361D01*
X148762047Y-136900132D01*
X148737318Y-136886065D01*
X148709133Y-136870954D01*
X148683611Y-136863643D01*
X148663865Y-136856182D01*
X148637783Y-136834537D01*
X148614455Y-136816940D01*
X148586072Y-136812064D01*
X148565959Y-136810462D01*
X148539233Y-136788225D01*
X148531941Y-136778399D01*
X148517225Y-136767102D01*
X148505117Y-136778022D01*
X148493375Y-136789796D01*
X148473708Y-136782719D01*
X148454906Y-136774960D01*
X148427576Y-136787156D01*
X148416118Y-136796931D01*
X148413861Y-136808455D01*
X148437374Y-136808839D01*
X148445887Y-136814244D01*
X148446071Y-136835332D01*
X148435192Y-136861946D01*
X148418178Y-136873683D01*
X148378933Y-136874980D01*
X148376476Y-136874638D01*
X148347109Y-136873958D01*
X148335012Y-136880208D01*
X148329732Y-136886984D01*
X148306774Y-136891881D01*
X148302950Y-136891964D01*
X148288732Y-136896588D01*
X148281322Y-136898998D01*
X148283538Y-136912327D01*
X148309096Y-136924817D01*
X148315772Y-136926698D01*
X148325677Y-136933134D01*
X148330951Y-136936561D01*
X148322181Y-136953864D01*
X148302010Y-136968480D01*
X148298628Y-136969535D01*
X148266913Y-136979430D01*
X148255162Y-136980884D01*
X148240344Y-136984674D01*
X148247550Y-136992081D01*
X148278536Y-137007323D01*
X148284269Y-137009902D01*
X148326947Y-137023125D01*
X148363250Y-137026005D01*
X148388377Y-137022759D01*
X148410667Y-137020128D01*
X148415423Y-137011691D01*
X148433844Y-137011691D01*
X148435545Y-137019417D01*
X148452952Y-137029951D01*
X148493144Y-137033071D01*
X148498176Y-137033028D01*
X148531478Y-137028902D01*
X148538806Y-137019941D01*
X148521208Y-137008855D01*
X148479731Y-136998355D01*
X148465545Y-136996228D01*
X148440728Y-136997697D01*
X148433844Y-137011691D01*
X148415423Y-137011691D01*
X148416470Y-137009834D01*
X148413765Y-136983005D01*
X148410884Y-136969715D01*
X148411438Y-136938582D01*
X148427845Y-136930643D01*
X148459544Y-136946346D01*
X148497313Y-136967071D01*
X148543266Y-136983021D01*
X148546920Y-136983828D01*
X148579814Y-136994747D01*
X148587175Y-137009456D01*
X148579987Y-137019941D01*
X148571504Y-137032318D01*
X148561337Y-137045109D01*
X148571212Y-137041549D01*
X148587527Y-137038760D01*
X148617099Y-137047034D01*
X148636253Y-137054695D01*
X148645629Y-137047686D01*
X148643235Y-137040957D01*
X148624450Y-137033071D01*
X148614683Y-137031298D01*
X148603272Y-137017441D01*
X148607229Y-137009902D01*
X148627980Y-137012476D01*
X148639716Y-137016658D01*
X148677131Y-137026865D01*
X148723283Y-137037093D01*
X148745008Y-137041765D01*
X148796337Y-137055190D01*
X148836235Y-137068629D01*
X148837216Y-137069036D01*
X148914651Y-137097631D01*
X148973534Y-137111874D01*
X149011361Y-137111157D01*
X149030867Y-137109525D01*
X149046718Y-137127805D01*
X149054287Y-137144557D01*
X149075303Y-137167201D01*
X149089387Y-137182377D01*
X149141000Y-137210378D01*
X149200845Y-137223422D01*
X149222268Y-137224043D01*
X149254270Y-137221244D01*
X149266863Y-137214204D01*
X149267932Y-137209774D01*
X149280982Y-137209558D01*
X149288896Y-137223165D01*
X149293996Y-137253359D01*
X149294058Y-137258974D01*
X149294377Y-137288428D01*
X149290039Y-137317466D01*
X149280982Y-137329569D01*
X149276550Y-137332875D01*
X149274668Y-137339209D01*
X149269602Y-137356267D01*
X149266863Y-137394712D01*
X149266427Y-137409523D01*
X149248213Y-137492383D01*
X149205591Y-137569843D01*
X149161645Y-137616294D01*
X149141819Y-137637251D01*
X149060154Y-137689955D01*
X149026425Y-137707663D01*
X148996150Y-137726622D01*
X148984484Y-137738410D01*
X148978044Y-137751528D01*
X148955082Y-137757780D01*
X148925105Y-137751878D01*
X148898382Y-137734310D01*
X148889683Y-137725782D01*
X148871238Y-137714181D01*
X148844611Y-137707468D01*
X148803122Y-137704342D01*
X148740091Y-137703505D01*
X148726798Y-137703547D01*
X148647307Y-137706642D01*
X148580254Y-137714062D01*
X148530884Y-137725023D01*
X148504439Y-137738740D01*
X148495284Y-137746078D01*
X148493814Y-137747257D01*
X148461501Y-137762470D01*
X148425294Y-137772452D01*
X148399305Y-137772653D01*
X148383391Y-137773996D01*
X148369708Y-137799922D01*
X148369644Y-137800174D01*
X148352522Y-137829135D01*
X148315727Y-137843624D01*
X148277695Y-137857391D01*
X148257244Y-137872371D01*
X148246462Y-137880269D01*
X148233201Y-137896697D01*
X148232403Y-137906843D01*
X148253966Y-137908875D01*
X148274797Y-137910966D01*
X148277573Y-137916653D01*
X148262078Y-137924215D01*
X148233431Y-137931948D01*
X148196754Y-137938146D01*
X148157165Y-137941105D01*
X148130905Y-137942228D01*
X148093124Y-137948643D01*
X148080871Y-137960821D01*
X148090104Y-137973015D01*
X148117699Y-137979041D01*
X148133431Y-137979710D01*
X148148427Y-137988476D01*
X148145667Y-138014338D01*
X148144087Y-138022852D01*
X148145632Y-138035517D01*
X148146751Y-138044690D01*
X148156963Y-138050605D01*
X148168207Y-138034709D01*
X148172311Y-138029219D01*
X148191132Y-138027567D01*
X148212124Y-138037742D01*
X148222060Y-138054809D01*
X148217977Y-138066129D01*
X148195953Y-138087272D01*
X148174630Y-138098633D01*
X148165132Y-138103694D01*
X148137346Y-138107972D01*
X148136704Y-138107853D01*
X148128360Y-138110749D01*
X148144406Y-138127082D01*
X148161002Y-138145162D01*
X148155704Y-138157355D01*
X148130513Y-138171326D01*
X148099814Y-138195667D01*
X148077361Y-138220566D01*
X148071098Y-138238412D01*
X148072531Y-138243049D01*
X148068678Y-138277740D01*
X148045883Y-138311411D01*
X148010486Y-138334057D01*
X148008568Y-138334738D01*
X147979794Y-138348690D01*
X147967919Y-138361634D01*
X147959162Y-138370008D01*
X147932621Y-138374371D01*
X147909410Y-138377766D01*
X147897324Y-138388047D01*
X147895620Y-138393270D01*
X147879675Y-138395261D01*
X147858559Y-138394237D01*
X147823873Y-138400806D01*
X147787115Y-138412417D01*
X147758263Y-138425855D01*
X147747294Y-138437907D01*
X147749215Y-138442995D01*
X147766724Y-138450065D01*
X147770980Y-138449758D01*
X147784193Y-138454945D01*
X147777666Y-138466786D01*
X147754714Y-138477667D01*
X147740647Y-138483728D01*
X147733918Y-138497948D01*
X147746841Y-138510126D01*
X147775034Y-138512707D01*
X147780576Y-138512118D01*
X147801381Y-138518444D01*
X147809880Y-138545891D01*
X147817617Y-138570727D01*
X147828214Y-138579096D01*
X147843068Y-138590827D01*
X147858851Y-138598690D01*
X147860418Y-138604981D01*
X147862550Y-138613548D01*
X147857207Y-138619528D01*
X147828576Y-138639271D01*
X147822276Y-138642632D01*
X147784124Y-138662986D01*
X147731531Y-138686781D01*
X147678480Y-138706767D01*
X147662256Y-138712583D01*
X147643124Y-138722186D01*
X147646713Y-138726401D01*
X147659727Y-138729071D01*
X147671421Y-138741733D01*
X147662273Y-138749314D01*
X147634018Y-138746734D01*
X147624640Y-138744547D01*
X147605751Y-138743876D01*
X147607961Y-138755706D01*
X147612088Y-138764288D01*
X147606537Y-138766306D01*
X147605825Y-138765968D01*
X147584717Y-138766090D01*
X147545102Y-138772542D01*
X147494934Y-138784060D01*
X147452250Y-138795508D01*
X147422606Y-138804930D01*
X147419631Y-138808871D01*
X147443528Y-138807314D01*
X147494499Y-138800244D01*
X147572749Y-138787644D01*
X147678480Y-138769498D01*
X147704771Y-138764909D01*
X147801025Y-138748452D01*
X147872208Y-138737095D01*
X147920482Y-138730679D01*
X147948007Y-138729048D01*
X147956947Y-138732042D01*
X147949463Y-138739504D01*
X147927716Y-138751275D01*
X147917500Y-138756609D01*
X147882876Y-138782240D01*
X147870707Y-138806671D01*
X147883205Y-138826178D01*
X147887326Y-138830884D01*
X147891426Y-138835568D01*
X147892422Y-138860945D01*
X147892077Y-138861475D01*
X147885022Y-138872329D01*
X147868576Y-138875279D01*
X147863319Y-138874151D01*
X147838519Y-138882100D01*
X147805883Y-138902622D01*
X147795962Y-138909668D01*
X147755988Y-138930676D01*
X147721779Y-138939130D01*
X147697667Y-138941946D01*
X147685540Y-138950169D01*
X147678606Y-138957770D01*
X147653772Y-138964581D01*
X147652415Y-138964731D01*
X147615705Y-138970932D01*
X147572588Y-138980710D01*
X147550772Y-138986428D01*
X147537368Y-138991090D01*
X147548781Y-138992072D01*
X147586707Y-138990556D01*
X147608757Y-138990489D01*
X147653964Y-138998877D01*
X147679043Y-139017898D01*
X147680295Y-139045385D01*
X147680692Y-139060218D01*
X147703243Y-139066200D01*
X147719889Y-139066512D01*
X147725403Y-139070825D01*
X147706330Y-139084849D01*
X147698701Y-139089325D01*
X147664749Y-139105765D01*
X147615392Y-139127212D01*
X147558469Y-139150204D01*
X147534192Y-139159869D01*
X147480680Y-139182741D01*
X147438723Y-139202814D01*
X147415792Y-139216609D01*
X147398815Y-139226442D01*
X147371726Y-139228097D01*
X147352556Y-139230024D01*
X147328433Y-139242570D01*
X147310033Y-139258865D01*
X147307639Y-139271883D01*
X147315238Y-139271679D01*
X147345311Y-139266164D01*
X147392564Y-139255618D01*
X147451001Y-139241317D01*
X147469758Y-139236567D01*
X147526581Y-139222712D01*
X147563242Y-139215627D01*
X147585411Y-139214958D01*
X147598753Y-139220350D01*
X147608937Y-139231451D01*
X147624656Y-139257589D01*
X147624320Y-139277985D01*
X147624204Y-139285088D01*
X147617252Y-139294603D01*
X147600826Y-139317089D01*
X147581703Y-139341520D01*
X147581408Y-139341897D01*
X147575313Y-139355639D01*
X147572588Y-139361783D01*
X147572549Y-139362452D01*
X147564923Y-139373442D01*
X147560600Y-139379672D01*
X147554305Y-139384562D01*
X147533761Y-139400521D01*
X147506485Y-139418185D01*
X147476154Y-139440353D01*
X147476090Y-139440400D01*
X147459485Y-139454472D01*
X147442892Y-139468534D01*
X147398243Y-139509543D01*
X147396596Y-139510947D01*
X147376373Y-139528195D01*
X147346696Y-139547404D01*
X147328779Y-139550964D01*
X147320911Y-139549057D01*
X147322388Y-139564388D01*
X147324787Y-139578936D01*
X147310668Y-139579313D01*
X147300420Y-139577496D01*
X147290209Y-139587091D01*
X147290404Y-139590021D01*
X147303434Y-139601745D01*
X147334603Y-139596030D01*
X147380716Y-139573359D01*
X147418324Y-139553675D01*
X147448547Y-139545342D01*
X147457602Y-139554682D01*
X147444596Y-139580192D01*
X147408637Y-139620369D01*
X147400641Y-139628801D01*
X147372673Y-139658298D01*
X147367808Y-139665729D01*
X147358245Y-139680336D01*
X147364790Y-139687434D01*
X147377387Y-139685711D01*
X147389042Y-139675669D01*
X147390255Y-139671354D01*
X147406690Y-139663345D01*
X147414767Y-139662756D01*
X147445518Y-139657462D01*
X147446078Y-139657329D01*
X147460526Y-139663664D01*
X147461738Y-139688449D01*
X147453645Y-139715672D01*
X147450618Y-139725856D01*
X147445118Y-139736636D01*
X147432138Y-139762076D01*
X147428068Y-139770055D01*
X147413983Y-139795063D01*
X147408338Y-139816619D01*
X147418096Y-139829128D01*
X147428218Y-139833414D01*
X147451903Y-139831630D01*
X147457728Y-139828264D01*
X147486420Y-139818576D01*
X147507429Y-139820668D01*
X147511594Y-139834152D01*
X147508444Y-139849802D01*
X147508030Y-139851862D01*
X147519143Y-139863637D01*
X147547416Y-139855221D01*
X147549542Y-139854097D01*
X147575195Y-139844670D01*
X147580890Y-139852231D01*
X147567167Y-139874512D01*
X147534567Y-139909244D01*
X147493290Y-139951205D01*
X147453866Y-139996725D01*
X147427127Y-140034157D01*
X147417280Y-140058160D01*
X147421635Y-140062934D01*
X147438781Y-140054259D01*
X147443427Y-140050480D01*
X147454977Y-140044658D01*
X147450764Y-140061219D01*
X147448660Y-140067174D01*
X147449574Y-140075706D01*
X147450033Y-140080003D01*
X147471531Y-140076412D01*
X147479120Y-140074166D01*
X147495189Y-140074439D01*
X147492653Y-140092431D01*
X147486520Y-140107165D01*
X147471083Y-140134207D01*
X147461282Y-140155474D01*
X147452927Y-140190683D01*
X147444793Y-140230568D01*
X147422333Y-140301910D01*
X147392914Y-140369405D01*
X147380710Y-140403017D01*
X147380010Y-140428631D01*
X147380548Y-140429915D01*
X147402635Y-140448711D01*
X147441182Y-140458024D01*
X147486228Y-140456816D01*
X147527815Y-140444048D01*
X147551095Y-140432229D01*
X147574802Y-140423673D01*
X147588330Y-140429363D01*
X147600934Y-140450059D01*
X147602221Y-140452495D01*
X147608997Y-140472108D01*
X147597901Y-140474768D01*
X147588188Y-140476815D01*
X147581609Y-140495744D01*
X147580960Y-140508879D01*
X147572591Y-140520453D01*
X147571115Y-140520851D01*
X147561290Y-140536937D01*
X147552455Y-140569264D01*
X147550086Y-140580538D01*
X147534325Y-140633006D01*
X147512331Y-140686869D01*
X147488407Y-140732517D01*
X147466860Y-140760338D01*
X147455221Y-140772170D01*
X147445518Y-140791384D01*
X147444683Y-140795358D01*
X147432435Y-140818877D01*
X147410220Y-140850993D01*
X147402815Y-140861066D01*
X147382910Y-140892807D01*
X147374923Y-140913586D01*
X147373663Y-140919502D01*
X147358113Y-140926373D01*
X147347383Y-140929291D01*
X147335446Y-140949903D01*
X147332438Y-140958194D01*
X147312870Y-140988150D01*
X147282951Y-141020948D01*
X147246581Y-141066588D01*
X147213243Y-141144288D01*
X147211275Y-141150968D01*
X147195050Y-141196245D01*
X147177933Y-141221113D01*
X147155478Y-141232349D01*
X147130142Y-141247375D01*
X147120674Y-141275683D01*
X147127552Y-141289936D01*
X147135181Y-141305747D01*
X147138314Y-141325327D01*
X147117532Y-141357120D01*
X147085484Y-141394094D01*
X144932344Y-141395828D01*
X144932480Y-141289936D01*
X147092544Y-141289936D01*
X147099603Y-141296995D01*
X147106663Y-141289936D01*
X147099603Y-141282876D01*
X147092544Y-141289936D01*
X144932480Y-141289936D01*
X144933458Y-140531042D01*
X144933483Y-140513280D01*
X144933816Y-140361439D01*
X144934345Y-140219032D01*
X144935049Y-140088411D01*
X144935142Y-140075706D01*
X147374923Y-140075706D01*
X147381982Y-140082765D01*
X147389042Y-140075706D01*
X147381982Y-140068646D01*
X147374923Y-140075706D01*
X144935142Y-140075706D01*
X144935905Y-139971925D01*
X144936889Y-139871925D01*
X144937186Y-139849802D01*
X147134901Y-139849802D01*
X147141960Y-139856862D01*
X147149019Y-139849802D01*
X147141960Y-139842743D01*
X147134901Y-139849802D01*
X144937186Y-139849802D01*
X144937979Y-139790761D01*
X144938188Y-139780041D01*
X147007830Y-139780041D01*
X147007967Y-139782015D01*
X147016140Y-139785124D01*
X147030357Y-139769967D01*
X147033792Y-139762076D01*
X147024130Y-139763740D01*
X147017858Y-139768099D01*
X147007830Y-139780041D01*
X144938188Y-139780041D01*
X144938895Y-139743910D01*
X147247852Y-139743910D01*
X147248232Y-139747260D01*
X147261138Y-139758029D01*
X147265099Y-139757491D01*
X147283150Y-139743910D01*
X147284478Y-139736636D01*
X147269864Y-139729791D01*
X147259344Y-139731519D01*
X147247852Y-139743910D01*
X144938895Y-139743910D01*
X144939152Y-139730784D01*
X144939902Y-139708613D01*
X145751243Y-139708613D01*
X145758302Y-139715672D01*
X145765362Y-139708613D01*
X145765078Y-139708329D01*
X147109679Y-139708329D01*
X147109708Y-139708613D01*
X147111369Y-139725085D01*
X147115616Y-139727294D01*
X147120782Y-139715672D01*
X147119763Y-139708198D01*
X147111369Y-139706260D01*
X147109679Y-139708329D01*
X145765078Y-139708329D01*
X145758302Y-139701553D01*
X145751243Y-139708613D01*
X144939902Y-139708613D01*
X144940385Y-139694344D01*
X144941657Y-139683792D01*
X144950919Y-139693554D01*
X144974915Y-139687319D01*
X144992558Y-139681394D01*
X145035860Y-139686531D01*
X145061000Y-139693289D01*
X145078601Y-139691779D01*
X145087544Y-139687528D01*
X145118873Y-139682604D01*
X145161729Y-139680762D01*
X145206205Y-139681933D01*
X145242395Y-139686049D01*
X145260393Y-139693041D01*
X145267068Y-139700981D01*
X145270982Y-139692798D01*
X145279039Y-139687699D01*
X145308904Y-139683304D01*
X145354007Y-139681259D01*
X145407102Y-139681500D01*
X145460946Y-139683959D01*
X145508293Y-139688570D01*
X145541899Y-139695268D01*
X145560444Y-139698623D01*
X145561572Y-139688947D01*
X145558764Y-139682221D01*
X145565687Y-139673315D01*
X145571584Y-139674664D01*
X145587698Y-139690964D01*
X145594898Y-139701347D01*
X145604170Y-139690964D01*
X145609406Y-139683712D01*
X145633242Y-139673315D01*
X145642745Y-139675456D01*
X145644078Y-139689493D01*
X145643503Y-139690463D01*
X145645613Y-139699736D01*
X145671195Y-139696356D01*
X145694816Y-139692611D01*
X145742124Y-139687934D01*
X145803974Y-139683436D01*
X145873051Y-139679723D01*
X145874501Y-139679647D01*
X147143618Y-139679647D01*
X147144351Y-139691608D01*
X147150681Y-139693808D01*
X147171124Y-139690198D01*
X147187687Y-139678519D01*
X147188497Y-139665729D01*
X147180567Y-139663347D01*
X147205517Y-139663347D01*
X147215520Y-139664863D01*
X147240250Y-139656943D01*
X147264900Y-139642739D01*
X147276090Y-139628801D01*
X147274166Y-139621127D01*
X147257383Y-139619005D01*
X147225865Y-139636864D01*
X147209802Y-139651395D01*
X147205517Y-139663347D01*
X147180567Y-139663347D01*
X147179228Y-139662945D01*
X147155325Y-139670067D01*
X147143618Y-139679647D01*
X145874501Y-139679647D01*
X145935064Y-139676473D01*
X145991405Y-139672497D01*
X146031686Y-139668493D01*
X146049825Y-139664968D01*
X146060063Y-139648434D01*
X146059442Y-139618746D01*
X146045703Y-139592211D01*
X146043263Y-139589525D01*
X146037088Y-139568104D01*
X146047416Y-139532911D01*
X146048725Y-139529823D01*
X146059041Y-139510947D01*
X146626618Y-139510947D01*
X146633678Y-139518007D01*
X146640737Y-139510947D01*
X146633678Y-139503888D01*
X146626618Y-139510947D01*
X146059041Y-139510947D01*
X146064241Y-139501433D01*
X146077195Y-139489769D01*
X146087873Y-139483574D01*
X146104495Y-139461011D01*
X146106343Y-139457367D01*
X146106872Y-139454472D01*
X146767808Y-139454472D01*
X146774867Y-139461531D01*
X146781927Y-139454472D01*
X146774867Y-139447412D01*
X146767808Y-139454472D01*
X146106872Y-139454472D01*
X146109452Y-139440353D01*
X146810165Y-139440353D01*
X146817224Y-139447412D01*
X146824284Y-139440353D01*
X146817224Y-139433293D01*
X146810165Y-139440353D01*
X146109452Y-139440353D01*
X146111819Y-139427405D01*
X146102080Y-139399506D01*
X146923116Y-139399506D01*
X146927029Y-139404766D01*
X146943212Y-139402802D01*
X146958314Y-139391098D01*
X146959603Y-139384562D01*
X146945028Y-139385549D01*
X146934191Y-139390439D01*
X146923116Y-139399506D01*
X146102080Y-139399506D01*
X146098655Y-139389696D01*
X146088853Y-139368287D01*
X146997535Y-139368287D01*
X146997753Y-139373107D01*
X147016066Y-139375703D01*
X147029944Y-139373442D01*
X147024596Y-139367172D01*
X147016432Y-139364917D01*
X146997535Y-139368287D01*
X146088853Y-139368287D01*
X146087941Y-139366296D01*
X146086536Y-139355639D01*
X147050187Y-139355639D01*
X147057246Y-139362698D01*
X147064306Y-139355639D01*
X147057246Y-139348579D01*
X147050187Y-139355639D01*
X146086536Y-139355639D01*
X146085573Y-139348336D01*
X146094750Y-139341520D01*
X147078425Y-139341520D01*
X147085484Y-139348579D01*
X147092544Y-139341520D01*
X147085484Y-139334460D01*
X147078425Y-139341520D01*
X146094750Y-139341520D01*
X146097621Y-139339388D01*
X146109489Y-139329752D01*
X146107005Y-139318357D01*
X147141960Y-139318357D01*
X147170198Y-139319133D01*
X147187558Y-139317606D01*
X147219614Y-139306223D01*
X147223190Y-139303889D01*
X147233668Y-139294603D01*
X147219614Y-139293312D01*
X147203183Y-139295774D01*
X147170198Y-139306223D01*
X147141960Y-139318357D01*
X146107005Y-139318357D01*
X146104455Y-139306668D01*
X146098235Y-139290976D01*
X146098471Y-139285259D01*
X147253583Y-139285259D01*
X147268197Y-139292104D01*
X147278717Y-139290376D01*
X147290209Y-139277985D01*
X147289829Y-139274635D01*
X147276923Y-139263866D01*
X147272962Y-139264404D01*
X147254912Y-139277985D01*
X147253583Y-139285259D01*
X146098471Y-139285259D01*
X146098943Y-139273846D01*
X146103456Y-139265434D01*
X146099500Y-139241028D01*
X146082529Y-139217760D01*
X146059522Y-139207390D01*
X146054249Y-139207371D01*
X146039421Y-139205003D01*
X146040588Y-139193480D01*
X146057375Y-139165496D01*
X146073530Y-139142618D01*
X146106584Y-139101272D01*
X146143834Y-139058837D01*
X146171006Y-139026851D01*
X146190995Y-138997196D01*
X146195516Y-138980720D01*
X146193552Y-138975908D01*
X146202216Y-138967368D01*
X146209104Y-138964971D01*
X146217168Y-138946189D01*
X146214708Y-138936313D01*
X146195990Y-138925011D01*
X146174526Y-138917715D01*
X146146574Y-138896773D01*
X146122211Y-138877881D01*
X146097157Y-138868535D01*
X146083894Y-138867997D01*
X146077724Y-138862062D01*
X146077869Y-138861475D01*
X147219614Y-138861475D01*
X147226674Y-138868535D01*
X147233733Y-138861475D01*
X147226674Y-138854416D01*
X147219614Y-138861475D01*
X146077869Y-138861475D01*
X146082241Y-138843834D01*
X146085784Y-138835131D01*
X147320944Y-138835131D01*
X147332566Y-138840297D01*
X147340040Y-138839278D01*
X147341979Y-138830884D01*
X147339909Y-138829195D01*
X147323153Y-138830884D01*
X147320944Y-138835131D01*
X146085784Y-138835131D01*
X146097480Y-138806405D01*
X146098568Y-138803794D01*
X146110531Y-138771214D01*
X146110191Y-138755030D01*
X146097561Y-138746725D01*
X146087861Y-138740518D01*
X146084928Y-138724287D01*
X146086690Y-138715384D01*
X146074258Y-138697242D01*
X146067373Y-138691420D01*
X146067477Y-138677405D01*
X146089344Y-138655483D01*
X146099078Y-138646928D01*
X146107696Y-138635288D01*
X147561486Y-138635288D01*
X147563175Y-138652044D01*
X147567422Y-138654253D01*
X147572588Y-138642632D01*
X147571569Y-138635157D01*
X147563175Y-138633219D01*
X147561486Y-138635288D01*
X146107696Y-138635288D01*
X146113245Y-138627794D01*
X146105485Y-138615178D01*
X146098908Y-138609228D01*
X147673918Y-138609228D01*
X147685540Y-138614394D01*
X147693014Y-138613375D01*
X147694952Y-138604981D01*
X147692883Y-138603291D01*
X147676127Y-138604981D01*
X147673918Y-138609228D01*
X146098908Y-138609228D01*
X146095397Y-138606053D01*
X146103395Y-138593723D01*
X146112423Y-138583356D01*
X146110417Y-138579096D01*
X147770253Y-138579096D01*
X147777313Y-138586156D01*
X147784372Y-138579096D01*
X147777313Y-138572037D01*
X147770253Y-138579096D01*
X146110417Y-138579096D01*
X146103174Y-138563720D01*
X146093832Y-138548585D01*
X146104019Y-138543799D01*
X146113949Y-138537506D01*
X146113010Y-138510381D01*
X146110953Y-138495737D01*
X146119699Y-138469634D01*
X146149272Y-138439974D01*
X146164061Y-138425680D01*
X146190236Y-138384708D01*
X146202094Y-138340868D01*
X146198247Y-138302232D01*
X146177307Y-138276874D01*
X146159519Y-138269691D01*
X146142784Y-138269915D01*
X146139206Y-138271633D01*
X146125976Y-138262359D01*
X146125739Y-138253073D01*
X146144940Y-138247301D01*
X146154487Y-138246117D01*
X146185116Y-138226831D01*
X146208107Y-138190680D01*
X146217168Y-138146448D01*
X146216293Y-138133350D01*
X146209000Y-138116213D01*
X146193525Y-138106111D01*
X148059692Y-138106111D01*
X148062586Y-138110383D01*
X148073811Y-138120230D01*
X148075853Y-138119566D01*
X148087930Y-138106111D01*
X148089061Y-138098633D01*
X148073811Y-138091992D01*
X148063045Y-138094150D01*
X148059692Y-138106111D01*
X146193525Y-138106111D01*
X146190683Y-138104256D01*
X146157040Y-138096107D01*
X146103768Y-138090397D01*
X146026563Y-138085756D01*
X146011873Y-138084989D01*
X145949041Y-138081394D01*
X145869442Y-138076514D01*
X145781782Y-138070890D01*
X145694767Y-138065066D01*
X145677109Y-138063858D01*
X145575079Y-138056939D01*
X145460225Y-138049229D01*
X145345353Y-138041586D01*
X145243270Y-138034865D01*
X145187297Y-138031038D01*
X145116134Y-138025627D01*
X145058727Y-138020608D01*
X145019887Y-138016412D01*
X145004424Y-138013471D01*
X145003478Y-138012476D01*
X145001907Y-138005681D01*
X145014529Y-138001942D01*
X145044825Y-138001142D01*
X145096277Y-138003166D01*
X145172366Y-138007900D01*
X145212202Y-138010552D01*
X145308350Y-138016745D01*
X145408714Y-138022990D01*
X145497102Y-138028271D01*
X145553318Y-138031635D01*
X145621627Y-138035998D01*
X145678655Y-138039938D01*
X145715946Y-138042892D01*
X145718682Y-138043135D01*
X145756929Y-138045840D01*
X145815134Y-138049239D01*
X145885878Y-138052924D01*
X145961741Y-138056484D01*
X145978281Y-138057243D01*
X146047223Y-138061002D01*
X146104774Y-138065078D01*
X146145325Y-138069026D01*
X146163266Y-138072405D01*
X146163871Y-138072756D01*
X146188292Y-138072967D01*
X146220120Y-138059521D01*
X146247738Y-138038991D01*
X146253798Y-138028173D01*
X148112125Y-138028173D01*
X148113815Y-138044929D01*
X148118061Y-138047138D01*
X148123227Y-138035517D01*
X148122208Y-138028042D01*
X148113815Y-138026104D01*
X148112125Y-138028173D01*
X146253798Y-138028173D01*
X146259525Y-138017951D01*
X146256815Y-138004758D01*
X146241877Y-137992944D01*
X146233338Y-137991473D01*
X146239377Y-137982354D01*
X146251936Y-137969600D01*
X146271152Y-137928512D01*
X146280384Y-137880208D01*
X148116168Y-137880208D01*
X148126956Y-137889992D01*
X148151222Y-137891318D01*
X148193822Y-137880208D01*
X148198459Y-137878692D01*
X148212365Y-137872371D01*
X148203159Y-137869065D01*
X148168281Y-137867496D01*
X148153092Y-137867482D01*
X148122631Y-137871324D01*
X148116168Y-137880208D01*
X146280384Y-137880208D01*
X146281944Y-137872048D01*
X146282888Y-137864854D01*
X146295377Y-137821451D01*
X146316101Y-137777317D01*
X146321941Y-137766661D01*
X146330029Y-137746078D01*
X148193822Y-137746078D01*
X148200882Y-137753137D01*
X148207941Y-137746078D01*
X148200882Y-137739019D01*
X148193822Y-137746078D01*
X146330029Y-137746078D01*
X146337711Y-137726531D01*
X146341766Y-137694812D01*
X146348617Y-137661388D01*
X146376266Y-137621874D01*
X146379383Y-137618357D01*
X148366340Y-137618357D01*
X148380445Y-137629658D01*
X148406370Y-137634229D01*
X148426791Y-137628414D01*
X148434387Y-137616294D01*
X148426406Y-137602851D01*
X148398108Y-137600421D01*
X148390621Y-137602535D01*
X148375255Y-137606874D01*
X148366340Y-137618357D01*
X146379383Y-137618357D01*
X146388767Y-137607769D01*
X146389356Y-137606782D01*
X148252795Y-137606782D01*
X148264417Y-137611948D01*
X148271891Y-137610929D01*
X148273830Y-137602535D01*
X148271760Y-137600846D01*
X148255004Y-137602535D01*
X148252795Y-137606782D01*
X146389356Y-137606782D01*
X146404773Y-137580965D01*
X146400443Y-137562204D01*
X146398899Y-137560210D01*
X146396632Y-137541348D01*
X146418213Y-137518088D01*
X146443395Y-137494392D01*
X146470055Y-137463248D01*
X146491789Y-137432681D01*
X146503851Y-137409413D01*
X146501495Y-137400164D01*
X146495382Y-137396386D01*
X146494845Y-137375876D01*
X146504276Y-137345173D01*
X146520606Y-137313030D01*
X146540766Y-137288199D01*
X146560858Y-137266389D01*
X146583686Y-137229550D01*
X146601116Y-137196399D01*
X148162144Y-137196399D01*
X148165584Y-137202528D01*
X148185347Y-137204683D01*
X148221343Y-137208582D01*
X148244640Y-137214579D01*
X148261110Y-137227875D01*
X148272985Y-137249304D01*
X148294262Y-137278989D01*
X148298228Y-137283840D01*
X148329269Y-137307421D01*
X148372229Y-137312660D01*
X148377824Y-137312531D01*
X148412442Y-137315551D01*
X148431568Y-137323704D01*
X148455982Y-137342778D01*
X148501836Y-137364370D01*
X148561546Y-137384996D01*
X148627980Y-137401817D01*
X148666485Y-137411281D01*
X148702980Y-137425197D01*
X148716223Y-137438373D01*
X148721550Y-137449018D01*
X148744461Y-137456639D01*
X148760874Y-137459287D01*
X148772699Y-137470758D01*
X148776755Y-137479754D01*
X148796965Y-137484009D01*
X148824200Y-137474072D01*
X148836701Y-137454928D01*
X148844845Y-137421342D01*
X148851002Y-137387957D01*
X148860653Y-137363126D01*
X148870226Y-137339209D01*
X148857258Y-137321490D01*
X148819235Y-137310955D01*
X148754868Y-137306918D01*
X148701095Y-137304438D01*
X148641932Y-137294208D01*
X148590921Y-137274034D01*
X148570367Y-137264556D01*
X148530887Y-137251631D01*
X149185166Y-137251631D01*
X149186855Y-137268387D01*
X149191102Y-137270596D01*
X149196268Y-137258974D01*
X149195249Y-137251500D01*
X149186855Y-137249561D01*
X149185166Y-137251631D01*
X148530887Y-137251631D01*
X148530361Y-137251459D01*
X148502677Y-137249407D01*
X148487357Y-137251037D01*
X148476201Y-137243533D01*
X148471292Y-137236247D01*
X148448797Y-137230736D01*
X148432606Y-137228567D01*
X148413047Y-137217234D01*
X148408399Y-137212519D01*
X148387010Y-137210521D01*
X148366009Y-137207145D01*
X148338636Y-137188726D01*
X148310125Y-137167201D01*
X148716223Y-137167201D01*
X148723283Y-137174260D01*
X148730342Y-137167201D01*
X148723283Y-137160141D01*
X148716223Y-137167201D01*
X148310125Y-137167201D01*
X148309921Y-137167047D01*
X148287209Y-137161033D01*
X148278536Y-137174757D01*
X148274764Y-137181756D01*
X148253815Y-137176142D01*
X148232558Y-137170708D01*
X148186750Y-137181558D01*
X148180855Y-137184276D01*
X148162144Y-137196399D01*
X146601116Y-137196399D01*
X146615952Y-137168182D01*
X146658386Y-137120728D01*
X146673613Y-137101754D01*
X146683094Y-137067124D01*
X146687819Y-137042959D01*
X146703381Y-137024400D01*
X146712174Y-137018387D01*
X146716427Y-136997746D01*
X146717875Y-136974841D01*
X146720324Y-136969535D01*
X148179703Y-136969535D01*
X148186763Y-136976595D01*
X148193822Y-136969535D01*
X148186763Y-136962476D01*
X148179703Y-136969535D01*
X146720324Y-136969535D01*
X146727654Y-136953656D01*
X148111980Y-136953656D01*
X148126757Y-136962476D01*
X148153493Y-136954635D01*
X148165584Y-136933134D01*
X148163607Y-136928214D01*
X148147458Y-136925357D01*
X148125905Y-136932378D01*
X148112227Y-136946061D01*
X148111980Y-136953656D01*
X146727654Y-136953656D01*
X146732289Y-136943616D01*
X146745436Y-136921692D01*
X146746458Y-136906150D01*
X146739478Y-136900834D01*
X147815108Y-136900834D01*
X147826729Y-136906000D01*
X147834204Y-136904981D01*
X147836142Y-136896588D01*
X147834073Y-136894898D01*
X147817317Y-136896588D01*
X147815108Y-136900834D01*
X146739478Y-136900834D01*
X146729832Y-136893489D01*
X146725931Y-136891182D01*
X146713681Y-136881052D01*
X146726144Y-136878192D01*
X146729715Y-136877539D01*
X146748889Y-136860692D01*
X146765905Y-136828291D01*
X146766697Y-136826048D01*
X146775057Y-136787797D01*
X146774834Y-136757751D01*
X148363250Y-136757751D01*
X148370309Y-136764811D01*
X148377369Y-136757751D01*
X148370309Y-136750692D01*
X148363250Y-136757751D01*
X146774834Y-136757751D01*
X146774805Y-136753866D01*
X146766994Y-136732049D01*
X146752672Y-136730141D01*
X146745961Y-136731162D01*
X146739570Y-136716228D01*
X146741990Y-136708778D01*
X147727897Y-136708778D01*
X147730282Y-136715065D01*
X147749075Y-136722454D01*
X147758724Y-136721840D01*
X147770253Y-136716905D01*
X147767652Y-136713250D01*
X147749075Y-136703229D01*
X147739544Y-136701275D01*
X148363250Y-136701275D01*
X148370309Y-136708335D01*
X148377369Y-136701275D01*
X148370309Y-136694216D01*
X148363250Y-136701275D01*
X147739544Y-136701275D01*
X147738246Y-136701009D01*
X147727897Y-136708778D01*
X146741990Y-136708778D01*
X146743389Y-136704475D01*
X146764278Y-136694000D01*
X146776618Y-136692014D01*
X146774000Y-136683410D01*
X146765763Y-136671741D01*
X146759959Y-136645913D01*
X146761283Y-136620792D01*
X146770378Y-136609502D01*
X146774465Y-136601847D01*
X146769311Y-136577859D01*
X146764983Y-136552598D01*
X146780355Y-136529270D01*
X146783487Y-136526866D01*
X146795521Y-136509616D01*
X146785046Y-136486788D01*
X146773907Y-136468944D01*
X146758692Y-136436545D01*
X146751055Y-136423466D01*
X146729135Y-136411837D01*
X146728850Y-136411836D01*
X146715526Y-136407674D01*
X146724938Y-136391277D01*
X146732492Y-136377454D01*
X146731544Y-136353798D01*
X146727767Y-136345241D01*
X146737388Y-136346953D01*
X146743251Y-136351889D01*
X146753689Y-136376539D01*
X146754569Y-136384339D01*
X146765893Y-136403594D01*
X146774490Y-136397949D01*
X146778488Y-136372660D01*
X146778511Y-136370468D01*
X146779905Y-136318047D01*
X146783660Y-136287825D01*
X146791241Y-136273970D01*
X146804114Y-136270647D01*
X146812535Y-136270403D01*
X146818819Y-136265380D01*
X146804114Y-136248460D01*
X146789022Y-136229857D01*
X146782768Y-136208599D01*
X146796046Y-136200052D01*
X146804952Y-136196005D01*
X146810003Y-136176425D01*
X146804004Y-136151307D01*
X146790051Y-136134788D01*
X148702105Y-136134788D01*
X148704972Y-136146263D01*
X148723283Y-136157696D01*
X148732931Y-136157107D01*
X148744461Y-136152365D01*
X148740830Y-136146376D01*
X148723283Y-136129458D01*
X148721231Y-136127776D01*
X148705818Y-136119806D01*
X148702105Y-136134788D01*
X146790051Y-136134788D01*
X146788344Y-136132768D01*
X146782466Y-136128988D01*
X146773598Y-136112212D01*
X146781258Y-136081801D01*
X146782281Y-136080041D01*
X148786818Y-136080041D01*
X148793878Y-136087101D01*
X148800937Y-136080041D01*
X148793878Y-136072982D01*
X148786818Y-136080041D01*
X146782281Y-136080041D01*
X146795762Y-136056851D01*
X146812320Y-136053135D01*
X146821234Y-136056497D01*
X146816228Y-136043396D01*
X146811311Y-136032870D01*
X146807472Y-136001237D01*
X146807707Y-135998207D01*
X146794421Y-135978892D01*
X146754173Y-135961843D01*
X146723304Y-135950939D01*
X146700709Y-135935777D01*
X146706007Y-135922216D01*
X146739318Y-135910669D01*
X146743427Y-135909663D01*
X146772327Y-135891607D01*
X146777016Y-135863177D01*
X146756321Y-135829944D01*
X146748395Y-135818974D01*
X146739570Y-135787779D01*
X146737450Y-135774064D01*
X146726251Y-135762365D01*
X146720714Y-135758942D01*
X146714577Y-135736188D01*
X146714090Y-135706808D01*
X148959707Y-135706808D01*
X148963305Y-135720008D01*
X148966206Y-135724187D01*
X148979091Y-135734127D01*
X148981022Y-135733208D01*
X148977424Y-135720008D01*
X148974523Y-135715828D01*
X148961639Y-135705889D01*
X148959707Y-135706808D01*
X146714090Y-135706808D01*
X146713974Y-135699853D01*
X146718214Y-135659101D01*
X146725406Y-135628235D01*
X146739570Y-135628235D01*
X146746629Y-135635294D01*
X146753689Y-135628235D01*
X146746629Y-135621175D01*
X146739570Y-135628235D01*
X146725406Y-135628235D01*
X146726603Y-135623099D01*
X146738448Y-135601012D01*
X146739080Y-135600441D01*
X146747495Y-135593771D01*
X146866640Y-135593771D01*
X146866912Y-135597304D01*
X146879029Y-135606229D01*
X146906975Y-135594486D01*
X146916949Y-135585437D01*
X146910505Y-135572691D01*
X146901194Y-135569072D01*
X146877762Y-135574067D01*
X146866640Y-135593771D01*
X146747495Y-135593771D01*
X146757780Y-135585619D01*
X146777161Y-135579816D01*
X146810998Y-135578818D01*
X146827140Y-135576118D01*
X146832162Y-135566025D01*
X146820416Y-135559573D01*
X146792502Y-135560013D01*
X146774603Y-135563492D01*
X146769703Y-135560622D01*
X146788155Y-135544569D01*
X146808430Y-135530416D01*
X146827815Y-135522343D01*
X146831283Y-135521699D01*
X146832314Y-135509794D01*
X146831850Y-135508823D01*
X146838611Y-135492477D01*
X146844089Y-135487045D01*
X146866640Y-135487045D01*
X146873700Y-135494105D01*
X146880759Y-135487045D01*
X146873700Y-135479986D01*
X146866640Y-135487045D01*
X146844089Y-135487045D01*
X146861141Y-135470140D01*
X146890894Y-135448191D01*
X146919327Y-135433010D01*
X146937893Y-135430976D01*
X146944691Y-135441020D01*
X146943918Y-135467055D01*
X146942139Y-135473101D01*
X146941865Y-135487045D01*
X146941785Y-135491159D01*
X146957070Y-135488764D01*
X146989858Y-135465867D01*
X146990651Y-135465246D01*
X147018063Y-135447129D01*
X149085908Y-135447129D01*
X149093405Y-135473765D01*
X149108024Y-135490663D01*
X149120678Y-135487931D01*
X149125319Y-135466490D01*
X149117103Y-135431724D01*
X149114504Y-135425671D01*
X149099897Y-135409865D01*
X149088210Y-135418082D01*
X149085908Y-135447129D01*
X147018063Y-135447129D01*
X147020211Y-135445710D01*
X147041502Y-135437596D01*
X147048115Y-135435797D01*
X147073774Y-135420701D01*
X147106663Y-135395272D01*
X147115122Y-135388213D01*
X149083316Y-135388213D01*
X149090376Y-135395272D01*
X149097435Y-135388213D01*
X149090376Y-135381153D01*
X149083316Y-135388213D01*
X147115122Y-135388213D01*
X147121609Y-135382801D01*
X147150424Y-135360736D01*
X147151718Y-135359975D01*
X149069197Y-135359975D01*
X149076257Y-135367034D01*
X149083316Y-135359975D01*
X149076257Y-135352915D01*
X149069197Y-135359975D01*
X147151718Y-135359975D01*
X147166668Y-135351183D01*
X147168028Y-135350944D01*
X147191376Y-135345856D01*
X147192406Y-135345603D01*
X147219614Y-135340561D01*
X147222384Y-135340104D01*
X147234253Y-135330314D01*
X147227065Y-135317153D01*
X147205495Y-135310558D01*
X147189074Y-135313375D01*
X147177257Y-135325565D01*
X147173375Y-135333220D01*
X147152549Y-135338058D01*
X147139235Y-135337179D01*
X147120782Y-135338347D01*
X147090490Y-135345538D01*
X147061675Y-135340626D01*
X147050187Y-135322318D01*
X147054149Y-135307344D01*
X147076696Y-135296439D01*
X147092133Y-135293725D01*
X147120097Y-135276086D01*
X147120252Y-135275899D01*
X147126292Y-135262015D01*
X147113677Y-135251296D01*
X147077815Y-135239799D01*
X147060049Y-135235187D01*
X147041143Y-135232620D01*
X147335582Y-135232620D01*
X147337272Y-135249376D01*
X147341519Y-135251585D01*
X147346685Y-135239963D01*
X147345666Y-135232489D01*
X147337272Y-135230551D01*
X147335582Y-135232620D01*
X147041143Y-135232620D01*
X147028518Y-135230906D01*
X147005551Y-135239863D01*
X146978001Y-135265435D01*
X146971473Y-135271736D01*
X146933230Y-135299624D01*
X146896558Y-135315164D01*
X146863938Y-135329455D01*
X146841118Y-135365312D01*
X146819769Y-135401423D01*
X146786555Y-135432292D01*
X146751172Y-135458833D01*
X146715369Y-135493343D01*
X146711640Y-135497583D01*
X146691563Y-135517841D01*
X146682553Y-135522343D01*
X146680025Y-135509340D01*
X146674635Y-135479986D01*
X146665086Y-135454109D01*
X146640940Y-135423510D01*
X146619518Y-135400256D01*
X146595310Y-135356476D01*
X146580370Y-135309131D01*
X146579589Y-135270426D01*
X146581426Y-135251252D01*
X146571520Y-135239963D01*
X146562672Y-135232935D01*
X146563386Y-135218785D01*
X147389042Y-135218785D01*
X147396101Y-135225845D01*
X147403161Y-135218785D01*
X147396101Y-135211726D01*
X147389042Y-135218785D01*
X146563386Y-135218785D01*
X146564037Y-135205890D01*
X146565693Y-135181544D01*
X146562994Y-135176428D01*
X147149019Y-135176428D01*
X147156079Y-135183488D01*
X147163138Y-135176428D01*
X147156079Y-135169369D01*
X147149019Y-135176428D01*
X146562994Y-135176428D01*
X146555543Y-135162309D01*
X146866640Y-135162309D01*
X146873700Y-135169369D01*
X146880759Y-135162309D01*
X146873700Y-135155250D01*
X146866640Y-135162309D01*
X146555543Y-135162309D01*
X146546658Y-135145474D01*
X146526927Y-135109027D01*
X146524618Y-135090172D01*
X147052405Y-135090172D01*
X147055776Y-135109069D01*
X147060595Y-135108850D01*
X147063191Y-135090538D01*
X147060930Y-135076660D01*
X147054661Y-135082008D01*
X147052405Y-135090172D01*
X146524618Y-135090172D01*
X146519669Y-135049772D01*
X146518949Y-135035239D01*
X153530787Y-135035239D01*
X153531400Y-135044888D01*
X153536336Y-135056417D01*
X153539990Y-135053816D01*
X153550012Y-135035239D01*
X153552231Y-135024410D01*
X153544463Y-135014060D01*
X153538176Y-135016446D01*
X153530787Y-135035239D01*
X146518949Y-135035239D01*
X146518579Y-135027786D01*
X146512237Y-134991412D01*
X146502021Y-134974881D01*
X146500861Y-134974381D01*
X146499266Y-134971703D01*
X153206051Y-134971703D01*
X153206461Y-134975078D01*
X153220170Y-134985822D01*
X153223545Y-134985412D01*
X153234289Y-134971703D01*
X153233879Y-134968329D01*
X153228816Y-134964360D01*
X153547923Y-134964360D01*
X153548664Y-134971703D01*
X153549612Y-134981116D01*
X153553859Y-134983325D01*
X153559025Y-134971703D01*
X153558006Y-134964229D01*
X153549612Y-134962291D01*
X153547923Y-134964360D01*
X153228816Y-134964360D01*
X153220170Y-134957584D01*
X153216795Y-134957995D01*
X153206051Y-134971703D01*
X146499266Y-134971703D01*
X146489924Y-134956019D01*
X146485429Y-134922621D01*
X146481290Y-134894049D01*
X153078981Y-134894049D01*
X153086040Y-134901109D01*
X153093100Y-134894049D01*
X153086040Y-134886990D01*
X153078981Y-134894049D01*
X146481290Y-134894049D01*
X146480455Y-134888291D01*
X146463277Y-134867391D01*
X146450124Y-134856828D01*
X146450498Y-134837573D01*
X153575862Y-134837573D01*
X153576136Y-134843993D01*
X153578585Y-134874557D01*
X153581658Y-134886990D01*
X153588183Y-134883440D01*
X153596891Y-134860510D01*
X153598261Y-134824869D01*
X153593594Y-134798326D01*
X153585324Y-134788825D01*
X153578063Y-134802673D01*
X153575862Y-134837573D01*
X146450498Y-134837573D01*
X146450669Y-134828821D01*
X146453457Y-134809637D01*
X146441053Y-134786394D01*
X146429088Y-134774342D01*
X146437634Y-134765436D01*
X153208269Y-134765436D01*
X153211640Y-134784333D01*
X153216460Y-134784114D01*
X153219055Y-134765802D01*
X153216795Y-134751924D01*
X153210525Y-134757272D01*
X153208269Y-134765436D01*
X146437634Y-134765436D01*
X146441506Y-134761401D01*
X146447511Y-134756211D01*
X146451709Y-134740865D01*
X146445541Y-134712984D01*
X146428096Y-134666099D01*
X146417191Y-134639908D01*
X146923116Y-134639908D01*
X146930176Y-134646967D01*
X146937235Y-134639908D01*
X146930176Y-134632848D01*
X146923116Y-134639908D01*
X146417191Y-134639908D01*
X146411697Y-134626713D01*
X146394684Y-134589510D01*
X146383774Y-134570019D01*
X146381502Y-134567058D01*
X146373199Y-134545778D01*
X146375145Y-134528625D01*
X146386596Y-134526956D01*
X146395145Y-134526437D01*
X146400715Y-134507444D01*
X146398306Y-134490328D01*
X146386394Y-134470356D01*
X146374844Y-134459060D01*
X146354792Y-134427495D01*
X146336135Y-134387998D01*
X146323600Y-134351064D01*
X146321914Y-134327189D01*
X146324161Y-134317574D01*
X146317178Y-134314445D01*
X146313746Y-134314180D01*
X146308573Y-134296804D01*
X146308206Y-134262232D01*
X146309289Y-134249318D01*
X146316627Y-134216136D01*
X146328046Y-134205750D01*
X146333799Y-134206078D01*
X146344239Y-134195161D01*
X146340490Y-134187674D01*
X146319531Y-134180826D01*
X146303821Y-134178180D01*
X146314280Y-134168285D01*
X146323020Y-134159763D01*
X146322008Y-134136982D01*
X146316216Y-134124831D01*
X146308344Y-134091749D01*
X146305186Y-134076844D01*
X146291488Y-134056204D01*
X146284515Y-134048976D01*
X146269908Y-134017572D01*
X146257579Y-133972525D01*
X146249918Y-133923743D01*
X146249310Y-133881137D01*
X146257007Y-133848635D01*
X146284118Y-133792532D01*
X146323476Y-133739024D01*
X146368045Y-133698911D01*
X146401004Y-133677606D01*
X146462143Y-133643959D01*
X146517584Y-133625216D01*
X146577701Y-133618543D01*
X146652866Y-133621105D01*
X146744760Y-133633597D01*
X146884742Y-133671860D01*
X147030880Y-133732607D01*
X147179391Y-133814191D01*
X147326495Y-133914960D01*
X147338967Y-133924378D01*
X147392039Y-133963921D01*
X147446015Y-134003068D01*
X147508402Y-134047205D01*
X147586707Y-134101723D01*
X147612229Y-134119662D01*
X147642572Y-134141835D01*
X147657302Y-134153802D01*
X147669327Y-134163320D01*
X147700217Y-134185833D01*
X147744907Y-134217609D01*
X147798491Y-134255126D01*
X147846442Y-134288846D01*
X147898381Y-134326259D01*
X147939177Y-134356630D01*
X147962751Y-134375505D01*
X147969996Y-134381682D01*
X148005951Y-134408358D01*
X148047465Y-134435266D01*
X148058170Y-134441837D01*
X148101937Y-134471324D01*
X148137346Y-134498714D01*
X148173092Y-134523898D01*
X148217297Y-134546697D01*
X148259021Y-134561961D01*
X148288060Y-134565191D01*
X148293641Y-134564765D01*
X148313602Y-134575998D01*
X148325398Y-134584706D01*
X148354325Y-134590492D01*
X148378357Y-134594504D01*
X148413497Y-134611221D01*
X148429251Y-134620618D01*
X148480174Y-134631368D01*
X148538928Y-134623629D01*
X148567550Y-134611670D01*
X153304884Y-134611670D01*
X153311943Y-134618729D01*
X153319003Y-134611670D01*
X153311943Y-134604611D01*
X153304884Y-134611670D01*
X148567550Y-134611670D01*
X148597471Y-134599169D01*
X148647764Y-134559754D01*
X148653468Y-134554010D01*
X148686133Y-134529744D01*
X148714829Y-134519897D01*
X148732568Y-134517313D01*
X148744461Y-134506995D01*
X148751504Y-134504089D01*
X148778349Y-134508550D01*
X148818387Y-134521114D01*
X148850688Y-134532978D01*
X148881430Y-134543548D01*
X148895828Y-134545362D01*
X148900150Y-134538596D01*
X148900665Y-134523427D01*
X148901002Y-134517383D01*
X148904575Y-134510290D01*
X148913794Y-134529041D01*
X148927526Y-134554460D01*
X148946673Y-134570544D01*
X148962213Y-134564020D01*
X148963548Y-134562509D01*
X148984803Y-134556712D01*
X149019839Y-134557906D01*
X149060953Y-134557490D01*
X149130945Y-134534881D01*
X149150984Y-134526156D01*
X149189702Y-134514577D01*
X149215365Y-134513992D01*
X149229332Y-134515845D01*
X149247235Y-134499768D01*
X149250686Y-134491468D01*
X149259402Y-134484874D01*
X149274291Y-134501610D01*
X149287385Y-134515521D01*
X149306863Y-134518977D01*
X149340791Y-134509048D01*
X149379414Y-134500896D01*
X149438963Y-134498442D01*
X149503314Y-134502936D01*
X149561569Y-134513531D01*
X149602831Y-134529383D01*
X149638292Y-134540993D01*
X149678638Y-134536114D01*
X149707864Y-134514464D01*
X149714670Y-134506260D01*
X149718453Y-134514576D01*
X149719731Y-134519628D01*
X149738643Y-134530468D01*
X149774182Y-134533039D01*
X149818618Y-134528031D01*
X149864226Y-134516137D01*
X149903279Y-134498047D01*
X149921478Y-134487163D01*
X149948188Y-134474210D01*
X149958692Y-134473916D01*
X149958827Y-134474837D01*
X149972512Y-134487977D01*
X150001794Y-134503845D01*
X150023466Y-134512490D01*
X150047847Y-134514908D01*
X150068859Y-134502074D01*
X150086900Y-134490877D01*
X150110945Y-134487777D01*
X150117406Y-134489174D01*
X150141697Y-134482491D01*
X150159567Y-134464423D01*
X150160551Y-134444173D01*
X150159078Y-134437586D01*
X150173108Y-134446076D01*
X150197968Y-134456726D01*
X150234011Y-134449302D01*
X150264818Y-134441729D01*
X150291527Y-134450165D01*
X150307002Y-134456669D01*
X150333968Y-134457157D01*
X150357111Y-134450202D01*
X150364325Y-134437852D01*
X150363968Y-134435219D01*
X150375201Y-134424594D01*
X150380726Y-134424628D01*
X150389320Y-134438713D01*
X150389356Y-134439554D01*
X150402509Y-134457326D01*
X150431531Y-134474316D01*
X150465029Y-134485343D01*
X150491611Y-134485226D01*
X150500143Y-134483161D01*
X150503400Y-134489833D01*
X150504530Y-134492171D01*
X150524735Y-134495743D01*
X150564579Y-134496784D01*
X150618170Y-134495026D01*
X150642245Y-134493512D01*
X150708279Y-134486195D01*
X150757994Y-134473916D01*
X150800509Y-134454657D01*
X150820142Y-134444311D01*
X150858089Y-134427642D01*
X150883242Y-134421064D01*
X150885788Y-134420901D01*
X150913586Y-134410971D01*
X150947306Y-134390381D01*
X150950604Y-134387950D01*
X150977953Y-134370240D01*
X150995645Y-134369088D01*
X151014911Y-134383321D01*
X151035085Y-134398210D01*
X151057552Y-134406945D01*
X151062980Y-134407539D01*
X151074089Y-134417609D01*
X151079219Y-134424498D01*
X151103875Y-134437755D01*
X151140158Y-134450950D01*
X151178222Y-134460703D01*
X151208219Y-134463636D01*
X151227759Y-134462390D01*
X151270394Y-134459914D01*
X151321171Y-134457131D01*
X151329495Y-134456671D01*
X151404743Y-134449934D01*
X151459829Y-134438362D01*
X151502041Y-134419771D01*
X151538667Y-134391979D01*
X151545093Y-134386401D01*
X151588724Y-134357068D01*
X151632601Y-134337928D01*
X151646208Y-134333632D01*
X151709603Y-134303787D01*
X151779650Y-134258696D01*
X153629620Y-134258696D01*
X153636679Y-134265756D01*
X153643739Y-134258696D01*
X153636679Y-134251637D01*
X153629620Y-134258696D01*
X151779650Y-134258696D01*
X151781673Y-134257394D01*
X151855648Y-134199183D01*
X151924756Y-134133882D01*
X151937537Y-134120389D01*
X151972442Y-134081841D01*
X151996792Y-134052344D01*
X152005940Y-134037418D01*
X152008311Y-134032062D01*
X152027118Y-134025733D01*
X152036814Y-134024557D01*
X152048522Y-134015144D01*
X152048588Y-134014479D01*
X152059754Y-133995551D01*
X152087618Y-133961088D01*
X152128666Y-133914748D01*
X152179382Y-133860190D01*
X152236252Y-133801072D01*
X152295761Y-133741051D01*
X152354393Y-133683786D01*
X152375329Y-133664158D01*
X153688314Y-133664158D01*
X153691684Y-133683055D01*
X153696504Y-133682836D01*
X153699100Y-133664523D01*
X153696839Y-133650645D01*
X153690570Y-133655993D01*
X153688314Y-133664158D01*
X152375329Y-133664158D01*
X152408635Y-133632934D01*
X152454970Y-133592154D01*
X152459480Y-133588366D01*
X152512040Y-133543338D01*
X152571973Y-133490816D01*
X152627174Y-133441398D01*
X152657911Y-133414563D01*
X152729200Y-133358017D01*
X152807112Y-133302132D01*
X152884776Y-133251500D01*
X152955319Y-133210712D01*
X153011870Y-133184361D01*
X153081879Y-133162135D01*
X153179596Y-133141007D01*
X153277353Y-133129390D01*
X153366657Y-133128197D01*
X153439014Y-133138346D01*
X153465162Y-133146536D01*
X153547678Y-133190707D01*
X153619040Y-133257856D01*
X153675138Y-133344397D01*
X153677452Y-133349026D01*
X153702908Y-133395479D01*
X153726210Y-133430960D01*
X153742571Y-133448112D01*
X153761074Y-133457074D01*
X153798784Y-133475213D01*
X153844768Y-133497252D01*
X153882571Y-133517883D01*
X153924183Y-133546921D01*
X153949720Y-133572622D01*
X153970738Y-133602299D01*
X153991023Y-133626661D01*
X154001450Y-133648124D01*
X154002673Y-133664523D01*
X154004061Y-133683137D01*
X154004294Y-133711642D01*
X154011589Y-133729604D01*
X154020765Y-133741479D01*
X154031938Y-133780989D01*
X154039248Y-133843350D01*
X154042598Y-133925431D01*
X154041892Y-134024103D01*
X154037034Y-134136235D01*
X154027926Y-134258696D01*
X154018163Y-134370754D01*
X154008042Y-134495098D01*
G37*
G36*
X147120782Y-141374649D02*
G01*
X147113722Y-141381709D01*
X147106663Y-141374649D01*
X147113722Y-141367590D01*
X147120782Y-141374649D01*
G37*
G36*
X147205495Y-141260865D02*
G01*
X147203767Y-141271384D01*
X147191376Y-141282876D01*
X147188027Y-141282496D01*
X147177257Y-141269591D01*
X147177796Y-141265629D01*
X147191376Y-141247579D01*
X147198651Y-141246251D01*
X147205495Y-141260865D01*
G37*
G36*
X153996713Y-141247579D02*
G01*
X153989653Y-141254638D01*
X153982594Y-141247579D01*
X153989653Y-141240519D01*
X153996713Y-141247579D01*
G37*
G36*
X147247852Y-141169925D02*
G01*
X147246833Y-141177399D01*
X147238440Y-141179337D01*
X147236750Y-141177268D01*
X147238440Y-141160512D01*
X147242686Y-141158303D01*
X147247852Y-141169925D01*
G37*
G36*
X154020244Y-141146393D02*
G01*
X154022453Y-141150640D01*
X154010832Y-141155806D01*
X154003357Y-141154787D01*
X154001419Y-141146393D01*
X154003488Y-141144703D01*
X154020244Y-141146393D01*
G37*
G36*
X149888097Y-141056331D02*
G01*
X149888233Y-141058876D01*
X149899719Y-141088229D01*
X149924036Y-141119866D01*
X149946357Y-141143054D01*
X149951714Y-141153409D01*
X149935777Y-141150060D01*
X149896266Y-141134181D01*
X149894944Y-141133625D01*
X149851029Y-141107849D01*
X149834547Y-141079666D01*
X149845889Y-141049734D01*
X149863696Y-141033231D01*
X149881404Y-141032409D01*
X149888097Y-141056331D01*
G37*
G36*
X153107218Y-141134627D02*
G01*
X153100159Y-141141687D01*
X153093100Y-141134627D01*
X153100159Y-141127568D01*
X153107218Y-141134627D01*
G37*
G36*
X150495212Y-141007557D02*
G01*
X150488152Y-141014616D01*
X150481093Y-141007557D01*
X150488152Y-141000497D01*
X150495212Y-141007557D01*
G37*
G36*
X153686096Y-140922843D02*
G01*
X153679036Y-140929902D01*
X153671977Y-140922843D01*
X153679036Y-140915783D01*
X153686096Y-140922843D01*
G37*
G36*
X151977702Y-140809891D02*
G01*
X151970643Y-140816951D01*
X151963583Y-140809891D01*
X151970643Y-140802832D01*
X151977702Y-140809891D01*
G37*
G36*
X153606430Y-140762702D02*
G01*
X153620331Y-140780934D01*
X153622048Y-140792916D01*
X153607722Y-140793543D01*
X153593248Y-140783703D01*
X153587635Y-140768208D01*
X153599871Y-140760475D01*
X153606430Y-140762702D01*
G37*
G36*
X153573144Y-140746356D02*
G01*
X153572125Y-140753830D01*
X153563731Y-140755769D01*
X153562042Y-140753699D01*
X153563731Y-140736943D01*
X153567978Y-140734734D01*
X153573144Y-140746356D01*
G37*
G36*
X153540200Y-140751062D02*
G01*
X153542409Y-140755309D01*
X153530787Y-140760475D01*
X153523313Y-140759456D01*
X153521374Y-140751062D01*
X153523444Y-140749372D01*
X153540200Y-140751062D01*
G37*
G36*
X153615501Y-140725178D02*
G01*
X153608441Y-140732237D01*
X153601382Y-140725178D01*
X153608441Y-140718118D01*
X153615501Y-140725178D01*
G37*
G36*
X152500103Y-140682821D02*
G01*
X152493044Y-140689880D01*
X152485984Y-140682821D01*
X152493044Y-140675761D01*
X152500103Y-140682821D01*
G37*
G36*
X153714334Y-140605166D02*
G01*
X153713315Y-140612641D01*
X153704921Y-140614579D01*
X153703231Y-140612510D01*
X153704921Y-140595754D01*
X153709168Y-140593545D01*
X153714334Y-140605166D01*
G37*
G36*
X153657858Y-140598107D02*
G01*
X153650798Y-140605166D01*
X153643739Y-140598107D01*
X153650798Y-140591047D01*
X153657858Y-140598107D01*
G37*
G36*
X152627174Y-140471036D02*
G01*
X152620115Y-140478096D01*
X152613055Y-140471036D01*
X152620115Y-140463977D01*
X152627174Y-140471036D01*
G37*
G36*
X154349687Y-140414560D02*
G01*
X154342627Y-140421620D01*
X154335568Y-140414560D01*
X154342627Y-140407501D01*
X154349687Y-140414560D01*
G37*
G36*
X152881315Y-140414560D02*
G01*
X152874256Y-140421620D01*
X152867196Y-140414560D01*
X152874256Y-140407501D01*
X152881315Y-140414560D01*
G37*
G36*
X154014206Y-140266722D02*
G01*
X154024951Y-140280430D01*
X154024540Y-140283805D01*
X154010832Y-140294549D01*
X154007457Y-140294139D01*
X153996713Y-140280430D01*
X153997123Y-140277056D01*
X154010832Y-140266311D01*
X154014206Y-140266722D01*
G37*
G36*
X154095545Y-140245133D02*
G01*
X154088486Y-140252193D01*
X154081426Y-140245133D01*
X154088486Y-140238074D01*
X154095545Y-140245133D01*
G37*
G36*
X154537567Y-140169642D02*
G01*
X154546360Y-140205801D01*
X154546300Y-140207357D01*
X154536679Y-140208219D01*
X154515584Y-140191682D01*
X154501811Y-140177243D01*
X154493648Y-140161185D01*
X154504995Y-140151764D01*
X154519399Y-140151243D01*
X154537567Y-140169642D01*
G37*
G36*
X154462638Y-140216895D02*
G01*
X154455579Y-140223955D01*
X154448519Y-140216895D01*
X154455579Y-140209836D01*
X154462638Y-140216895D01*
G37*
G36*
X154438939Y-140183245D02*
G01*
X154446395Y-140186436D01*
X154427341Y-140195717D01*
X154409671Y-140203204D01*
X154395573Y-140208843D01*
X154394746Y-140208682D01*
X154392043Y-140195717D01*
X154399047Y-140187117D01*
X154423811Y-140182590D01*
X154438939Y-140183245D01*
G37*
G36*
X154344059Y-140111653D02*
G01*
X154356746Y-140125122D01*
X154358952Y-140130591D01*
X154350520Y-140139241D01*
X154346422Y-140138698D01*
X154335568Y-140125122D01*
X154335729Y-140121927D01*
X154341794Y-140111003D01*
X154344059Y-140111653D01*
G37*
G36*
X149563361Y-140111003D02*
G01*
X149562342Y-140118477D01*
X149553948Y-140120416D01*
X149552258Y-140118346D01*
X149553948Y-140101590D01*
X149558195Y-140099381D01*
X149563361Y-140111003D01*
G37*
G36*
X155051477Y-140026443D02*
G01*
X155065912Y-140039768D01*
X155069795Y-140064717D01*
X155060560Y-140087252D01*
X155052282Y-140088254D01*
X155036339Y-140075163D01*
X155023590Y-140054408D01*
X155022422Y-140037034D01*
X155026793Y-140032732D01*
X155049408Y-140026289D01*
X155051477Y-140026443D01*
G37*
G36*
X149577480Y-140043266D02*
G01*
X149575372Y-140054899D01*
X149559831Y-140072596D01*
X149542312Y-140076022D01*
X149536880Y-140066670D01*
X149553612Y-140044106D01*
X149564301Y-140033786D01*
X149575314Y-140028232D01*
X149577480Y-140043266D01*
G37*
G36*
X154236735Y-140033349D02*
G01*
X154229675Y-140040408D01*
X154222616Y-140033349D01*
X154229675Y-140026289D01*
X154236735Y-140033349D01*
G37*
G36*
X154250854Y-140005111D02*
G01*
X154243794Y-140012170D01*
X154236735Y-140005111D01*
X154243794Y-139998051D01*
X154250854Y-140005111D01*
G37*
G36*
X150233450Y-139874089D02*
G01*
X150241071Y-139890486D01*
X150248578Y-139908583D01*
X150272801Y-139929325D01*
X150290867Y-139942717D01*
X150286920Y-139952177D01*
X150279597Y-139956485D01*
X150269309Y-139978546D01*
X150269265Y-139980775D01*
X150262879Y-139991837D01*
X150241071Y-139983932D01*
X150224206Y-139968700D01*
X150212833Y-139934019D01*
X150212595Y-139909804D01*
X150211774Y-139888982D01*
X150212120Y-139885801D01*
X150225893Y-139873687D01*
X150233450Y-139874089D01*
G37*
G36*
X150329049Y-139956237D02*
G01*
X150339903Y-139969813D01*
X150339741Y-139973009D01*
X150333677Y-139983932D01*
X150331412Y-139983283D01*
X150318725Y-139969813D01*
X150316519Y-139964344D01*
X150324951Y-139955694D01*
X150329049Y-139956237D01*
G37*
G36*
X150622282Y-139906278D02*
G01*
X150615223Y-139913338D01*
X150608163Y-139906278D01*
X150615223Y-139899219D01*
X150622282Y-139906278D01*
G37*
G36*
X150321078Y-139833330D02*
G01*
X150323287Y-139837577D01*
X150311665Y-139842743D01*
X150304191Y-139841724D01*
X150302253Y-139833330D01*
X150304322Y-139831640D01*
X150321078Y-139833330D01*
G37*
G36*
X150051896Y-139758679D02*
G01*
X150064584Y-139772148D01*
X150066790Y-139777617D01*
X150058357Y-139786267D01*
X150054259Y-139785724D01*
X150043405Y-139772148D01*
X150043567Y-139768953D01*
X150049631Y-139758029D01*
X150051896Y-139758679D01*
G37*
G36*
X146022150Y-139635433D02*
G01*
X146028686Y-139640515D01*
X146013620Y-139643963D01*
X145999300Y-139642964D01*
X145995089Y-139636547D01*
X146000084Y-139633749D01*
X146022150Y-139635433D01*
G37*
G36*
X151441182Y-139567423D02*
G01*
X151434122Y-139574483D01*
X151427063Y-139567423D01*
X151434122Y-139560364D01*
X151441182Y-139567423D01*
G37*
G36*
X151471918Y-139364870D02*
G01*
X151497658Y-139376817D01*
X151507243Y-139384678D01*
X151504717Y-139390504D01*
X151495159Y-139388765D01*
X151469420Y-139376817D01*
X151459835Y-139368957D01*
X151462360Y-139363131D01*
X151471918Y-139364870D01*
G37*
G36*
X151361654Y-139339608D02*
G01*
X151370587Y-139362255D01*
X151366821Y-139379627D01*
X151349409Y-139381923D01*
X151339619Y-139375925D01*
X151328230Y-139354128D01*
X151330673Y-139344986D01*
X151349409Y-139334460D01*
X151361654Y-139339608D01*
G37*
G36*
X151407233Y-139346398D02*
G01*
X151405357Y-139349272D01*
X151391406Y-139362275D01*
X151384706Y-139356472D01*
X151385968Y-139353296D01*
X151401006Y-139340172D01*
X151408897Y-139336736D01*
X151407233Y-139346398D01*
G37*
G36*
X151549427Y-139339167D02*
G01*
X151551636Y-139343413D01*
X151540014Y-139348579D01*
X151532540Y-139347560D01*
X151530602Y-139339167D01*
X151532671Y-139337477D01*
X151549427Y-139339167D01*
G37*
G36*
X146017083Y-139333950D02*
G01*
X146025563Y-139341524D01*
X146014613Y-139346493D01*
X145978323Y-139348150D01*
X145959593Y-139347805D01*
X145932157Y-139344512D01*
X145925741Y-139338803D01*
X145946076Y-139328232D01*
X145983168Y-139324841D01*
X146017083Y-139333950D01*
G37*
G36*
X145878314Y-139341520D02*
G01*
X145871254Y-139348579D01*
X145864195Y-139341520D01*
X145871254Y-139334460D01*
X145878314Y-139341520D01*
G37*
G36*
X145835957Y-139341520D02*
G01*
X145828897Y-139348579D01*
X145821838Y-139341520D01*
X145828897Y-139334460D01*
X145835957Y-139341520D01*
G37*
G36*
X145783011Y-139325110D02*
G01*
X145785406Y-139330012D01*
X145765362Y-139332231D01*
X145745940Y-139330263D01*
X145747713Y-139325110D01*
X145754104Y-139323245D01*
X145783011Y-139325110D01*
G37*
G36*
X145684178Y-139325110D02*
G01*
X145686573Y-139330012D01*
X145666529Y-139332231D01*
X145647107Y-139330263D01*
X145648881Y-139325110D01*
X145655272Y-139323245D01*
X145684178Y-139325110D01*
G37*
G36*
X151518040Y-139272270D02*
G01*
X151536485Y-139278669D01*
X151543039Y-139281674D01*
X151576145Y-139290339D01*
X151578341Y-139291836D01*
X151575312Y-139306223D01*
X151574684Y-139307184D01*
X151552435Y-139318848D01*
X151521994Y-139315062D01*
X151495111Y-139299644D01*
X151483539Y-139276410D01*
X151483548Y-139276191D01*
X151495152Y-139271221D01*
X151518040Y-139272270D01*
G37*
G36*
X145595934Y-139313282D02*
G01*
X145588875Y-139320341D01*
X145581815Y-139313282D01*
X145588875Y-139306223D01*
X145595934Y-139313282D01*
G37*
G36*
X145499749Y-139310697D02*
G01*
X145506284Y-139315779D01*
X145491219Y-139319227D01*
X145476899Y-139318229D01*
X145472688Y-139311811D01*
X145477683Y-139309013D01*
X145499749Y-139310697D01*
G37*
G36*
X145415918Y-139310991D02*
G01*
X145418313Y-139315893D01*
X145398269Y-139318112D01*
X145378847Y-139316144D01*
X145380620Y-139310991D01*
X145387011Y-139309126D01*
X145415918Y-139310991D01*
G37*
G36*
X145273846Y-139296578D02*
G01*
X145280381Y-139301660D01*
X145265316Y-139305108D01*
X145250995Y-139304110D01*
X145246784Y-139297692D01*
X145251780Y-139294894D01*
X145273846Y-139296578D01*
G37*
G36*
X145085718Y-139270298D02*
G01*
X145091505Y-139270610D01*
X145143370Y-139275285D01*
X145183574Y-139282096D01*
X145203832Y-139289684D01*
X145203810Y-139295802D01*
X145179720Y-139298780D01*
X145128112Y-139295936D01*
X145078240Y-139290611D01*
X145034605Y-139283571D01*
X145011774Y-139276955D01*
X145011509Y-139271828D01*
X145035570Y-139269254D01*
X145085718Y-139270298D01*
G37*
G36*
X154568530Y-139215112D02*
G01*
X154602412Y-139224776D01*
X154639133Y-139242409D01*
X154663063Y-139261905D01*
X154666980Y-139278605D01*
X154660062Y-139285035D01*
X154634762Y-139291887D01*
X154631551Y-139291840D01*
X154618835Y-139288950D01*
X154632066Y-139277985D01*
X154637035Y-139274616D01*
X154642107Y-139266311D01*
X154621476Y-139264082D01*
X154601695Y-139261328D01*
X154589709Y-139251904D01*
X154582010Y-139240104D01*
X154557941Y-139223373D01*
X154539515Y-139213158D01*
X154541247Y-139210360D01*
X154568530Y-139215112D01*
G37*
G36*
X145965321Y-139252394D02*
G01*
X145977146Y-139263866D01*
X145971851Y-139272072D01*
X145948908Y-139277985D01*
X145932496Y-139275337D01*
X145920670Y-139263866D01*
X145925965Y-139255659D01*
X145948908Y-139249747D01*
X145965321Y-139252394D01*
G37*
G36*
X144953522Y-139258760D02*
G01*
X144963660Y-139263332D01*
X144974700Y-139272436D01*
X144972360Y-139274964D01*
X144953522Y-139277985D01*
X144943786Y-139276444D01*
X144932344Y-139264309D01*
X144935342Y-139258466D01*
X144953522Y-139258760D01*
G37*
G36*
X151977702Y-139256806D02*
G01*
X151970643Y-139263866D01*
X151963583Y-139256806D01*
X151970643Y-139249747D01*
X151977702Y-139256806D01*
G37*
G36*
X145344537Y-139222964D02*
G01*
X145355912Y-139235628D01*
X145350233Y-139243986D01*
X145326841Y-139249747D01*
X145310819Y-139246741D01*
X145306496Y-139235628D01*
X145311529Y-139230114D01*
X145335567Y-139221509D01*
X145344537Y-139222964D01*
G37*
G36*
X144994731Y-139173719D02*
G01*
X145048727Y-139178593D01*
X145126479Y-139187665D01*
X145157529Y-139194570D01*
X145182827Y-139208964D01*
X145187780Y-139225454D01*
X145168836Y-139239677D01*
X145166211Y-139240329D01*
X145139322Y-139237826D01*
X145102804Y-139226411D01*
X145096282Y-139223834D01*
X145061719Y-139214881D01*
X145044860Y-139222213D01*
X145036164Y-139229255D01*
X145007869Y-139232680D01*
X144973522Y-139225905D01*
X144944541Y-139211850D01*
X144932344Y-139193434D01*
X144933420Y-139185528D01*
X144941264Y-139177062D01*
X144960305Y-139173167D01*
X144994731Y-139173719D01*
G37*
G36*
X145457873Y-139207928D02*
G01*
X145475923Y-139221509D01*
X145477252Y-139228783D01*
X145462638Y-139235628D01*
X145452118Y-139233900D01*
X145440626Y-139221509D01*
X145441006Y-139218159D01*
X145453912Y-139207390D01*
X145457873Y-139207928D01*
G37*
G36*
X154542646Y-139127382D02*
G01*
X154544854Y-139131629D01*
X154533233Y-139136795D01*
X154525758Y-139135776D01*
X154523820Y-139127382D01*
X154525890Y-139125693D01*
X154542646Y-139127382D01*
G37*
G36*
X149775145Y-139129736D02*
G01*
X149768086Y-139136795D01*
X149761026Y-139129736D01*
X149768086Y-139122676D01*
X149775145Y-139129736D01*
G37*
G36*
X145055616Y-139112892D02*
G01*
X145058043Y-139113590D01*
X145060134Y-139117888D01*
X145038236Y-139119924D01*
X145034892Y-139119943D01*
X145012789Y-139118050D01*
X145013259Y-139113415D01*
X145024860Y-139110825D01*
X145055616Y-139112892D01*
G37*
G36*
X154514408Y-139099145D02*
G01*
X154516617Y-139103391D01*
X154504995Y-139108557D01*
X154497520Y-139107538D01*
X154495582Y-139099145D01*
X154497652Y-139097455D01*
X154514408Y-139099145D01*
G37*
G36*
X144946463Y-139101498D02*
G01*
X144939403Y-139108557D01*
X144932344Y-139101498D01*
X144939403Y-139094438D01*
X144946463Y-139101498D01*
G37*
G36*
X151949464Y-139045022D02*
G01*
X151942405Y-139052081D01*
X151935345Y-139045022D01*
X151942405Y-139037962D01*
X151949464Y-139045022D01*
G37*
G36*
X151874163Y-139000312D02*
G01*
X151876372Y-139004559D01*
X151864750Y-139009724D01*
X151857276Y-139008706D01*
X151855338Y-139000312D01*
X151857407Y-138998622D01*
X151874163Y-139000312D01*
G37*
G36*
X154900326Y-138960308D02*
G01*
X154893266Y-138967368D01*
X154886207Y-138960308D01*
X154893266Y-138953249D01*
X154900326Y-138960308D01*
G37*
G36*
X149629249Y-138957955D02*
G01*
X149631458Y-138962202D01*
X149619837Y-138967368D01*
X149612362Y-138966349D01*
X149610424Y-138957955D01*
X149612493Y-138956265D01*
X149629249Y-138957955D01*
G37*
G36*
X151977702Y-138938913D02*
G01*
X151970683Y-138943125D01*
X151939146Y-138953080D01*
X151916037Y-138947851D01*
X151909764Y-138928703D01*
X151915289Y-138917667D01*
X151952481Y-138917667D01*
X151954170Y-138934423D01*
X151958417Y-138936632D01*
X151963583Y-138925011D01*
X151962564Y-138917536D01*
X151954170Y-138915598D01*
X151952481Y-138917667D01*
X151915289Y-138917667D01*
X151918821Y-138910613D01*
X151944828Y-138900183D01*
X151977702Y-138910909D01*
X151980605Y-138912873D01*
X151991252Y-138925011D01*
X151991779Y-138925612D01*
X151977702Y-138938913D01*
G37*
G36*
X152093301Y-138873009D02*
G01*
X152099836Y-138878091D01*
X152084771Y-138881539D01*
X152070451Y-138880541D01*
X152066240Y-138874124D01*
X152071235Y-138871326D01*
X152093301Y-138873009D01*
G37*
G36*
X152316557Y-138861475D02*
G01*
X152309498Y-138868535D01*
X152302438Y-138861475D01*
X152309498Y-138854416D01*
X152316557Y-138861475D01*
G37*
G36*
X144988819Y-138472371D02*
G01*
X144988277Y-138476469D01*
X144974700Y-138487323D01*
X144971505Y-138487161D01*
X144960581Y-138481097D01*
X144961231Y-138478832D01*
X144974700Y-138466145D01*
X144980170Y-138463939D01*
X144988819Y-138472371D01*
G37*
G36*
X144946463Y-138459085D02*
G01*
X144945444Y-138466560D01*
X144937050Y-138468498D01*
X144935360Y-138466428D01*
X144937050Y-138449673D01*
X144941297Y-138447464D01*
X144946463Y-138459085D01*
G37*
G36*
X148109108Y-138282598D02*
G01*
X148102049Y-138289658D01*
X148094989Y-138282598D01*
X148102049Y-138275539D01*
X148109108Y-138282598D01*
G37*
G36*
X146058330Y-138237568D02*
G01*
X146062336Y-138238888D01*
X146059309Y-138242553D01*
X146033622Y-138244025D01*
X146024043Y-138243889D01*
X146004520Y-138241661D01*
X146008914Y-138237568D01*
X146022521Y-138235373D01*
X146058330Y-138237568D01*
G37*
G36*
X145977146Y-138240241D02*
G01*
X145970087Y-138247301D01*
X145963027Y-138240241D01*
X145970087Y-138233182D01*
X145977146Y-138240241D01*
G37*
G36*
X145944202Y-138237888D02*
G01*
X145946411Y-138242135D01*
X145934789Y-138247301D01*
X145927315Y-138246282D01*
X145925377Y-138237888D01*
X145927446Y-138236199D01*
X145944202Y-138237888D01*
G37*
G36*
X145887726Y-138223769D02*
G01*
X145889935Y-138228016D01*
X145878314Y-138233182D01*
X145870839Y-138232163D01*
X145868901Y-138223769D01*
X145870970Y-138222080D01*
X145887726Y-138223769D01*
G37*
G36*
X145753890Y-138223537D02*
G01*
X145760425Y-138228619D01*
X145745360Y-138232067D01*
X145731040Y-138231069D01*
X145726829Y-138224652D01*
X145731824Y-138221854D01*
X145753890Y-138223537D01*
G37*
G36*
X145627702Y-138209099D02*
G01*
X145634854Y-138211300D01*
X145626472Y-138214116D01*
X145595934Y-138215217D01*
X145575215Y-138214806D01*
X145557476Y-138212590D01*
X145564167Y-138209099D01*
X145586560Y-138206763D01*
X145627702Y-138209099D01*
G37*
G36*
X145472129Y-138191368D02*
G01*
X145482983Y-138204944D01*
X145482821Y-138208139D01*
X145476757Y-138219063D01*
X145474492Y-138218413D01*
X145461804Y-138204944D01*
X145459598Y-138199475D01*
X145468031Y-138190825D01*
X145472129Y-138191368D01*
G37*
G36*
X145059414Y-138212004D02*
G01*
X145052355Y-138219063D01*
X145045295Y-138212004D01*
X145052355Y-138204944D01*
X145059414Y-138212004D01*
G37*
G36*
X145370031Y-138190825D02*
G01*
X145376954Y-138196818D01*
X145369959Y-138202838D01*
X145337430Y-138204728D01*
X145327881Y-138204589D01*
X145298532Y-138200217D01*
X145292377Y-138190825D01*
X145305069Y-138180872D01*
X145336091Y-138178257D01*
X145370031Y-138190825D01*
G37*
G36*
X145271198Y-138183766D02*
G01*
X145264139Y-138190825D01*
X145257080Y-138183766D01*
X145264139Y-138176706D01*
X145271198Y-138183766D01*
G37*
G36*
X145193413Y-138176919D02*
G01*
X145193371Y-138176986D01*
X145174370Y-138186762D01*
X145140941Y-138190825D01*
X145120504Y-138190334D01*
X145104531Y-138186992D01*
X145116245Y-138180745D01*
X145155419Y-138171887D01*
X145159504Y-138171141D01*
X145188256Y-138169202D01*
X145193413Y-138176919D01*
G37*
G36*
X145020587Y-138166742D02*
G01*
X145027739Y-138168943D01*
X145019357Y-138171759D01*
X144988819Y-138172861D01*
X144968100Y-138172449D01*
X144950361Y-138170233D01*
X144957052Y-138166742D01*
X144979445Y-138164406D01*
X145020587Y-138166742D01*
G37*
G36*
X144940835Y-137979690D02*
G01*
X144953522Y-137993160D01*
X144955728Y-137998629D01*
X144947296Y-138007279D01*
X144943198Y-138006736D01*
X144932344Y-137993160D01*
X144932505Y-137989964D01*
X144938570Y-137979041D01*
X144940835Y-137979690D01*
G37*
G36*
X148320893Y-137915505D02*
G01*
X148313833Y-137922565D01*
X148306774Y-137915505D01*
X148313833Y-137908446D01*
X148320893Y-137915505D01*
G37*
G36*
X149168030Y-137195439D02*
G01*
X149160971Y-137202498D01*
X149153911Y-137195439D01*
X149160971Y-137188379D01*
X149168030Y-137195439D01*
G37*
G36*
X148391488Y-136933405D02*
G01*
X148390945Y-136937503D01*
X148377369Y-136948357D01*
X148374173Y-136948195D01*
X148363250Y-136942131D01*
X148363899Y-136939866D01*
X148377369Y-136927179D01*
X148382838Y-136924972D01*
X148391488Y-136933405D01*
G37*
G36*
X148725636Y-136924825D02*
G01*
X148727845Y-136929072D01*
X148716223Y-136934238D01*
X148708749Y-136933219D01*
X148706811Y-136924825D01*
X148708880Y-136923136D01*
X148725636Y-136924825D01*
G37*
G36*
X146664269Y-136896588D02*
G01*
X146666478Y-136900834D01*
X146654856Y-136906000D01*
X146647382Y-136904981D01*
X146645443Y-136896588D01*
X146647513Y-136894898D01*
X146664269Y-136896588D01*
G37*
G36*
X149210387Y-136870703D02*
G01*
X149203327Y-136877762D01*
X149196268Y-136870703D01*
X149203327Y-136863643D01*
X149210387Y-136870703D01*
G37*
G36*
X151133830Y-136765353D02*
G01*
X151144684Y-136778930D01*
X151144522Y-136782125D01*
X151138458Y-136793049D01*
X151136193Y-136792399D01*
X151123505Y-136778930D01*
X151121299Y-136773460D01*
X151129732Y-136764811D01*
X151133830Y-136765353D01*
G37*
G36*
X151293908Y-136589593D02*
G01*
X151311138Y-136603867D01*
X151319191Y-136615510D01*
X151315501Y-136623621D01*
X151303002Y-136618720D01*
X151288918Y-136602899D01*
X151287989Y-136588808D01*
X151293908Y-136589593D01*
G37*
G36*
X149125673Y-135769424D02*
G01*
X149118614Y-135776484D01*
X149111554Y-135769424D01*
X149118614Y-135762365D01*
X149125673Y-135769424D01*
G37*
G36*
X149171295Y-135649956D02*
G01*
X149182149Y-135663532D01*
X149181987Y-135666727D01*
X149175923Y-135677651D01*
X149173658Y-135677001D01*
X149160971Y-135663532D01*
X149158764Y-135658063D01*
X149167197Y-135649413D01*
X149171295Y-135649956D01*
G37*
G36*
X153864726Y-135482587D02*
G01*
X153874748Y-135501164D01*
X153876967Y-135511993D01*
X153869199Y-135522343D01*
X153862912Y-135519957D01*
X153855523Y-135501164D01*
X153856136Y-135491515D01*
X153861072Y-135479986D01*
X153864726Y-135482587D01*
G37*
G36*
X146739570Y-135515283D02*
G01*
X146732510Y-135522343D01*
X146725451Y-135515283D01*
X146732510Y-135508224D01*
X146739570Y-135515283D01*
G37*
G36*
X147030422Y-135342563D02*
G01*
X147033018Y-135348143D01*
X147027837Y-135368929D01*
X147018610Y-135379614D01*
X147010834Y-135368986D01*
X147009103Y-135355856D01*
X147016465Y-135340245D01*
X147030422Y-135342563D01*
G37*
G36*
X146488694Y-135000484D02*
G01*
X146499548Y-135014060D01*
X146499386Y-135017255D01*
X146493321Y-135028179D01*
X146491057Y-135027529D01*
X146478369Y-135014060D01*
X146476163Y-135008591D01*
X146484595Y-134999941D01*
X146488694Y-135000484D01*
G37*
G36*
X146386596Y-134597551D02*
G01*
X146379536Y-134604611D01*
X146372477Y-134597551D01*
X146379536Y-134590492D01*
X146386596Y-134597551D01*
G37*
G36*
X150339903Y-134435183D02*
G01*
X150338884Y-134442658D01*
X150330491Y-134444596D01*
X150328801Y-134442526D01*
X150330491Y-134425770D01*
X150334737Y-134423562D01*
X150339903Y-134435183D01*
G37*
G36*
X150283427Y-134414005D02*
G01*
X150276368Y-134421064D01*
X150269309Y-134414005D01*
X150276368Y-134406945D01*
X150283427Y-134414005D01*
G37*
G36*
X150975256Y-134336350D02*
G01*
X150974237Y-134343825D01*
X150965844Y-134345763D01*
X150964154Y-134343694D01*
X150965844Y-134326938D01*
X150970090Y-134324729D01*
X150975256Y-134336350D01*
G37*
G36*
X154519114Y-138847356D02*
G01*
X154512054Y-138854416D01*
X154504995Y-138847356D01*
X154512054Y-138840297D01*
X154519114Y-138847356D01*
G37*
G36*
X148815056Y-137421342D02*
G01*
X148807997Y-137428402D01*
X148800937Y-137421342D01*
X148807997Y-137414283D01*
X148815056Y-137421342D01*
G37*
G36*
X148482111Y-137290747D02*
G01*
X148490320Y-137307214D01*
X148487415Y-137318201D01*
X148467965Y-137329569D01*
X148452538Y-137321419D01*
X148454909Y-137304501D01*
X148473554Y-137290448D01*
X148482111Y-137290747D01*
G37*
D12*
X158510000Y-128630000D02*
X158510000Y-139550000D01*
X141370000Y-128630000D02*
X158510000Y-128630000D01*
X141370000Y-128630000D02*
X141370000Y-139550000D01*
X158510000Y-139550000D02*
G75*
G03X158510000Y-139550000I-8570000J0D01*
G01*
D10*
X140692380Y-136319761D02*
X140216190Y-135986428D01*
X140692380Y-135748333D02*
X139692380Y-135748333D01*
X139692380Y-136129285D01*
X139740000Y-136224523D01*
X139787619Y-136272142D01*
X139882857Y-136319761D01*
X140025714Y-136319761D01*
X140120952Y-136272142D01*
X140168571Y-136224523D01*
X140216190Y-136129285D01*
X140216190Y-135748333D01*
X139692380Y-136605476D02*
X140692380Y-136938809D01*
X139692380Y-137272142D01*
X140692380Y-138129285D02*
X140692380Y-137557857D01*
X140692380Y-137843571D02*
X139692380Y-137843571D01*
X139835238Y-137748333D01*
X139930476Y-137653095D01*
X139978095Y-137557857D01*
M02*
