G04 #@! TF.GenerationSoftware,KiCad,Pcbnew,6.0.0-unknown-3fefe01~100~ubuntu19.04.1*
G04 #@! TF.CreationDate,2019-08-17T22:35:10-04:00*
G04 #@! TF.ProjectId,1000WBlender,31303030-5742-46c6-956e-6465722e6b69,rev?*
G04 #@! TF.SameCoordinates,Original*
G04 #@! TF.FileFunction,Soldermask,Bot*
G04 #@! TF.FilePolarity,Negative*
%FSLAX46Y46*%
G04 Gerber Fmt 4.6, Leading zero omitted, Abs format (unit mm)*
G04 Created by KiCad (PCBNEW 6.0.0-unknown-3fefe01~100~ubuntu19.04.1) date 2019-08-17 22:35:10*
%MOMM*%
%LPD*%
G04 APERTURE LIST*
%ADD10C,0.100000*%
G04 APERTURE END LIST*
D10*
G36*
X161478360Y-145163835D02*
G01*
X161559397Y-145190166D01*
X161646663Y-145217848D01*
X161649655Y-145219493D01*
X161658488Y-145222363D01*
X161730466Y-145263919D01*
X161801499Y-145302970D01*
X161808986Y-145309253D01*
X161822511Y-145317061D01*
X161880259Y-145369057D01*
X161936857Y-145416549D01*
X161946962Y-145429118D01*
X161963261Y-145443793D01*
X162005454Y-145501867D01*
X162047579Y-145554260D01*
X162057994Y-145574182D01*
X162074586Y-145597019D01*
X162101297Y-145657012D01*
X162129439Y-145710843D01*
X162137582Y-145738510D01*
X162151621Y-145770042D01*
X162163992Y-145828241D01*
X162179328Y-145880349D01*
X162182518Y-145915401D01*
X162190999Y-145955301D01*
X162190999Y-146008592D01*
X162195343Y-146056324D01*
X162190999Y-146097653D01*
X162190999Y-146144699D01*
X162181217Y-146190721D01*
X162176873Y-146232047D01*
X162162702Y-146277827D01*
X162151621Y-146329958D01*
X162135028Y-146367226D01*
X162124622Y-146400843D01*
X162098789Y-146448620D01*
X162074586Y-146502981D01*
X162054298Y-146530905D01*
X162040580Y-146556276D01*
X162001859Y-146603082D01*
X161963261Y-146656207D01*
X161942284Y-146675095D01*
X161927952Y-146692419D01*
X161875845Y-146734917D01*
X161822511Y-146782939D01*
X161803524Y-146793901D01*
X161791025Y-146804095D01*
X161725780Y-146838786D01*
X161658488Y-146877637D01*
X161643636Y-146882463D01*
X161635003Y-146887053D01*
X161557430Y-146910473D01*
X161478360Y-146936165D01*
X161469114Y-146937137D01*
X161465851Y-146938122D01*
X161374710Y-146947059D01*
X161337211Y-146951000D01*
X161242789Y-146951000D01*
X161101640Y-146936165D01*
X161020603Y-146909834D01*
X160933337Y-146882152D01*
X160930345Y-146880507D01*
X160921512Y-146877637D01*
X160849534Y-146836081D01*
X160778501Y-146797030D01*
X160771014Y-146790747D01*
X160757489Y-146782939D01*
X160699741Y-146730943D01*
X160643143Y-146683451D01*
X160633038Y-146670882D01*
X160616739Y-146656207D01*
X160574546Y-146598133D01*
X160532421Y-146545740D01*
X160522006Y-146525818D01*
X160505414Y-146502981D01*
X160478703Y-146442988D01*
X160450561Y-146389157D01*
X160442418Y-146361490D01*
X160428379Y-146329958D01*
X160416008Y-146271759D01*
X160400672Y-146219651D01*
X160397482Y-146184599D01*
X160389001Y-146144699D01*
X160389001Y-146091408D01*
X160384657Y-146043676D01*
X160389001Y-146002347D01*
X160389001Y-145955301D01*
X160398783Y-145909279D01*
X160403127Y-145867953D01*
X160417298Y-145822173D01*
X160428379Y-145770042D01*
X160444972Y-145732774D01*
X160455378Y-145699157D01*
X160481211Y-145651380D01*
X160505414Y-145597019D01*
X160525702Y-145569095D01*
X160539420Y-145543724D01*
X160578141Y-145496918D01*
X160616739Y-145443793D01*
X160637716Y-145424905D01*
X160652048Y-145407581D01*
X160704155Y-145365083D01*
X160757489Y-145317061D01*
X160776476Y-145306099D01*
X160788975Y-145295905D01*
X160854220Y-145261214D01*
X160921512Y-145222363D01*
X160936364Y-145217537D01*
X160944997Y-145212947D01*
X161022570Y-145189527D01*
X161101640Y-145163835D01*
X161110886Y-145162863D01*
X161114149Y-145161878D01*
X161205290Y-145152941D01*
X161242789Y-145149000D01*
X161337211Y-145149000D01*
X161478360Y-145163835D01*
X161478360Y-145163835D01*
G37*
G36*
X138235591Y-144745345D02*
G01*
X138286391Y-144745700D01*
X138337051Y-144756099D01*
X138382828Y-144760951D01*
X138432287Y-144775648D01*
X138488293Y-144787145D01*
X138530069Y-144804706D01*
X138567981Y-144815972D01*
X138619722Y-144842392D01*
X138678300Y-144867016D01*
X138710564Y-144888779D01*
X138740015Y-144903817D01*
X138791254Y-144943205D01*
X138849174Y-144982273D01*
X138872070Y-145005330D01*
X138893158Y-145021540D01*
X138940764Y-145074504D01*
X138994407Y-145128523D01*
X139008831Y-145150233D01*
X139022284Y-145165200D01*
X139062922Y-145231646D01*
X139108468Y-145300198D01*
X139115950Y-145318350D01*
X139123065Y-145329984D01*
X139153378Y-145409158D01*
X139187011Y-145490758D01*
X139189572Y-145503693D01*
X139192132Y-145510379D01*
X139208931Y-145601461D01*
X139227045Y-145692944D01*
X139223757Y-145928363D01*
X139220234Y-145943869D01*
X139220069Y-145949973D01*
X139198745Y-146038453D01*
X139178094Y-146129352D01*
X139175358Y-146135497D01*
X139175199Y-146136157D01*
X139117914Y-146264518D01*
X139094261Y-146317645D01*
X139040257Y-146394200D01*
X138986932Y-146471643D01*
X138982520Y-146476048D01*
X138975451Y-146486068D01*
X138910969Y-146547474D01*
X138850227Y-146608109D01*
X138839742Y-146615302D01*
X138826191Y-146628206D01*
X138755960Y-146672776D01*
X138690942Y-146717378D01*
X138673400Y-146725170D01*
X138652165Y-146738646D01*
X138580347Y-146766503D01*
X138514410Y-146795791D01*
X138489446Y-146801761D01*
X138460002Y-146813182D01*
X138390304Y-146825471D01*
X138326543Y-146840720D01*
X138294438Y-146842375D01*
X138257022Y-146848972D01*
X138192608Y-146847623D01*
X138133641Y-146850662D01*
X138095342Y-146845586D01*
X138050955Y-146844656D01*
X137994223Y-146832183D01*
X137942152Y-146825281D01*
X137899267Y-146811306D01*
X137849652Y-146800397D01*
X137802265Y-146779694D01*
X137758498Y-146765431D01*
X137713176Y-146740772D01*
X137660779Y-146717880D01*
X137623565Y-146692016D01*
X137588825Y-146673114D01*
X137543703Y-146636510D01*
X137491530Y-146600249D01*
X137464502Y-146572260D01*
X137438814Y-146551422D01*
X137396877Y-146502233D01*
X137348353Y-146451985D01*
X137330751Y-146424672D01*
X137313495Y-146404432D01*
X137277942Y-146342728D01*
X137236701Y-146278734D01*
X137227105Y-146254498D01*
X137217060Y-146237064D01*
X137191127Y-146163628D01*
X137160826Y-146087096D01*
X137157282Y-146067785D01*
X137152739Y-146054921D01*
X137139546Y-145971152D01*
X137123619Y-145884371D01*
X137123803Y-145871188D01*
X137122689Y-145864114D01*
X137125196Y-145771460D01*
X137126497Y-145678279D01*
X137127895Y-145671703D01*
X137127913Y-145671026D01*
X137157406Y-145532863D01*
X137169350Y-145476672D01*
X137206226Y-145390635D01*
X137242315Y-145303722D01*
X137245718Y-145298492D01*
X137250546Y-145287227D01*
X137300828Y-145213791D01*
X137347658Y-145141818D01*
X137356423Y-145132598D01*
X137366992Y-145117162D01*
X137426409Y-145058977D01*
X137480745Y-145001818D01*
X137496286Y-144990547D01*
X137514253Y-144972953D01*
X137578701Y-144930780D01*
X137637118Y-144888415D01*
X137660301Y-144877382D01*
X137686720Y-144860094D01*
X137752316Y-144833591D01*
X137811532Y-144805410D01*
X137842596Y-144797116D01*
X137877823Y-144782883D01*
X137941128Y-144770807D01*
X137998159Y-144755579D01*
X138036663Y-144752582D01*
X138080284Y-144744261D01*
X138138370Y-144744667D01*
X138190735Y-144740591D01*
X138235591Y-144745345D01*
X138235591Y-144745345D01*
G37*
G36*
X162159899Y-142611959D02*
G01*
X162176769Y-142623231D01*
X162188041Y-142640101D01*
X162194448Y-142672312D01*
X162194448Y-144347688D01*
X162191999Y-144360000D01*
X162188041Y-144379899D01*
X162176769Y-144396769D01*
X162159899Y-144408041D01*
X162140000Y-144411999D01*
X162127688Y-144414448D01*
X160452312Y-144414448D01*
X160420101Y-144408041D01*
X160403231Y-144396769D01*
X160391959Y-144379899D01*
X160385552Y-144347688D01*
X160385552Y-142672312D01*
X160391959Y-142640101D01*
X160403231Y-142623231D01*
X160420101Y-142611959D01*
X160452312Y-142605552D01*
X162127688Y-142605552D01*
X162159899Y-142611959D01*
X162159899Y-142611959D01*
G37*
G36*
X138235591Y-142205345D02*
G01*
X138286391Y-142205700D01*
X138337051Y-142216099D01*
X138382828Y-142220951D01*
X138432287Y-142235648D01*
X138488293Y-142247145D01*
X138530069Y-142264706D01*
X138567981Y-142275972D01*
X138619722Y-142302392D01*
X138678300Y-142327016D01*
X138710564Y-142348779D01*
X138740015Y-142363817D01*
X138791254Y-142403205D01*
X138849174Y-142442273D01*
X138872070Y-142465330D01*
X138893158Y-142481540D01*
X138940764Y-142534504D01*
X138994407Y-142588523D01*
X139008831Y-142610233D01*
X139022284Y-142625200D01*
X139062922Y-142691646D01*
X139108468Y-142760198D01*
X139115950Y-142778350D01*
X139123065Y-142789984D01*
X139153378Y-142869158D01*
X139187011Y-142950758D01*
X139189572Y-142963693D01*
X139192132Y-142970379D01*
X139208931Y-143061461D01*
X139227045Y-143152944D01*
X139223757Y-143388363D01*
X139220234Y-143403869D01*
X139220069Y-143409973D01*
X139198745Y-143498453D01*
X139178094Y-143589352D01*
X139175358Y-143595497D01*
X139175199Y-143596157D01*
X139117914Y-143724518D01*
X139094261Y-143777645D01*
X139040257Y-143854200D01*
X138986932Y-143931643D01*
X138982520Y-143936048D01*
X138975451Y-143946068D01*
X138910969Y-144007474D01*
X138850227Y-144068109D01*
X138839742Y-144075302D01*
X138826191Y-144088206D01*
X138755960Y-144132776D01*
X138690942Y-144177378D01*
X138673400Y-144185170D01*
X138652165Y-144198646D01*
X138580347Y-144226503D01*
X138514410Y-144255791D01*
X138489446Y-144261761D01*
X138460002Y-144273182D01*
X138390304Y-144285471D01*
X138326543Y-144300720D01*
X138294438Y-144302375D01*
X138257022Y-144308972D01*
X138192608Y-144307623D01*
X138133641Y-144310662D01*
X138095342Y-144305586D01*
X138050955Y-144304656D01*
X137994223Y-144292183D01*
X137942152Y-144285281D01*
X137899267Y-144271306D01*
X137849652Y-144260397D01*
X137802265Y-144239694D01*
X137758498Y-144225431D01*
X137713176Y-144200772D01*
X137660779Y-144177880D01*
X137623565Y-144152016D01*
X137588825Y-144133114D01*
X137543703Y-144096510D01*
X137491530Y-144060249D01*
X137464502Y-144032260D01*
X137438814Y-144011422D01*
X137396877Y-143962233D01*
X137348353Y-143911985D01*
X137330751Y-143884672D01*
X137313495Y-143864432D01*
X137277942Y-143802728D01*
X137236701Y-143738734D01*
X137227105Y-143714498D01*
X137217060Y-143697064D01*
X137191127Y-143623628D01*
X137160826Y-143547096D01*
X137157282Y-143527785D01*
X137152739Y-143514921D01*
X137139546Y-143431152D01*
X137123619Y-143344371D01*
X137123803Y-143331188D01*
X137122689Y-143324114D01*
X137125196Y-143231460D01*
X137126497Y-143138279D01*
X137127895Y-143131703D01*
X137127913Y-143131026D01*
X137157406Y-142992863D01*
X137169350Y-142936672D01*
X137206226Y-142850635D01*
X137242315Y-142763722D01*
X137245718Y-142758492D01*
X137250546Y-142747227D01*
X137300828Y-142673791D01*
X137347658Y-142601818D01*
X137356423Y-142592598D01*
X137366992Y-142577162D01*
X137426409Y-142518977D01*
X137480745Y-142461818D01*
X137496286Y-142450547D01*
X137514253Y-142432953D01*
X137578701Y-142390780D01*
X137637118Y-142348415D01*
X137660301Y-142337382D01*
X137686720Y-142320094D01*
X137752316Y-142293591D01*
X137811532Y-142265410D01*
X137842596Y-142257116D01*
X137877823Y-142242883D01*
X137941128Y-142230807D01*
X137998159Y-142215579D01*
X138036663Y-142212582D01*
X138080284Y-142204261D01*
X138138370Y-142204667D01*
X138190735Y-142200591D01*
X138235591Y-142205345D01*
X138235591Y-142205345D01*
G37*
G36*
X139299899Y-132451959D02*
G01*
X139316769Y-132463231D01*
X139328041Y-132480101D01*
X139334448Y-132512312D01*
X139334448Y-134187688D01*
X139331999Y-134200000D01*
X139328041Y-134219899D01*
X139316769Y-134236769D01*
X139299899Y-134248041D01*
X139280000Y-134251999D01*
X139267688Y-134254448D01*
X137592312Y-134254448D01*
X137560101Y-134248041D01*
X137543231Y-134236769D01*
X137531959Y-134219899D01*
X137525552Y-134187688D01*
X137525552Y-132512312D01*
X137531959Y-132480101D01*
X137543231Y-132463231D01*
X137560101Y-132451959D01*
X137592312Y-132445552D01*
X139267688Y-132445552D01*
X139299899Y-132451959D01*
X139299899Y-132451959D01*
G37*
G36*
X162159899Y-132451959D02*
G01*
X162176769Y-132463231D01*
X162188041Y-132480101D01*
X162194448Y-132512312D01*
X162194448Y-134187688D01*
X162191999Y-134200000D01*
X162188041Y-134219899D01*
X162176769Y-134236769D01*
X162159899Y-134248041D01*
X162140000Y-134251999D01*
X162127688Y-134254448D01*
X160452312Y-134254448D01*
X160420101Y-134248041D01*
X160403231Y-134236769D01*
X160391959Y-134219899D01*
X160385552Y-134187688D01*
X160385552Y-132512312D01*
X160391959Y-132480101D01*
X160403231Y-132463231D01*
X160420101Y-132451959D01*
X160452312Y-132445552D01*
X162127688Y-132445552D01*
X162159899Y-132451959D01*
X162159899Y-132451959D01*
G37*
G36*
X139299899Y-127371959D02*
G01*
X139316769Y-127383231D01*
X139328041Y-127400101D01*
X139334448Y-127432312D01*
X139334448Y-129107688D01*
X139331999Y-129120000D01*
X139328041Y-129139899D01*
X139316769Y-129156769D01*
X139299899Y-129168041D01*
X139280000Y-129171999D01*
X139267688Y-129174448D01*
X137592312Y-129174448D01*
X137560101Y-129168041D01*
X137543231Y-129156769D01*
X137531959Y-129139899D01*
X137525552Y-129107688D01*
X137525552Y-127432312D01*
X137531959Y-127400101D01*
X137543231Y-127383231D01*
X137560101Y-127371959D01*
X137592312Y-127365552D01*
X139267688Y-127365552D01*
X139299899Y-127371959D01*
X139299899Y-127371959D01*
G37*
G36*
X162159899Y-127371959D02*
G01*
X162176769Y-127383231D01*
X162188041Y-127400101D01*
X162194448Y-127432312D01*
X162194448Y-129107688D01*
X162191999Y-129120000D01*
X162188041Y-129139899D01*
X162176769Y-129156769D01*
X162159899Y-129168041D01*
X162140000Y-129171999D01*
X162127688Y-129174448D01*
X160452312Y-129174448D01*
X160420101Y-129168041D01*
X160403231Y-129156769D01*
X160391959Y-129139899D01*
X160385552Y-129107688D01*
X160385552Y-127432312D01*
X160391959Y-127400101D01*
X160403231Y-127383231D01*
X160420101Y-127371959D01*
X160452312Y-127365552D01*
X162127688Y-127365552D01*
X162159899Y-127371959D01*
X162159899Y-127371959D01*
G37*
G36*
X155030222Y-125779000D02*
G01*
X155046824Y-125779000D01*
X155132354Y-125794082D01*
X155226189Y-125807938D01*
X155242977Y-125813588D01*
X155257224Y-125816100D01*
X155340421Y-125846381D01*
X155432762Y-125877457D01*
X155446397Y-125884953D01*
X155457989Y-125889172D01*
X155536041Y-125934236D01*
X155623759Y-125982459D01*
X155634172Y-125990892D01*
X155643010Y-125995994D01*
X155713079Y-126054789D01*
X155793144Y-126119624D01*
X155800492Y-126128137D01*
X155806675Y-126133325D01*
X155866065Y-126204103D01*
X155935562Y-126284616D01*
X155940191Y-126292444D01*
X155944006Y-126296990D01*
X155990291Y-126377158D01*
X156046511Y-126472221D01*
X156048928Y-126478720D01*
X156050828Y-126482011D01*
X156081866Y-126567287D01*
X156122485Y-126676509D01*
X156123332Y-126681214D01*
X156123900Y-126682776D01*
X156137982Y-126762637D01*
X156161082Y-126891021D01*
X156161000Y-126894152D01*
X156161000Y-127106824D01*
X156154460Y-127143915D01*
X156153705Y-127172736D01*
X156136271Y-127247064D01*
X156123900Y-127317224D01*
X156112413Y-127348786D01*
X156103934Y-127384934D01*
X156074495Y-127452964D01*
X156050828Y-127517989D01*
X156032976Y-127548910D01*
X156017373Y-127584966D01*
X155977576Y-127644865D01*
X155944006Y-127703010D01*
X155919695Y-127731983D01*
X155896757Y-127766507D01*
X155848507Y-127816822D01*
X155806675Y-127866675D01*
X155776082Y-127892346D01*
X155745899Y-127923820D01*
X155691277Y-127963505D01*
X155643010Y-128004006D01*
X155606596Y-128025030D01*
X155569568Y-128051932D01*
X155510756Y-128080363D01*
X155457989Y-128110828D01*
X155416496Y-128125930D01*
X155373337Y-128146794D01*
X155312515Y-128163776D01*
X155257224Y-128183900D01*
X155211667Y-128191933D01*
X155163409Y-128205407D01*
X155102722Y-128211143D01*
X155046824Y-128221000D01*
X154998448Y-128221000D01*
X154946419Y-128225918D01*
X154887851Y-128221000D01*
X154833176Y-128221000D01*
X154783466Y-128212235D01*
X154729226Y-128207680D01*
X154674546Y-128193029D01*
X154622776Y-128183900D01*
X154573380Y-128165921D01*
X154518696Y-128151269D01*
X154469438Y-128128090D01*
X154422011Y-128110828D01*
X154374668Y-128083494D01*
X154321482Y-128058467D01*
X154278880Y-128028191D01*
X154236990Y-128004006D01*
X154193507Y-127967520D01*
X154143819Y-127932208D01*
X154108767Y-127896415D01*
X154073325Y-127866675D01*
X154035500Y-127821597D01*
X153991322Y-127776484D01*
X153964377Y-127736835D01*
X153935994Y-127703010D01*
X153905530Y-127650245D01*
X153868812Y-127596216D01*
X153850196Y-127554403D01*
X153829172Y-127517989D01*
X153807622Y-127458781D01*
X153780161Y-127397102D01*
X153769759Y-127354751D01*
X153756100Y-127317224D01*
X153744798Y-127253131D01*
X153728171Y-127185436D01*
X153725569Y-127144077D01*
X153719000Y-127106824D01*
X153719000Y-127039671D01*
X153714485Y-126967909D01*
X153719000Y-126928886D01*
X153719000Y-126893176D01*
X153731017Y-126825027D01*
X153739536Y-126751396D01*
X153750268Y-126715850D01*
X153756100Y-126682776D01*
X153780465Y-126615833D01*
X153802533Y-126542741D01*
X153818408Y-126511584D01*
X153829172Y-126482011D01*
X153865817Y-126418541D01*
X153901484Y-126348540D01*
X153921318Y-126322409D01*
X153935994Y-126296990D01*
X153984395Y-126239308D01*
X154033260Y-126174930D01*
X154055826Y-126154180D01*
X154073325Y-126133325D01*
X154132537Y-126083640D01*
X154193698Y-126027400D01*
X154217760Y-126012130D01*
X154236990Y-125995994D01*
X154305651Y-125956353D01*
X154377725Y-125910613D01*
X154402111Y-125900661D01*
X154422011Y-125889172D01*
X154498351Y-125861387D01*
X154579526Y-125828260D01*
X154603181Y-125823232D01*
X154622776Y-125816100D01*
X154704674Y-125801659D01*
X154792720Y-125782944D01*
X154814732Y-125782252D01*
X154833176Y-125779000D01*
X154918224Y-125779000D01*
X155010570Y-125776098D01*
X155030222Y-125779000D01*
X155030222Y-125779000D01*
G37*
G36*
X150030222Y-125779000D02*
G01*
X150046824Y-125779000D01*
X150132354Y-125794082D01*
X150226189Y-125807938D01*
X150242977Y-125813588D01*
X150257224Y-125816100D01*
X150340421Y-125846381D01*
X150432762Y-125877457D01*
X150446397Y-125884953D01*
X150457989Y-125889172D01*
X150536041Y-125934236D01*
X150623759Y-125982459D01*
X150634172Y-125990892D01*
X150643010Y-125995994D01*
X150713079Y-126054789D01*
X150793144Y-126119624D01*
X150800492Y-126128137D01*
X150806675Y-126133325D01*
X150866065Y-126204103D01*
X150935562Y-126284616D01*
X150940191Y-126292444D01*
X150944006Y-126296990D01*
X150990291Y-126377158D01*
X151046511Y-126472221D01*
X151048928Y-126478720D01*
X151050828Y-126482011D01*
X151081866Y-126567287D01*
X151122485Y-126676509D01*
X151123332Y-126681214D01*
X151123900Y-126682776D01*
X151137982Y-126762637D01*
X151161082Y-126891021D01*
X151161000Y-126894152D01*
X151161000Y-127106824D01*
X151154460Y-127143915D01*
X151153705Y-127172736D01*
X151136271Y-127247064D01*
X151123900Y-127317224D01*
X151112413Y-127348786D01*
X151103934Y-127384934D01*
X151074495Y-127452964D01*
X151050828Y-127517989D01*
X151032976Y-127548910D01*
X151017373Y-127584966D01*
X150977576Y-127644865D01*
X150944006Y-127703010D01*
X150919695Y-127731983D01*
X150896757Y-127766507D01*
X150848507Y-127816822D01*
X150806675Y-127866675D01*
X150776082Y-127892346D01*
X150745899Y-127923820D01*
X150691277Y-127963505D01*
X150643010Y-128004006D01*
X150606596Y-128025030D01*
X150569568Y-128051932D01*
X150510756Y-128080363D01*
X150457989Y-128110828D01*
X150416496Y-128125930D01*
X150373337Y-128146794D01*
X150312515Y-128163776D01*
X150257224Y-128183900D01*
X150211667Y-128191933D01*
X150163409Y-128205407D01*
X150102722Y-128211143D01*
X150046824Y-128221000D01*
X149998448Y-128221000D01*
X149946419Y-128225918D01*
X149887851Y-128221000D01*
X149833176Y-128221000D01*
X149783466Y-128212235D01*
X149729226Y-128207680D01*
X149674546Y-128193029D01*
X149622776Y-128183900D01*
X149573380Y-128165921D01*
X149518696Y-128151269D01*
X149469438Y-128128090D01*
X149422011Y-128110828D01*
X149374668Y-128083494D01*
X149321482Y-128058467D01*
X149278880Y-128028191D01*
X149236990Y-128004006D01*
X149193507Y-127967520D01*
X149143819Y-127932208D01*
X149108767Y-127896415D01*
X149073325Y-127866675D01*
X149035500Y-127821597D01*
X148991322Y-127776484D01*
X148964377Y-127736835D01*
X148935994Y-127703010D01*
X148905530Y-127650245D01*
X148868812Y-127596216D01*
X148850196Y-127554403D01*
X148829172Y-127517989D01*
X148807622Y-127458781D01*
X148780161Y-127397102D01*
X148769759Y-127354751D01*
X148756100Y-127317224D01*
X148744798Y-127253131D01*
X148728171Y-127185436D01*
X148725569Y-127144077D01*
X148719000Y-127106824D01*
X148719000Y-127039671D01*
X148714485Y-126967909D01*
X148719000Y-126928886D01*
X148719000Y-126893176D01*
X148731017Y-126825027D01*
X148739536Y-126751396D01*
X148750268Y-126715850D01*
X148756100Y-126682776D01*
X148780465Y-126615833D01*
X148802533Y-126542741D01*
X148818408Y-126511584D01*
X148829172Y-126482011D01*
X148865817Y-126418541D01*
X148901484Y-126348540D01*
X148921318Y-126322409D01*
X148935994Y-126296990D01*
X148984395Y-126239308D01*
X149033260Y-126174930D01*
X149055826Y-126154180D01*
X149073325Y-126133325D01*
X149132537Y-126083640D01*
X149193698Y-126027400D01*
X149217760Y-126012130D01*
X149236990Y-125995994D01*
X149305651Y-125956353D01*
X149377725Y-125910613D01*
X149402111Y-125900661D01*
X149422011Y-125889172D01*
X149498351Y-125861387D01*
X149579526Y-125828260D01*
X149603181Y-125823232D01*
X149622776Y-125816100D01*
X149704674Y-125801659D01*
X149792720Y-125782944D01*
X149814732Y-125782252D01*
X149833176Y-125779000D01*
X149918224Y-125779000D01*
X150010570Y-125776098D01*
X150030222Y-125779000D01*
X150030222Y-125779000D01*
G37*
G36*
X145030222Y-125779000D02*
G01*
X145046824Y-125779000D01*
X145132354Y-125794082D01*
X145226189Y-125807938D01*
X145242977Y-125813588D01*
X145257224Y-125816100D01*
X145340421Y-125846381D01*
X145432762Y-125877457D01*
X145446397Y-125884953D01*
X145457989Y-125889172D01*
X145536041Y-125934236D01*
X145623759Y-125982459D01*
X145634172Y-125990892D01*
X145643010Y-125995994D01*
X145713079Y-126054789D01*
X145793144Y-126119624D01*
X145800492Y-126128137D01*
X145806675Y-126133325D01*
X145866065Y-126204103D01*
X145935562Y-126284616D01*
X145940191Y-126292444D01*
X145944006Y-126296990D01*
X145990291Y-126377158D01*
X146046511Y-126472221D01*
X146048928Y-126478720D01*
X146050828Y-126482011D01*
X146081866Y-126567287D01*
X146122485Y-126676509D01*
X146123332Y-126681214D01*
X146123900Y-126682776D01*
X146137982Y-126762637D01*
X146161082Y-126891021D01*
X146161000Y-126894152D01*
X146161000Y-127106824D01*
X146154460Y-127143915D01*
X146153705Y-127172736D01*
X146136271Y-127247064D01*
X146123900Y-127317224D01*
X146112413Y-127348786D01*
X146103934Y-127384934D01*
X146074495Y-127452964D01*
X146050828Y-127517989D01*
X146032976Y-127548910D01*
X146017373Y-127584966D01*
X145977576Y-127644865D01*
X145944006Y-127703010D01*
X145919695Y-127731983D01*
X145896757Y-127766507D01*
X145848507Y-127816822D01*
X145806675Y-127866675D01*
X145776082Y-127892346D01*
X145745899Y-127923820D01*
X145691277Y-127963505D01*
X145643010Y-128004006D01*
X145606596Y-128025030D01*
X145569568Y-128051932D01*
X145510756Y-128080363D01*
X145457989Y-128110828D01*
X145416496Y-128125930D01*
X145373337Y-128146794D01*
X145312515Y-128163776D01*
X145257224Y-128183900D01*
X145211667Y-128191933D01*
X145163409Y-128205407D01*
X145102722Y-128211143D01*
X145046824Y-128221000D01*
X144998448Y-128221000D01*
X144946419Y-128225918D01*
X144887851Y-128221000D01*
X144833176Y-128221000D01*
X144783466Y-128212235D01*
X144729226Y-128207680D01*
X144674546Y-128193029D01*
X144622776Y-128183900D01*
X144573380Y-128165921D01*
X144518696Y-128151269D01*
X144469438Y-128128090D01*
X144422011Y-128110828D01*
X144374668Y-128083494D01*
X144321482Y-128058467D01*
X144278880Y-128028191D01*
X144236990Y-128004006D01*
X144193507Y-127967520D01*
X144143819Y-127932208D01*
X144108767Y-127896415D01*
X144073325Y-127866675D01*
X144035500Y-127821597D01*
X143991322Y-127776484D01*
X143964377Y-127736835D01*
X143935994Y-127703010D01*
X143905530Y-127650245D01*
X143868812Y-127596216D01*
X143850196Y-127554403D01*
X143829172Y-127517989D01*
X143807622Y-127458781D01*
X143780161Y-127397102D01*
X143769759Y-127354751D01*
X143756100Y-127317224D01*
X143744798Y-127253131D01*
X143728171Y-127185436D01*
X143725569Y-127144077D01*
X143719000Y-127106824D01*
X143719000Y-127039671D01*
X143714485Y-126967909D01*
X143719000Y-126928886D01*
X143719000Y-126893176D01*
X143731017Y-126825027D01*
X143739536Y-126751396D01*
X143750268Y-126715850D01*
X143756100Y-126682776D01*
X143780465Y-126615833D01*
X143802533Y-126542741D01*
X143818408Y-126511584D01*
X143829172Y-126482011D01*
X143865817Y-126418541D01*
X143901484Y-126348540D01*
X143921318Y-126322409D01*
X143935994Y-126296990D01*
X143984395Y-126239308D01*
X144033260Y-126174930D01*
X144055826Y-126154180D01*
X144073325Y-126133325D01*
X144132537Y-126083640D01*
X144193698Y-126027400D01*
X144217760Y-126012130D01*
X144236990Y-125995994D01*
X144305651Y-125956353D01*
X144377725Y-125910613D01*
X144402111Y-125900661D01*
X144422011Y-125889172D01*
X144498351Y-125861387D01*
X144579526Y-125828260D01*
X144603181Y-125823232D01*
X144622776Y-125816100D01*
X144704674Y-125801659D01*
X144792720Y-125782944D01*
X144814732Y-125782252D01*
X144833176Y-125779000D01*
X144918224Y-125779000D01*
X145010570Y-125776098D01*
X145030222Y-125779000D01*
X145030222Y-125779000D01*
G37*
M02*
